<?xml version="1.0" encoding="UTF-8" standalone="no"?>
<!DOCTYPE svg PUBLIC "-//W3C//DTD SVG 1.1//EN"
 "http://www.w3.org/Graphics/SVG/1.1/DTD/svg11.dtd">
<!-- Generated by graphviz version 2.47.3 (20210619.1520)
 -->
<!-- Title: dependencies Pages: 1 -->
<svg width="492pt" height="174pt"
 viewBox="0.00 0.00 492.00 173.80" xmlns="http://www.w3.org/2000/svg" xmlns:xlink="http://www.w3.org/1999/xlink">
<g id="graph0" class="graph" transform="scale(1 1) rotate(0) translate(4 169.8)">
<title>dependencies</title>
<polygon fill="white" stroke="transparent" points="-4,4 -4,-169.8 488,-169.8 488,4 -4,4"/>
<text text-anchor="middle" x="242" y="-8.2" font-family="sans-serif" font-size="14.00">dependencies</text>
<g id="clust1" class="cluster">
<title>cluster_SettingsModule</title>
<polygon fill="none" stroke="black" stroke-dasharray="1,5" points="8,-32.8 8,-157.8 476,-157.8 476,-32.8 8,-32.8"/>
</g>
<g id="clust2" class="cluster">
<title>cluster_SettingsModule_declarations</title>
<polygon fill="none" stroke="black" points="190,-40.8 190,-92.8 468,-92.8 468,-40.8 190,-40.8"/>
</g>
<g id="clust5" class="cluster">
<title>cluster_SettingsModule_imports</title>
<polygon fill="none" stroke="black" points="16,-40.8 16,-92.8 182,-92.8 182,-40.8 16,-40.8"/>
</g>
<!-- SettingsNavComponent -->
<g id="node1" class="node">
<title>SettingsNavComponent</title>
<polygon fill="#ffffb3" stroke="black" points="459.77,-84.8 310.23,-84.8 310.23,-48.8 459.77,-48.8 459.77,-84.8"/>
<text text-anchor="middle" x="385" y="-62.6" font-family="Times,serif" font-size="14.00">SettingsNavComponent</text>
</g>
<!-- SettingsModule -->
<g id="node3" class="node">
<title>SettingsModule</title>
<polygon fill="#8dd3c7" stroke="black" points="297.16,-149.8 294.16,-153.8 273.16,-153.8 270.16,-149.8 192.84,-149.8 192.84,-113.8 297.16,-113.8 297.16,-149.8"/>
<text text-anchor="middle" x="245" y="-127.6" font-family="Times,serif" font-size="14.00">SettingsModule</text>
</g>
<!-- SettingsNavComponent&#45;&gt;SettingsModule -->
<g id="edge1" class="edge">
<title>SettingsNavComponent&#45;&gt;SettingsModule</title>
<path fill="none" stroke="black" d="M385,-84.91C385,-104.14 385,-131.8 385,-131.8 385,-131.8 307.53,-131.8 307.53,-131.8"/>
<polygon fill="black" stroke="black" points="307.53,-128.3 297.53,-131.8 307.53,-135.3 307.53,-128.3"/>
</g>
<!-- SettingsScene -->
<g id="node2" class="node">
<title>SettingsScene</title>
<polygon fill="#ffffb3" stroke="black" points="292.04,-84.8 197.96,-84.8 197.96,-48.8 292.04,-48.8 292.04,-84.8"/>
<text text-anchor="middle" x="245" y="-62.6" font-family="Times,serif" font-size="14.00">SettingsScene</text>
</g>
<!-- SettingsScene&#45;&gt;SettingsModule -->
<g id="edge2" class="edge">
<title>SettingsScene&#45;&gt;SettingsModule</title>
<path fill="none" stroke="black" d="M245,-84.91C245,-84.91 245,-103.79 245,-103.79"/>
<polygon fill="black" stroke="black" points="241.5,-103.79 245,-113.79 248.5,-103.79 241.5,-103.79"/>
</g>
<!-- SettingsRoutingModule -->
<g id="node4" class="node">
<title>SettingsRoutingModule</title>
<polygon fill="#8dd3c7" stroke="black" points="173.78,-84.8 170.78,-88.8 149.78,-88.8 146.78,-84.8 24.22,-84.8 24.22,-48.8 173.78,-48.8 173.78,-84.8"/>
<text text-anchor="middle" x="99" y="-62.6" font-family="Times,serif" font-size="14.00">SettingsRoutingModule</text>
</g>
<!-- SettingsRoutingModule&#45;&gt;SettingsModule -->
<g id="edge3" class="edge">
<title>SettingsRoutingModule&#45;&gt;SettingsModule</title>
<path fill="none" stroke="black" d="M99,-84.91C99,-104.14 99,-131.8 99,-131.8 99,-131.8 182.7,-131.8 182.7,-131.8"/>
<polygon fill="black" stroke="black" points="182.7,-135.3 192.7,-131.8 182.7,-128.3 182.7,-135.3"/>
</g>
</g>
</svg>
