<?xml version="1.0" encoding="UTF-8" standalone="no"?>
<!DOCTYPE svg PUBLIC "-//W3C//DTD SVG 1.1//EN"
 "http://www.w3.org/Graphics/SVG/1.1/DTD/svg11.dtd">
<!-- Generated by graphviz version 2.47.3 (20210619.1520)
 -->
<!-- Title: dependencies Pages: 1 -->
<svg width="844pt" height="247pt"
 viewBox="0.00 0.00 844.00 246.80" xmlns="http://www.w3.org/2000/svg" xmlns:xlink="http://www.w3.org/1999/xlink">
<g id="graph0" class="graph" transform="scale(1 1) rotate(0) translate(4 242.8)">
<title>dependencies</title>
<polygon fill="white" stroke="transparent" points="-4,4 -4,-242.8 840,-242.8 840,4 -4,4"/>
<text text-anchor="middle" x="418" y="-8.2" font-family="sans-serif" font-size="14.00">dependencies</text>
<g id="clust1" class="cluster">
<title>cluster_AvatarAppearancePortraitDesignerModule</title>
<polygon fill="none" stroke="black" stroke-dasharray="1,5" points="8,-32.8 8,-230.8 828,-230.8 828,-32.8 8,-32.8"/>
</g>
<g id="clust2" class="cluster">
<title>cluster_AvatarAppearancePortraitDesignerModule_declarations</title>
<polygon fill="none" stroke="black" points="526,-40.8 526,-92.8 820,-92.8 820,-40.8 526,-40.8"/>
</g>
<g id="clust5" class="cluster">
<title>cluster_AvatarAppearancePortraitDesignerModule_exports</title>
<polygon fill="none" stroke="black" points="230,-170.8 230,-222.8 528,-222.8 528,-170.8 230,-170.8"/>
</g>
<g id="clust4" class="cluster">
<title>cluster_AvatarAppearancePortraitDesignerModule_imports</title>
<polygon fill="none" stroke="black" points="16,-40.8 16,-92.8 518,-92.8 518,-40.8 16,-40.8"/>
</g>
<!-- AvatarAppearancePortraitDesignerComponent -->
<g id="node1" class="node">
<title>AvatarAppearancePortraitDesignerComponent</title>
<polygon fill="#ffffb3" stroke="black" points="812.28,-84.8 533.72,-84.8 533.72,-48.8 812.28,-48.8 812.28,-84.8"/>
<text text-anchor="middle" x="673" y="-62.6" font-family="Times,serif" font-size="14.00">AvatarAppearancePortraitDesignerComponent</text>
</g>
<!-- AvatarAppearancePortraitDesignerModule -->
<g id="node2" class="node">
<title>AvatarAppearancePortraitDesignerModule</title>
<polygon fill="#8dd3c7" stroke="black" points="507.5,-149.8 504.5,-153.8 483.5,-153.8 480.5,-149.8 250.5,-149.8 250.5,-113.8 507.5,-113.8 507.5,-149.8"/>
<text text-anchor="middle" x="379" y="-127.6" font-family="Times,serif" font-size="14.00">AvatarAppearancePortraitDesignerModule</text>
</g>
<!-- AvatarAppearancePortraitDesignerComponent&#45;&gt;AvatarAppearancePortraitDesignerModule -->
<g id="edge1" class="edge">
<title>AvatarAppearancePortraitDesignerComponent&#45;&gt;AvatarAppearancePortraitDesignerModule</title>
<path fill="none" stroke="black" d="M673,-84.91C673,-104.14 673,-131.8 673,-131.8 673,-131.8 517.52,-131.8 517.52,-131.8"/>
<polygon fill="black" stroke="black" points="517.53,-128.3 507.52,-131.8 517.52,-135.3 517.53,-128.3"/>
</g>
<!-- AvatarAppearancePortraitDesignerComponent  -->
<g id="node5" class="node">
<title>AvatarAppearancePortraitDesignerComponent </title>
<polygon fill="#fb8072" stroke="black" points="520.28,-214.8 237.72,-214.8 237.72,-178.8 520.28,-178.8 520.28,-214.8"/>
<text text-anchor="middle" x="379" y="-192.6" font-family="Times,serif" font-size="14.00">AvatarAppearancePortraitDesignerComponent </text>
</g>
<!-- AvatarAppearancePortraitDesignerModule&#45;&gt;AvatarAppearancePortraitDesignerComponent  -->
<g id="edge4" class="edge">
<title>AvatarAppearancePortraitDesignerModule&#45;&gt;AvatarAppearancePortraitDesignerComponent </title>
<path fill="none" stroke="black" stroke-dasharray="5,2" d="M379,-149.91C379,-149.91 379,-168.79 379,-168.79"/>
<polygon fill="black" stroke="black" points="375.5,-168.79 379,-178.79 382.5,-168.79 375.5,-168.79"/>
</g>
<!-- AvatarAppearancePortraitAvataaarsModule -->
<g id="node3" class="node">
<title>AvatarAppearancePortraitAvataaarsModule</title>
<polygon fill="#8dd3c7" stroke="black" points="510.43,-84.8 507.43,-88.8 486.43,-88.8 483.43,-84.8 247.57,-84.8 247.57,-48.8 510.43,-48.8 510.43,-84.8"/>
<text text-anchor="middle" x="379" y="-62.6" font-family="Times,serif" font-size="14.00">AvatarAppearancePortraitAvataaarsModule</text>
</g>
<!-- AvatarAppearancePortraitAvataaarsModule&#45;&gt;AvatarAppearancePortraitDesignerModule -->
<g id="edge2" class="edge">
<title>AvatarAppearancePortraitAvataaarsModule&#45;&gt;AvatarAppearancePortraitDesignerModule</title>
<path fill="none" stroke="black" d="M379,-84.91C379,-84.91 379,-103.79 379,-103.79"/>
<polygon fill="black" stroke="black" points="375.5,-103.79 379,-113.79 382.5,-103.79 375.5,-103.79"/>
</g>
<!-- AvatarAppearancePortraitModule -->
<g id="node4" class="node">
<title>AvatarAppearancePortraitModule</title>
<polygon fill="#8dd3c7" stroke="black" points="230.47,-84.8 227.47,-88.8 206.47,-88.8 203.47,-84.8 23.53,-84.8 23.53,-48.8 230.47,-48.8 230.47,-84.8"/>
<text text-anchor="middle" x="127" y="-62.6" font-family="Times,serif" font-size="14.00">AvatarAppearancePortraitModule</text>
</g>
<!-- AvatarAppearancePortraitModule&#45;&gt;AvatarAppearancePortraitDesignerModule -->
<g id="edge3" class="edge">
<title>AvatarAppearancePortraitModule&#45;&gt;AvatarAppearancePortraitDesignerModule</title>
<path fill="none" stroke="black" d="M127,-84.91C127,-104.14 127,-131.8 127,-131.8 127,-131.8 240.42,-131.8 240.42,-131.8"/>
<polygon fill="black" stroke="black" points="240.42,-135.3 250.42,-131.8 240.42,-128.3 240.42,-135.3"/>
</g>
</g>
</svg>
