<?xml version="1.0" encoding="UTF-8" standalone="no"?>
<!DOCTYPE svg PUBLIC "-//W3C//DTD SVG 1.1//EN"
 "http://www.w3.org/Graphics/SVG/1.1/DTD/svg11.dtd">
<!-- Generated by graphviz version 2.47.3 (20210619.1520)
 -->
<!-- Title: dependencies Pages: 1 -->
<svg width="844pt" height="247pt"
 viewBox="0.00 0.00 844.00 246.80" xmlns="http://www.w3.org/2000/svg" xmlns:xlink="http://www.w3.org/1999/xlink">
<g id="graph0" class="graph" transform="scale(1 1) rotate(0) translate(4 242.8)">
<title>dependencies</title>
<polygon fill="white" stroke="transparent" points="-4,4 -4,-242.8 840,-242.8 840,4 -4,4"/>
<text text-anchor="middle" x="418" y="-8.2" font-family="sans-serif" font-size="14.00">dependencies</text>
<g id="clust1" class="cluster">
<title>cluster_AvatarAppearancePortraitDesignerModule</title>
<polygon fill="none" stroke="black" stroke-dasharray="1,5" points="8,-32.8 8,-230.8 828,-230.8 828,-32.8 8,-32.8"/>
</g>
<g id="clust5" class="cluster">
<title>cluster_AvatarAppearancePortraitDesignerModule_exports</title>
<polygon fill="none" stroke="black" points="280,-170.8 280,-222.8 578,-222.8 578,-170.8 280,-170.8"/>
</g>
<g id="clust4" class="cluster">
<title>cluster_AvatarAppearancePortraitDesignerModule_imports</title>
<polygon fill="none" stroke="black" points="318,-40.8 318,-92.8 820,-92.8 820,-40.8 318,-40.8"/>
</g>
<g id="clust2" class="cluster">
<title>cluster_AvatarAppearancePortraitDesignerModule_declarations</title>
<polygon fill="none" stroke="black" points="16,-40.8 16,-92.8 310,-92.8 310,-40.8 16,-40.8"/>
</g>
<!-- AvatarAppearancePortraitDesignerComponent -->
<g id="node1" class="node">
<title>AvatarAppearancePortraitDesignerComponent</title>
<polygon fill="#ffffb3" stroke="black" points="302.28,-84.8 23.72,-84.8 23.72,-48.8 302.28,-48.8 302.28,-84.8"/>
<text text-anchor="middle" x="163" y="-62.6" font-family="Times,serif" font-size="14.00">AvatarAppearancePortraitDesignerComponent</text>
</g>
<!-- AvatarAppearancePortraitDesignerModule -->
<g id="node2" class="node">
<title>AvatarAppearancePortraitDesignerModule</title>
<polygon fill="#8dd3c7" stroke="black" points="557.5,-149.8 554.5,-153.8 533.5,-153.8 530.5,-149.8 300.5,-149.8 300.5,-113.8 557.5,-113.8 557.5,-149.8"/>
<text text-anchor="middle" x="429" y="-127.6" font-family="Times,serif" font-size="14.00">AvatarAppearancePortraitDesignerModule</text>
</g>
<!-- AvatarAppearancePortraitDesignerComponent&#45;&gt;AvatarAppearancePortraitDesignerModule -->
<g id="edge1" class="edge">
<title>AvatarAppearancePortraitDesignerComponent&#45;&gt;AvatarAppearancePortraitDesignerModule</title>
<path fill="none" stroke="black" d="M294.18,-84.91C294.18,-104.14 294.18,-131.8 294.18,-131.8 294.18,-131.8 294.79,-131.8 294.79,-131.8"/>
<polygon fill="black" stroke="black" points="290.32,-135.3 300.32,-131.8 290.32,-128.3 290.32,-135.3"/>
</g>
<!-- AvatarAppearancePortraitDesignerComponent  -->
<g id="node5" class="node">
<title>AvatarAppearancePortraitDesignerComponent </title>
<polygon fill="#fb8072" stroke="black" points="570.28,-214.8 287.72,-214.8 287.72,-178.8 570.28,-178.8 570.28,-214.8"/>
<text text-anchor="middle" x="429" y="-192.6" font-family="Times,serif" font-size="14.00">AvatarAppearancePortraitDesignerComponent </text>
</g>
<!-- AvatarAppearancePortraitDesignerModule&#45;&gt;AvatarAppearancePortraitDesignerComponent  -->
<g id="edge4" class="edge">
<title>AvatarAppearancePortraitDesignerModule&#45;&gt;AvatarAppearancePortraitDesignerComponent </title>
<path fill="none" stroke="black" stroke-dasharray="5,2" d="M429,-149.91C429,-149.91 429,-168.79 429,-168.79"/>
<polygon fill="black" stroke="black" points="425.5,-168.79 429,-178.79 432.5,-168.79 425.5,-168.79"/>
</g>
<!-- AvatarAppearancePortraitAvataaarsModule -->
<g id="node3" class="node">
<title>AvatarAppearancePortraitAvataaarsModule</title>
<polygon fill="#8dd3c7" stroke="black" points="812.43,-84.8 809.43,-88.8 788.43,-88.8 785.43,-84.8 549.57,-84.8 549.57,-48.8 812.43,-48.8 812.43,-84.8"/>
<text text-anchor="middle" x="681" y="-62.6" font-family="Times,serif" font-size="14.00">AvatarAppearancePortraitAvataaarsModule</text>
</g>
<!-- AvatarAppearancePortraitAvataaarsModule&#45;&gt;AvatarAppearancePortraitDesignerModule -->
<g id="edge2" class="edge">
<title>AvatarAppearancePortraitAvataaarsModule&#45;&gt;AvatarAppearancePortraitDesignerModule</title>
<path fill="none" stroke="black" d="M553.64,-84.91C553.64,-84.91 553.64,-103.79 553.64,-103.79"/>
<polygon fill="black" stroke="black" points="550.14,-103.79 553.64,-113.79 557.14,-103.79 550.14,-103.79"/>
</g>
<!-- AvatarAppearancePortraitModule -->
<g id="node4" class="node">
<title>AvatarAppearancePortraitModule</title>
<polygon fill="#8dd3c7" stroke="black" points="532.47,-84.8 529.47,-88.8 508.47,-88.8 505.47,-84.8 325.53,-84.8 325.53,-48.8 532.47,-48.8 532.47,-84.8"/>
<text text-anchor="middle" x="429" y="-62.6" font-family="Times,serif" font-size="14.00">AvatarAppearancePortraitModule</text>
</g>
<!-- AvatarAppearancePortraitModule&#45;&gt;AvatarAppearancePortraitDesignerModule -->
<g id="edge3" class="edge">
<title>AvatarAppearancePortraitModule&#45;&gt;AvatarAppearancePortraitDesignerModule</title>
<path fill="none" stroke="black" d="M429,-84.91C429,-84.91 429,-103.79 429,-103.79"/>
<polygon fill="black" stroke="black" points="425.5,-103.79 429,-113.79 432.5,-103.79 425.5,-103.79"/>
</g>
</g>
</svg>
