<?xml version="1.0" encoding="UTF-8" standalone="no"?>
<!DOCTYPE svg PUBLIC "-//W3C//DTD SVG 1.1//EN"
 "http://www.w3.org/Graphics/SVG/1.1/DTD/svg11.dtd">
<!-- Generated by graphviz version 2.47.3 (20210619.1520)
 -->
<!-- Title: dependencies Pages: 1 -->
<svg width="356pt" height="174pt"
 viewBox="0.00 0.00 356.00 173.80" xmlns="http://www.w3.org/2000/svg" xmlns:xlink="http://www.w3.org/1999/xlink">
<g id="graph0" class="graph" transform="scale(1 1) rotate(0) translate(4 169.8)">
<title>dependencies</title>
<polygon fill="white" stroke="transparent" points="-4,4 -4,-169.8 352,-169.8 352,4 -4,4"/>
<text text-anchor="middle" x="174" y="-8.2" font-family="sans-serif" font-size="14.00">dependencies</text>
<g id="clust1" class="cluster">
<title>cluster_DashboardModule</title>
<polygon fill="none" stroke="black" stroke-dasharray="1,5" points="8,-32.8 8,-157.8 340,-157.8 340,-32.8 8,-32.8"/>
</g>
<g id="clust4" class="cluster">
<title>cluster_DashboardModule_imports</title>
<polygon fill="none" stroke="black" points="150,-40.8 150,-92.8 332,-92.8 332,-40.8 150,-40.8"/>
</g>
<g id="clust2" class="cluster">
<title>cluster_DashboardModule_declarations</title>
<polygon fill="none" stroke="black" points="16,-40.8 16,-92.8 142,-92.8 142,-40.8 16,-40.8"/>
</g>
<!-- DashboardScene -->
<g id="node1" class="node">
<title>DashboardScene</title>
<polygon fill="#ffffb3" stroke="black" points="134.07,-84.8 23.93,-84.8 23.93,-48.8 134.07,-48.8 134.07,-84.8"/>
<text text-anchor="middle" x="79" y="-62.6" font-family="Times,serif" font-size="14.00">DashboardScene</text>
</g>
<!-- DashboardModule -->
<g id="node2" class="node">
<title>DashboardModule</title>
<polygon fill="#8dd3c7" stroke="black" points="220.19,-149.8 217.19,-153.8 196.19,-153.8 193.19,-149.8 99.81,-149.8 99.81,-113.8 220.19,-113.8 220.19,-149.8"/>
<text text-anchor="middle" x="160" y="-127.6" font-family="Times,serif" font-size="14.00">DashboardModule</text>
</g>
<!-- DashboardScene&#45;&gt;DashboardModule -->
<g id="edge1" class="edge">
<title>DashboardScene&#45;&gt;DashboardModule</title>
<path fill="none" stroke="black" d="M116.97,-84.91C116.97,-84.91 116.97,-103.79 116.97,-103.79"/>
<polygon fill="black" stroke="black" points="113.47,-103.79 116.97,-113.79 120.47,-103.79 113.47,-103.79"/>
</g>
<!-- DashboardRoutingModule -->
<g id="node3" class="node">
<title>DashboardRoutingModule</title>
<polygon fill="#8dd3c7" stroke="black" points="323.81,-84.8 320.81,-88.8 299.81,-88.8 296.81,-84.8 158.19,-84.8 158.19,-48.8 323.81,-48.8 323.81,-84.8"/>
<text text-anchor="middle" x="241" y="-62.6" font-family="Times,serif" font-size="14.00">DashboardRoutingModule</text>
</g>
<!-- DashboardRoutingModule&#45;&gt;DashboardModule -->
<g id="edge2" class="edge">
<title>DashboardRoutingModule&#45;&gt;DashboardModule</title>
<path fill="none" stroke="black" d="M189.22,-84.91C189.22,-84.91 189.22,-103.79 189.22,-103.79"/>
<polygon fill="black" stroke="black" points="185.72,-103.79 189.22,-113.79 192.72,-103.79 185.72,-103.79"/>
</g>
</g>
</svg>
