<?xml version="1.0" encoding="UTF-8" standalone="no"?>
<!DOCTYPE svg PUBLIC "-//W3C//DTD SVG 1.1//EN"
 "http://www.w3.org/Graphics/SVG/1.1/DTD/svg11.dtd">
<!-- Generated by graphviz version 2.47.3 (20210619.1520)
 -->
<!-- Title: dependencies Pages: 1 -->
<svg width="398pt" height="174pt"
 viewBox="0.00 0.00 398.00 173.80" xmlns="http://www.w3.org/2000/svg" xmlns:xlink="http://www.w3.org/1999/xlink">
<g id="graph0" class="graph" transform="scale(1 1) rotate(0) translate(4 169.8)">
<title>dependencies</title>
<polygon fill="white" stroke="transparent" points="-4,4 -4,-169.8 394,-169.8 394,4 -4,4"/>
<text text-anchor="middle" x="195" y="-8.2" font-family="sans-serif" font-size="14.00">dependencies</text>
<g id="clust1" class="cluster">
<title>cluster_CustomizationModule</title>
<polygon fill="none" stroke="black" stroke-dasharray="1,5" points="8,-32.8 8,-157.8 382,-157.8 382,-32.8 8,-32.8"/>
</g>
<g id="clust2" class="cluster">
<title>cluster_CustomizationModule_declarations</title>
<polygon fill="none" stroke="black" points="226,-40.8 226,-92.8 374,-92.8 374,-40.8 226,-40.8"/>
</g>
<g id="clust4" class="cluster">
<title>cluster_CustomizationModule_imports</title>
<polygon fill="none" stroke="black" points="16,-40.8 16,-92.8 218,-92.8 218,-40.8 16,-40.8"/>
</g>
<!-- CustomizationScene -->
<g id="node1" class="node">
<title>CustomizationScene</title>
<polygon fill="#ffffb3" stroke="black" points="365.59,-84.8 234.41,-84.8 234.41,-48.8 365.59,-48.8 365.59,-84.8"/>
<text text-anchor="middle" x="300" y="-62.6" font-family="Times,serif" font-size="14.00">CustomizationScene</text>
</g>
<!-- CustomizationModule -->
<g id="node2" class="node">
<title>CustomizationModule</title>
<polygon fill="#8dd3c7" stroke="black" points="278.71,-149.8 275.71,-153.8 254.71,-153.8 251.71,-149.8 137.29,-149.8 137.29,-113.8 278.71,-113.8 278.71,-149.8"/>
<text text-anchor="middle" x="208" y="-127.6" font-family="Times,serif" font-size="14.00">CustomizationModule</text>
</g>
<!-- CustomizationScene&#45;&gt;CustomizationModule -->
<g id="edge1" class="edge">
<title>CustomizationScene&#45;&gt;CustomizationModule</title>
<path fill="none" stroke="black" d="M256.53,-84.91C256.53,-84.91 256.53,-103.79 256.53,-103.79"/>
<polygon fill="black" stroke="black" points="253.03,-103.79 256.53,-113.79 260.03,-103.79 253.03,-103.79"/>
</g>
<!-- CustomizationRoutingModule -->
<g id="node3" class="node">
<title>CustomizationRoutingModule</title>
<polygon fill="#8dd3c7" stroke="black" points="210.33,-84.8 207.33,-88.8 186.33,-88.8 183.33,-84.8 23.67,-84.8 23.67,-48.8 210.33,-48.8 210.33,-84.8"/>
<text text-anchor="middle" x="117" y="-62.6" font-family="Times,serif" font-size="14.00">CustomizationRoutingModule</text>
</g>
<!-- CustomizationRoutingModule&#45;&gt;CustomizationModule -->
<g id="edge2" class="edge">
<title>CustomizationRoutingModule&#45;&gt;CustomizationModule</title>
<path fill="none" stroke="black" d="M173.78,-84.91C173.78,-84.91 173.78,-103.79 173.78,-103.79"/>
<polygon fill="black" stroke="black" points="170.28,-103.79 173.78,-113.79 177.28,-103.79 170.28,-103.79"/>
</g>
</g>
</svg>
