<?xml version="1.0" encoding="UTF-8" standalone="no"?>
<!DOCTYPE svg PUBLIC "-//W3C//DTD SVG 1.1//EN"
 "http://www.w3.org/Graphics/SVG/1.1/DTD/svg11.dtd">
<!-- Generated by graphviz version 2.47.3 (20210619.1520)
 -->
<!-- Title: dependencies Pages: 1 -->
<svg width="504pt" height="247pt"
 viewBox="0.00 0.00 504.00 246.80" xmlns="http://www.w3.org/2000/svg" xmlns:xlink="http://www.w3.org/1999/xlink">
<g id="graph0" class="graph" transform="scale(1 1) rotate(0) translate(4 242.8)">
<title>dependencies</title>
<polygon fill="white" stroke="transparent" points="-4,4 -4,-242.8 500,-242.8 500,4 -4,4"/>
<text text-anchor="middle" x="248" y="-8.2" font-family="sans-serif" font-size="14.00">dependencies</text>
<g id="clust1" class="cluster">
<title>cluster_AvatarAppearanceCardModule</title>
<polygon fill="none" stroke="black" stroke-dasharray="1,5" points="8,-32.8 8,-230.8 488,-230.8 488,-32.8 8,-32.8"/>
</g>
<g id="clust4" class="cluster">
<title>cluster_AvatarAppearanceCardModule_imports</title>
<polygon fill="none" stroke="black" points="254,-40.8 254,-92.8 480,-92.8 480,-40.8 254,-40.8"/>
</g>
<g id="clust5" class="cluster">
<title>cluster_AvatarAppearanceCardModule_exports</title>
<polygon fill="none" stroke="black" points="132,-170.8 132,-222.8 364,-222.8 364,-170.8 132,-170.8"/>
</g>
<g id="clust2" class="cluster">
<title>cluster_AvatarAppearanceCardModule_declarations</title>
<polygon fill="none" stroke="black" points="16,-40.8 16,-92.8 246,-92.8 246,-40.8 16,-40.8"/>
</g>
<!-- AvatarAppearanceCardComponent -->
<g id="node1" class="node">
<title>AvatarAppearanceCardComponent</title>
<polygon fill="#ffffb3" stroke="black" points="237.97,-84.8 24.03,-84.8 24.03,-48.8 237.97,-48.8 237.97,-84.8"/>
<text text-anchor="middle" x="131" y="-62.6" font-family="Times,serif" font-size="14.00">AvatarAppearanceCardComponent</text>
</g>
<!-- AvatarAppearanceCardModule -->
<g id="node2" class="node">
<title>AvatarAppearanceCardModule</title>
<polygon fill="#8dd3c7" stroke="black" points="343.69,-149.8 340.69,-153.8 319.69,-153.8 316.69,-149.8 152.31,-149.8 152.31,-113.8 343.69,-113.8 343.69,-149.8"/>
<text text-anchor="middle" x="248" y="-127.6" font-family="Times,serif" font-size="14.00">AvatarAppearanceCardModule</text>
</g>
<!-- AvatarAppearanceCardComponent&#45;&gt;AvatarAppearanceCardModule -->
<g id="edge1" class="edge">
<title>AvatarAppearanceCardComponent&#45;&gt;AvatarAppearanceCardModule</title>
<path fill="none" stroke="black" d="M194.95,-84.91C194.95,-84.91 194.95,-103.79 194.95,-103.79"/>
<polygon fill="black" stroke="black" points="191.45,-103.79 194.95,-113.79 198.45,-103.79 191.45,-103.79"/>
</g>
<!-- AvatarAppearanceCardComponent  -->
<g id="node4" class="node">
<title>AvatarAppearanceCardComponent </title>
<polygon fill="#fb8072" stroke="black" points="356.47,-214.8 139.53,-214.8 139.53,-178.8 356.47,-178.8 356.47,-214.8"/>
<text text-anchor="middle" x="248" y="-192.6" font-family="Times,serif" font-size="14.00">AvatarAppearanceCardComponent </text>
</g>
<!-- AvatarAppearanceCardModule&#45;&gt;AvatarAppearanceCardComponent  -->
<g id="edge3" class="edge">
<title>AvatarAppearanceCardModule&#45;&gt;AvatarAppearanceCardComponent </title>
<path fill="none" stroke="black" stroke-dasharray="5,2" d="M248,-149.91C248,-149.91 248,-168.79 248,-168.79"/>
<polygon fill="black" stroke="black" points="244.5,-168.79 248,-178.79 251.5,-168.79 244.5,-168.79"/>
</g>
<!-- AvatarAppearancePreviewModule -->
<g id="node3" class="node">
<title>AvatarAppearancePreviewModule</title>
<polygon fill="#8dd3c7" stroke="black" points="472.35,-84.8 469.35,-88.8 448.35,-88.8 445.35,-84.8 261.65,-84.8 261.65,-48.8 472.35,-48.8 472.35,-84.8"/>
<text text-anchor="middle" x="367" y="-62.6" font-family="Times,serif" font-size="14.00">AvatarAppearancePreviewModule</text>
</g>
<!-- AvatarAppearancePreviewModule&#45;&gt;AvatarAppearanceCardModule -->
<g id="edge2" class="edge">
<title>AvatarAppearancePreviewModule&#45;&gt;AvatarAppearanceCardModule</title>
<path fill="none" stroke="black" d="M302.84,-84.91C302.84,-84.91 302.84,-103.79 302.84,-103.79"/>
<polygon fill="black" stroke="black" points="299.34,-103.79 302.84,-113.79 306.34,-103.79 299.34,-103.79"/>
</g>
</g>
</svg>
