<?xml version="1.0" encoding="UTF-8" standalone="no"?>
<!DOCTYPE svg PUBLIC "-//W3C//DTD SVG 1.1//EN"
 "http://www.w3.org/Graphics/SVG/1.1/DTD/svg11.dtd">
<!-- Generated by graphviz version 2.47.3 (20210619.1520)
 -->
<!-- Title: dependencies Pages: 1 -->
<svg width="570pt" height="247pt"
 viewBox="0.00 0.00 570.00 246.80" xmlns="http://www.w3.org/2000/svg" xmlns:xlink="http://www.w3.org/1999/xlink">
<g id="graph0" class="graph" transform="scale(1 1) rotate(0) translate(4 242.8)">
<title>dependencies</title>
<polygon fill="white" stroke="transparent" points="-4,4 -4,-242.8 566,-242.8 566,4 -4,4"/>
<text text-anchor="middle" x="281" y="-8.2" font-family="sans-serif" font-size="14.00">dependencies</text>
<g id="clust1" class="cluster">
<title>cluster_AvatarAppearancePortraitModule</title>
<polygon fill="none" stroke="black" stroke-dasharray="1,5" points="8,-32.8 8,-230.8 554,-230.8 554,-32.8 8,-32.8"/>
</g>
<g id="clust5" class="cluster">
<title>cluster_AvatarAppearancePortraitModule_exports</title>
<polygon fill="none" stroke="black" points="149,-170.8 149,-222.8 397,-222.8 397,-170.8 149,-170.8"/>
</g>
<g id="clust4" class="cluster">
<title>cluster_AvatarAppearancePortraitModule_imports</title>
<polygon fill="none" stroke="black" points="268,-40.8 268,-92.8 546,-92.8 546,-40.8 268,-40.8"/>
</g>
<g id="clust2" class="cluster">
<title>cluster_AvatarAppearancePortraitModule_declarations</title>
<polygon fill="none" stroke="black" points="16,-40.8 16,-92.8 260,-92.8 260,-40.8 16,-40.8"/>
</g>
<!-- AvatarAppearancePortraitComponent -->
<g id="node1" class="node">
<title>AvatarAppearancePortraitComponent</title>
<polygon fill="#ffffb3" stroke="black" points="252.25,-84.8 23.75,-84.8 23.75,-48.8 252.25,-48.8 252.25,-84.8"/>
<text text-anchor="middle" x="138" y="-62.6" font-family="Times,serif" font-size="14.00">AvatarAppearancePortraitComponent</text>
</g>
<!-- AvatarAppearancePortraitModule -->
<g id="node2" class="node">
<title>AvatarAppearancePortraitModule</title>
<polygon fill="#8dd3c7" stroke="black" points="376.47,-149.8 373.47,-153.8 352.47,-153.8 349.47,-149.8 169.53,-149.8 169.53,-113.8 376.47,-113.8 376.47,-149.8"/>
<text text-anchor="middle" x="273" y="-127.6" font-family="Times,serif" font-size="14.00">AvatarAppearancePortraitModule</text>
</g>
<!-- AvatarAppearancePortraitComponent&#45;&gt;AvatarAppearancePortraitModule -->
<g id="edge1" class="edge">
<title>AvatarAppearancePortraitComponent&#45;&gt;AvatarAppearancePortraitModule</title>
<path fill="none" stroke="black" d="M210.95,-84.91C210.95,-84.91 210.95,-103.79 210.95,-103.79"/>
<polygon fill="black" stroke="black" points="207.45,-103.79 210.95,-113.79 214.45,-103.79 207.45,-103.79"/>
</g>
<!-- AvatarAppearancePortraitComponent  -->
<g id="node4" class="node">
<title>AvatarAppearancePortraitComponent </title>
<polygon fill="#fb8072" stroke="black" points="388.75,-214.8 157.25,-214.8 157.25,-178.8 388.75,-178.8 388.75,-214.8"/>
<text text-anchor="middle" x="273" y="-192.6" font-family="Times,serif" font-size="14.00">AvatarAppearancePortraitComponent </text>
</g>
<!-- AvatarAppearancePortraitModule&#45;&gt;AvatarAppearancePortraitComponent  -->
<g id="edge3" class="edge">
<title>AvatarAppearancePortraitModule&#45;&gt;AvatarAppearancePortraitComponent </title>
<path fill="none" stroke="black" stroke-dasharray="5,2" d="M273,-149.91C273,-149.91 273,-168.79 273,-168.79"/>
<polygon fill="black" stroke="black" points="269.5,-168.79 273,-178.79 276.5,-168.79 269.5,-168.79"/>
</g>
<!-- AvatarAppearancePortraitAvataaarsModule -->
<g id="node3" class="node">
<title>AvatarAppearancePortraitAvataaarsModule</title>
<polygon fill="#8dd3c7" stroke="black" points="538.43,-84.8 535.43,-88.8 514.43,-88.8 511.43,-84.8 275.57,-84.8 275.57,-48.8 538.43,-48.8 538.43,-84.8"/>
<text text-anchor="middle" x="407" y="-62.6" font-family="Times,serif" font-size="14.00">AvatarAppearancePortraitAvataaarsModule</text>
</g>
<!-- AvatarAppearancePortraitAvataaarsModule&#45;&gt;AvatarAppearancePortraitModule -->
<g id="edge2" class="edge">
<title>AvatarAppearancePortraitAvataaarsModule&#45;&gt;AvatarAppearancePortraitModule</title>
<path fill="none" stroke="black" d="M326.01,-84.91C326.01,-84.91 326.01,-103.79 326.01,-103.79"/>
<polygon fill="black" stroke="black" points="322.51,-103.79 326.01,-113.79 329.51,-103.79 322.51,-103.79"/>
</g>
</g>
</svg>
