<?xml version="1.0" encoding="UTF-8" standalone="no"?>
<!DOCTYPE svg PUBLIC "-//W3C//DTD SVG 1.1//EN"
 "http://www.w3.org/Graphics/SVG/1.1/DTD/svg11.dtd">
<!-- Generated by graphviz version 2.47.3 (20210619.1520)
 -->
<!-- Title: dependencies Pages: 1 -->
<svg width="460pt" height="247pt"
 viewBox="0.00 0.00 460.00 246.80" xmlns="http://www.w3.org/2000/svg" xmlns:xlink="http://www.w3.org/1999/xlink">
<g id="graph0" class="graph" transform="scale(1 1) rotate(0) translate(4 242.8)">
<title>dependencies</title>
<polygon fill="white" stroke="transparent" points="-4,4 -4,-242.8 456,-242.8 456,4 -4,4"/>
<text text-anchor="middle" x="226" y="-8.2" font-family="sans-serif" font-size="14.00">dependencies</text>
<g id="clust1" class="cluster">
<title>cluster_AvatarsCarouselModule</title>
<polygon fill="none" stroke="black" stroke-dasharray="1,5" points="8,-32.8 8,-230.8 444,-230.8 444,-32.8 8,-32.8"/>
</g>
<g id="clust2" class="cluster">
<title>cluster_AvatarsCarouselModule_declarations</title>
<polygon fill="none" stroke="black" points="246,-40.8 246,-92.8 436,-92.8 436,-40.8 246,-40.8"/>
</g>
<g id="clust4" class="cluster">
<title>cluster_AvatarsCarouselModule_imports</title>
<polygon fill="none" stroke="black" points="16,-40.8 16,-92.8 238,-92.8 238,-40.8 16,-40.8"/>
</g>
<g id="clust5" class="cluster">
<title>cluster_AvatarsCarouselModule_exports</title>
<polygon fill="none" stroke="black" points="136,-170.8 136,-222.8 330,-222.8 330,-170.8 136,-170.8"/>
</g>
<!-- AvatarsCarouselComponent -->
<g id="node1" class="node">
<title>AvatarsCarouselComponent</title>
<polygon fill="#ffffb3" stroke="black" points="428.13,-84.8 253.87,-84.8 253.87,-48.8 428.13,-48.8 428.13,-84.8"/>
<text text-anchor="middle" x="341" y="-62.6" font-family="Times,serif" font-size="14.00">AvatarsCarouselComponent</text>
</g>
<!-- AvatarsCarouselModule -->
<g id="node2" class="node">
<title>AvatarsCarouselModule</title>
<polygon fill="#8dd3c7" stroke="black" points="309.34,-149.8 306.34,-153.8 285.34,-153.8 282.34,-149.8 156.66,-149.8 156.66,-113.8 309.34,-113.8 309.34,-149.8"/>
<text text-anchor="middle" x="233" y="-127.6" font-family="Times,serif" font-size="14.00">AvatarsCarouselModule</text>
</g>
<!-- AvatarsCarouselComponent&#45;&gt;AvatarsCarouselModule -->
<g id="edge1" class="edge">
<title>AvatarsCarouselComponent&#45;&gt;AvatarsCarouselModule</title>
<path fill="none" stroke="black" d="M281.55,-84.91C281.55,-84.91 281.55,-103.79 281.55,-103.79"/>
<polygon fill="black" stroke="black" points="278.05,-103.79 281.55,-113.79 285.05,-103.79 278.05,-103.79"/>
</g>
<!-- AvatarsCarouselComponent  -->
<g id="node4" class="node">
<title>AvatarsCarouselComponent </title>
<polygon fill="#fb8072" stroke="black" points="322.13,-214.8 143.87,-214.8 143.87,-178.8 322.13,-178.8 322.13,-214.8"/>
<text text-anchor="middle" x="233" y="-192.6" font-family="Times,serif" font-size="14.00">AvatarsCarouselComponent </text>
</g>
<!-- AvatarsCarouselModule&#45;&gt;AvatarsCarouselComponent  -->
<g id="edge3" class="edge">
<title>AvatarsCarouselModule&#45;&gt;AvatarsCarouselComponent </title>
<path fill="none" stroke="black" stroke-dasharray="5,2" d="M233,-149.91C233,-149.91 233,-168.79 233,-168.79"/>
<polygon fill="black" stroke="black" points="229.5,-168.79 233,-178.79 236.5,-168.79 229.5,-168.79"/>
</g>
<!-- AvatarAppearancePortraitModule -->
<g id="node3" class="node">
<title>AvatarAppearancePortraitModule</title>
<polygon fill="#8dd3c7" stroke="black" points="230.47,-84.8 227.47,-88.8 206.47,-88.8 203.47,-84.8 23.53,-84.8 23.53,-48.8 230.47,-48.8 230.47,-84.8"/>
<text text-anchor="middle" x="127" y="-62.6" font-family="Times,serif" font-size="14.00">AvatarAppearancePortraitModule</text>
</g>
<!-- AvatarAppearancePortraitModule&#45;&gt;AvatarsCarouselModule -->
<g id="edge2" class="edge">
<title>AvatarAppearancePortraitModule&#45;&gt;AvatarsCarouselModule</title>
<path fill="none" stroke="black" d="M193.41,-84.91C193.41,-84.91 193.41,-103.79 193.41,-103.79"/>
<polygon fill="black" stroke="black" points="189.91,-103.79 193.41,-113.79 196.91,-103.79 189.91,-103.79"/>
</g>
</g>
</svg>
