<?xml version="1.0" encoding="UTF-8" standalone="no"?>
<!DOCTYPE svg PUBLIC "-//W3C//DTD SVG 1.1//EN"
 "http://www.w3.org/Graphics/SVG/1.1/DTD/svg11.dtd">
<!-- Generated by graphviz version 2.47.3 (20210619.1520)
 -->
<!-- Title: dependencies Pages: 1 -->
<svg width="548pt" height="247pt"
 viewBox="0.00 0.00 548.00 246.80" xmlns="http://www.w3.org/2000/svg" xmlns:xlink="http://www.w3.org/1999/xlink">
<g id="graph0" class="graph" transform="scale(1 1) rotate(0) translate(4 242.8)">
<title>dependencies</title>
<polygon fill="white" stroke="transparent" points="-4,4 -4,-242.8 544,-242.8 544,4 -4,4"/>
<text text-anchor="middle" x="270" y="-8.2" font-family="sans-serif" font-size="14.00">dependencies</text>
<g id="clust1" class="cluster">
<title>cluster_SidebarModule</title>
<polygon fill="none" stroke="black" stroke-dasharray="1,5" points="8,-32.8 8,-230.8 532,-230.8 532,-32.8 8,-32.8"/>
</g>
<g id="clust7" class="cluster">
<title>cluster_SidebarModule_exports</title>
<polygon fill="none" stroke="black" points="16,-170.8 16,-222.8 524,-222.8 524,-170.8 16,-170.8"/>
</g>
<g id="clust2" class="cluster">
<title>cluster_SidebarModule_declarations</title>
<polygon fill="none" stroke="black" points="20,-40.8 20,-92.8 518,-92.8 518,-40.8 20,-40.8"/>
</g>
<!-- CloseSidebarDirective -->
<g id="node1" class="node">
<title>CloseSidebarDirective</title>
<polygon fill="#ffffb3" stroke="black" points="510.23,-84.8 367.77,-84.8 367.77,-48.8 510.23,-48.8 510.23,-84.8"/>
<text text-anchor="middle" x="439" y="-62.6" font-family="Times,serif" font-size="14.00">CloseSidebarDirective</text>
</g>
<!-- SidebarModule -->
<g id="node4" class="node">
<title>SidebarModule</title>
<polygon fill="#8dd3c7" stroke="black" points="339.31,-149.8 336.31,-153.8 315.31,-153.8 312.31,-149.8 236.69,-149.8 236.69,-113.8 339.31,-113.8 339.31,-149.8"/>
<text text-anchor="middle" x="288" y="-127.6" font-family="Times,serif" font-size="14.00">SidebarModule</text>
</g>
<!-- CloseSidebarDirective&#45;&gt;SidebarModule -->
<g id="edge1" class="edge">
<title>CloseSidebarDirective&#45;&gt;SidebarModule</title>
<path fill="none" stroke="black" d="M463.54,-84.82C463.54,-102.17 463.54,-125.8 463.54,-125.8 463.54,-125.8 349.24,-125.8 349.24,-125.8"/>
<polygon fill="black" stroke="black" points="349.24,-122.3 339.24,-125.8 349.24,-129.3 349.24,-122.3"/>
</g>
<!-- SidebarComponent -->
<g id="node2" class="node">
<title>SidebarComponent</title>
<polygon fill="#ffffb3" stroke="black" points="350.1,-84.8 225.9,-84.8 225.9,-48.8 350.1,-48.8 350.1,-84.8"/>
<text text-anchor="middle" x="288" y="-62.6" font-family="Times,serif" font-size="14.00">SidebarComponent</text>
</g>
<!-- SidebarComponent&#45;&gt;SidebarModule -->
<g id="edge2" class="edge">
<title>SidebarComponent&#45;&gt;SidebarModule</title>
<path fill="none" stroke="black" d="M288,-84.91C288,-84.91 288,-103.79 288,-103.79"/>
<polygon fill="black" stroke="black" points="284.5,-103.79 288,-113.79 291.5,-103.79 284.5,-103.79"/>
</g>
<!-- SidebarContainerComponent -->
<g id="node3" class="node">
<title>SidebarContainerComponent</title>
<polygon fill="#ffffb3" stroke="black" points="207.8,-84.8 28.2,-84.8 28.2,-48.8 207.8,-48.8 207.8,-84.8"/>
<text text-anchor="middle" x="118" y="-62.6" font-family="Times,serif" font-size="14.00">SidebarContainerComponent</text>
</g>
<!-- SidebarContainerComponent&#45;&gt;SidebarModule -->
<g id="edge3" class="edge">
<title>SidebarContainerComponent&#45;&gt;SidebarModule</title>
<path fill="none" stroke="black" d="M147.05,-84.82C147.05,-102.17 147.05,-125.8 147.05,-125.8 147.05,-125.8 226.72,-125.8 226.72,-125.8"/>
<polygon fill="black" stroke="black" points="226.72,-129.3 236.72,-125.8 226.72,-122.3 226.72,-129.3"/>
</g>
<!-- CloseSidebarDirective  -->
<g id="node5" class="node">
<title>CloseSidebarDirective </title>
<polygon fill="#fb8072" stroke="black" points="516.23,-214.8 369.77,-214.8 369.77,-178.8 516.23,-178.8 516.23,-214.8"/>
<text text-anchor="middle" x="443" y="-192.6" font-family="Times,serif" font-size="14.00">CloseSidebarDirective </text>
</g>
<!-- SidebarModule&#45;&gt;CloseSidebarDirective  -->
<g id="edge4" class="edge">
<title>SidebarModule&#45;&gt;CloseSidebarDirective </title>
<path fill="none" stroke="black" stroke-dasharray="5,2" d="M339.24,-137.8C375.13,-137.8 416.71,-137.8 416.71,-137.8 416.71,-137.8 416.71,-168.78 416.71,-168.78"/>
<polygon fill="black" stroke="black" points="413.21,-168.78 416.71,-178.78 420.21,-168.78 413.21,-168.78"/>
</g>
<!-- SidebarComponent  -->
<g id="node6" class="node">
<title>SidebarComponent </title>
<polygon fill="#fb8072" stroke="black" points="351.6,-214.8 224.4,-214.8 224.4,-178.8 351.6,-178.8 351.6,-214.8"/>
<text text-anchor="middle" x="288" y="-192.6" font-family="Times,serif" font-size="14.00">SidebarComponent </text>
</g>
<!-- SidebarModule&#45;&gt;SidebarComponent  -->
<g id="edge5" class="edge">
<title>SidebarModule&#45;&gt;SidebarComponent </title>
<path fill="none" stroke="black" stroke-dasharray="5,2" d="M288,-149.91C288,-149.91 288,-168.79 288,-168.79"/>
<polygon fill="black" stroke="black" points="284.5,-168.79 288,-178.79 291.5,-168.79 284.5,-168.79"/>
</g>
<!-- SidebarContainerComponent  -->
<g id="node7" class="node">
<title>SidebarContainerComponent </title>
<polygon fill="#fb8072" stroke="black" points="206.3,-214.8 23.7,-214.8 23.7,-178.8 206.3,-178.8 206.3,-214.8"/>
<text text-anchor="middle" x="115" y="-192.6" font-family="Times,serif" font-size="14.00">SidebarContainerComponent </text>
</g>
<!-- SidebarModule&#45;&gt;SidebarContainerComponent  -->
<g id="edge6" class="edge">
<title>SidebarModule&#45;&gt;SidebarContainerComponent </title>
<path fill="none" stroke="black" stroke-dasharray="5,2" d="M236.68,-137.8C177.33,-137.8 87.7,-137.8 87.7,-137.8 87.7,-137.8 87.7,-168.78 87.7,-168.78"/>
<polygon fill="black" stroke="black" points="84.2,-168.78 87.7,-178.78 91.2,-168.78 84.2,-168.78"/>
</g>
</g>
</svg>
