<?xml version="1.0" encoding="UTF-8" standalone="no"?>
<!DOCTYPE svg PUBLIC "-//W3C//DTD SVG 1.1//EN"
 "http://www.w3.org/Graphics/SVG/1.1/DTD/svg11.dtd">
<!-- Generated by graphviz version 2.47.3 (20210619.1520)
 -->
<!-- Title: dependencies Pages: 1 -->
<svg width="492pt" height="247pt"
 viewBox="0.00 0.00 492.00 246.80" xmlns="http://www.w3.org/2000/svg" xmlns:xlink="http://www.w3.org/1999/xlink">
<g id="graph0" class="graph" transform="scale(1 1) rotate(0) translate(4 242.8)">
<title>dependencies</title>
<polygon fill="white" stroke="transparent" points="-4,4 -4,-242.8 488,-242.8 488,4 -4,4"/>
<text text-anchor="middle" x="242" y="-8.2" font-family="sans-serif" font-size="14.00">dependencies</text>
<g id="clust1" class="cluster">
<title>cluster_AvatarAppearancesModule</title>
<polygon fill="none" stroke="black" stroke-dasharray="1,5" points="8,-32.8 8,-230.8 476,-230.8 476,-32.8 8,-32.8"/>
</g>
<g id="clust2" class="cluster">
<title>cluster_AvatarAppearancesModule_declarations</title>
<polygon fill="none" stroke="black" points="260,-40.8 260,-92.8 468,-92.8 468,-40.8 260,-40.8"/>
</g>
<g id="clust4" class="cluster">
<title>cluster_AvatarAppearancesModule_imports</title>
<polygon fill="none" stroke="black" points="16,-40.8 16,-92.8 252,-92.8 252,-40.8 16,-40.8"/>
</g>
<g id="clust5" class="cluster">
<title>cluster_AvatarAppearancesModule_exports</title>
<polygon fill="none" stroke="black" points="142,-170.8 142,-222.8 354,-222.8 354,-170.8 142,-170.8"/>
</g>
<!-- AvatarAppearancesComponent -->
<g id="node1" class="node">
<title>AvatarAppearancesComponent</title>
<polygon fill="#ffffb3" stroke="black" points="459.7,-84.8 268.3,-84.8 268.3,-48.8 459.7,-48.8 459.7,-84.8"/>
<text text-anchor="middle" x="364" y="-62.6" font-family="Times,serif" font-size="14.00">AvatarAppearancesComponent</text>
</g>
<!-- AvatarAppearancesModule -->
<g id="node2" class="node">
<title>AvatarAppearancesModule</title>
<polygon fill="#8dd3c7" stroke="black" points="332.92,-149.8 329.92,-153.8 308.92,-153.8 305.92,-149.8 163.08,-149.8 163.08,-113.8 332.92,-113.8 332.92,-149.8"/>
<text text-anchor="middle" x="248" y="-127.6" font-family="Times,serif" font-size="14.00">AvatarAppearancesModule</text>
</g>
<!-- AvatarAppearancesComponent&#45;&gt;AvatarAppearancesModule -->
<g id="edge1" class="edge">
<title>AvatarAppearancesComponent&#45;&gt;AvatarAppearancesModule</title>
<path fill="none" stroke="black" d="M300.55,-84.91C300.55,-84.91 300.55,-103.79 300.55,-103.79"/>
<polygon fill="black" stroke="black" points="297.05,-103.79 300.55,-113.79 304.05,-103.79 297.05,-103.79"/>
</g>
<!-- AvatarAppearancesComponent  -->
<g id="node4" class="node">
<title>AvatarAppearancesComponent </title>
<polygon fill="#fb8072" stroke="black" points="345.7,-214.8 150.3,-214.8 150.3,-178.8 345.7,-178.8 345.7,-214.8"/>
<text text-anchor="middle" x="248" y="-192.6" font-family="Times,serif" font-size="14.00">AvatarAppearancesComponent </text>
</g>
<!-- AvatarAppearancesModule&#45;&gt;AvatarAppearancesComponent  -->
<g id="edge3" class="edge">
<title>AvatarAppearancesModule&#45;&gt;AvatarAppearancesComponent </title>
<path fill="none" stroke="black" stroke-dasharray="5,2" d="M248,-149.91C248,-149.91 248,-168.79 248,-168.79"/>
<polygon fill="black" stroke="black" points="244.5,-168.79 248,-178.79 251.5,-168.79 244.5,-168.79"/>
</g>
<!-- AvatarAppearancesCarouselModule -->
<g id="node3" class="node">
<title>AvatarAppearancesCarouselModule</title>
<polygon fill="#8dd3c7" stroke="black" points="243.68,-84.8 240.68,-88.8 219.68,-88.8 216.68,-84.8 24.32,-84.8 24.32,-48.8 243.68,-48.8 243.68,-84.8"/>
<text text-anchor="middle" x="134" y="-62.6" font-family="Times,serif" font-size="14.00">AvatarAppearancesCarouselModule</text>
</g>
<!-- AvatarAppearancesCarouselModule&#45;&gt;AvatarAppearancesModule -->
<g id="edge2" class="edge">
<title>AvatarAppearancesCarouselModule&#45;&gt;AvatarAppearancesModule</title>
<path fill="none" stroke="black" d="M203.44,-84.91C203.44,-84.91 203.44,-103.79 203.44,-103.79"/>
<polygon fill="black" stroke="black" points="199.94,-103.79 203.44,-113.79 206.94,-103.79 199.94,-103.79"/>
</g>
</g>
</svg>
