<?xml version="1.0" encoding="UTF-8" standalone="no"?>
<!DOCTYPE svg PUBLIC "-//W3C//DTD SVG 1.1//EN"
 "http://www.w3.org/Graphics/SVG/1.1/DTD/svg11.dtd">
<!-- Generated by graphviz version 2.47.3 (20210619.1520)
 -->
<!-- Title: dependencies Pages: 1 -->
<svg width="316pt" height="174pt"
 viewBox="0.00 0.00 316.00 173.80" xmlns="http://www.w3.org/2000/svg" xmlns:xlink="http://www.w3.org/1999/xlink">
<g id="graph0" class="graph" transform="scale(1 1) rotate(0) translate(4 169.8)">
<title>dependencies</title>
<polygon fill="white" stroke="transparent" points="-4,4 -4,-169.8 312,-169.8 312,4 -4,4"/>
<text text-anchor="middle" x="154" y="-8.2" font-family="sans-serif" font-size="14.00">dependencies</text>
<g id="clust1" class="cluster">
<title>cluster_CreditsModule</title>
<polygon fill="none" stroke="black" stroke-dasharray="1,5" points="8,-32.8 8,-157.8 300,-157.8 300,-32.8 8,-32.8"/>
</g>
<g id="clust2" class="cluster">
<title>cluster_CreditsModule_declarations</title>
<polygon fill="none" stroke="black" points="186,-40.8 186,-92.8 292,-92.8 292,-40.8 186,-40.8"/>
</g>
<g id="clust4" class="cluster">
<title>cluster_CreditsModule_imports</title>
<polygon fill="none" stroke="black" points="16,-40.8 16,-92.8 178,-92.8 178,-40.8 16,-40.8"/>
</g>
<!-- CreditsScene -->
<g id="node1" class="node">
<title>CreditsScene</title>
<polygon fill="#ffffb3" stroke="black" points="283.86,-84.8 194.14,-84.8 194.14,-48.8 283.86,-48.8 283.86,-84.8"/>
<text text-anchor="middle" x="239" y="-62.6" font-family="Times,serif" font-size="14.00">CreditsScene</text>
</g>
<!-- CreditsModule -->
<g id="node2" class="node">
<title>CreditsModule</title>
<polygon fill="#8dd3c7" stroke="black" points="217.99,-149.8 214.99,-153.8 193.99,-153.8 190.99,-149.8 118.01,-149.8 118.01,-113.8 217.99,-113.8 217.99,-149.8"/>
<text text-anchor="middle" x="168" y="-127.6" font-family="Times,serif" font-size="14.00">CreditsModule</text>
</g>
<!-- CreditsScene&#45;&gt;CreditsModule -->
<g id="edge1" class="edge">
<title>CreditsScene&#45;&gt;CreditsModule</title>
<path fill="none" stroke="black" d="M206.03,-84.91C206.03,-84.91 206.03,-103.79 206.03,-103.79"/>
<polygon fill="black" stroke="black" points="202.53,-103.79 206.03,-113.79 209.53,-103.79 202.53,-103.79"/>
</g>
<!-- CreditsRoutingModule -->
<g id="node3" class="node">
<title>CreditsRoutingModule</title>
<polygon fill="#8dd3c7" stroke="black" points="169.61,-84.8 166.61,-88.8 145.61,-88.8 142.61,-84.8 24.39,-84.8 24.39,-48.8 169.61,-48.8 169.61,-84.8"/>
<text text-anchor="middle" x="97" y="-62.6" font-family="Times,serif" font-size="14.00">CreditsRoutingModule</text>
</g>
<!-- CreditsRoutingModule&#45;&gt;CreditsModule -->
<g id="edge2" class="edge">
<title>CreditsRoutingModule&#45;&gt;CreditsModule</title>
<path fill="none" stroke="black" d="M143.78,-84.91C143.78,-84.91 143.78,-103.79 143.78,-103.79"/>
<polygon fill="black" stroke="black" points="140.28,-103.79 143.78,-113.79 147.28,-103.79 140.28,-103.79"/>
</g>
</g>
</svg>
