<?xml version="1.0" encoding="UTF-8" standalone="no"?>
<!DOCTYPE svg PUBLIC "-//W3C//DTD SVG 1.1//EN"
 "http://www.w3.org/Graphics/SVG/1.1/DTD/svg11.dtd">
<!-- Generated by graphviz version 2.47.3 (20210619.1520)
 -->
<!-- Title: dependencies Pages: 1 -->
<svg width="406pt" height="247pt"
 viewBox="0.00 0.00 406.00 246.80" xmlns="http://www.w3.org/2000/svg" xmlns:xlink="http://www.w3.org/1999/xlink">
<g id="graph0" class="graph" transform="scale(1 1) rotate(0) translate(4 242.8)">
<title>dependencies</title>
<polygon fill="white" stroke="transparent" points="-4,4 -4,-242.8 402,-242.8 402,4 -4,4"/>
<text text-anchor="middle" x="199" y="-8.2" font-family="sans-serif" font-size="14.00">dependencies</text>
<g id="clust1" class="cluster">
<title>cluster_ManageAvatarsModule</title>
<polygon fill="none" stroke="black" stroke-dasharray="1,5" points="8,-32.8 8,-230.8 390,-230.8 390,-32.8 8,-32.8"/>
</g>
<g id="clust2" class="cluster">
<title>cluster_ManageAvatarsModule_declarations</title>
<polygon fill="none" stroke="black" points="234,-40.8 234,-92.8 382,-92.8 382,-40.8 234,-40.8"/>
</g>
<g id="clust6" class="cluster">
<title>cluster_ManageAvatarsModule_bootstrap</title>
<polygon fill="none" stroke="black" points="137,-170.8 137,-222.8 289,-222.8 289,-170.8 137,-170.8"/>
</g>
<g id="clust4" class="cluster">
<title>cluster_ManageAvatarsModule_imports</title>
<polygon fill="none" stroke="black" points="16,-40.8 16,-92.8 226,-92.8 226,-40.8 16,-40.8"/>
</g>
<!-- ManageAvatarsRoot -->
<g id="node1" class="node">
<title>ManageAvatarsRoot</title>
<polygon fill="#ffffb3" stroke="black" points="373.85,-84.8 242.15,-84.8 242.15,-48.8 373.85,-48.8 373.85,-84.8"/>
<text text-anchor="middle" x="308" y="-62.6" font-family="Times,serif" font-size="14.00">ManageAvatarsRoot</text>
</g>
<!-- ManageAvatarsModule -->
<g id="node2" class="node">
<title>ManageAvatarsModule</title>
<polygon fill="#8dd3c7" stroke="black" points="287.17,-149.8 284.17,-153.8 263.17,-153.8 260.17,-149.8 138.83,-149.8 138.83,-113.8 287.17,-113.8 287.17,-149.8"/>
<text text-anchor="middle" x="213" y="-127.6" font-family="Times,serif" font-size="14.00">ManageAvatarsModule</text>
</g>
<!-- ManageAvatarsRoot&#45;&gt;ManageAvatarsModule -->
<g id="edge1" class="edge">
<title>ManageAvatarsRoot&#45;&gt;ManageAvatarsModule</title>
<path fill="none" stroke="black" d="M264.58,-84.91C264.58,-84.91 264.58,-103.79 264.58,-103.79"/>
<polygon fill="black" stroke="black" points="261.08,-103.79 264.58,-113.79 268.08,-103.79 261.08,-103.79"/>
</g>
<!-- ManageAvatarsRoot  -->
<g id="node4" class="node">
<title>ManageAvatarsRoot </title>
<polygon fill="#80b1d3" stroke="black" points="280.85,-214.8 145.15,-214.8 145.15,-178.8 280.85,-178.8 280.85,-214.8"/>
<text text-anchor="middle" x="213" y="-192.6" font-family="Times,serif" font-size="14.00">ManageAvatarsRoot </text>
</g>
<!-- ManageAvatarsModule&#45;&gt;ManageAvatarsRoot  -->
<g id="edge3" class="edge">
<title>ManageAvatarsModule&#45;&gt;ManageAvatarsRoot </title>
<path fill="none" stroke="black" stroke-dasharray="1,5" d="M213,-149.91C213,-149.91 213,-168.79 213,-168.79"/>
<polygon fill="black" stroke="black" points="209.5,-168.79 213,-178.79 216.5,-168.79 209.5,-168.79"/>
</g>
<!-- ManageAvatarsRoutingModule -->
<g id="node3" class="node">
<title>ManageAvatarsRoutingModule</title>
<polygon fill="#8dd3c7" stroke="black" points="217.79,-84.8 214.79,-88.8 193.79,-88.8 190.79,-84.8 24.21,-84.8 24.21,-48.8 217.79,-48.8 217.79,-84.8"/>
<text text-anchor="middle" x="121" y="-62.6" font-family="Times,serif" font-size="14.00">ManageAvatarsRoutingModule</text>
</g>
<!-- ManageAvatarsRoutingModule&#45;&gt;ManageAvatarsModule -->
<g id="edge2" class="edge">
<title>ManageAvatarsRoutingModule&#45;&gt;ManageAvatarsModule</title>
<path fill="none" stroke="black" d="M178.28,-84.91C178.28,-84.91 178.28,-103.79 178.28,-103.79"/>
<polygon fill="black" stroke="black" points="174.78,-103.79 178.28,-113.79 181.78,-103.79 174.78,-103.79"/>
</g>
</g>
</svg>
