<?xml version="1.0" encoding="UTF-8" standalone="no"?>
<!DOCTYPE svg PUBLIC "-//W3C//DTD SVG 1.1//EN"
 "http://www.w3.org/Graphics/SVG/1.1/DTD/svg11.dtd">
<!-- Generated by graphviz version 2.47.3 (20210619.1520)
 -->
<!-- Title: dependencies Pages: 1 -->
<svg width="1913pt" height="389pt"
 viewBox="0.00 0.00 1913.00 388.80" xmlns="http://www.w3.org/2000/svg" xmlns:xlink="http://www.w3.org/1999/xlink">
<g id="graph0" class="graph" transform="scale(1 1) rotate(0) translate(4 384.8)">
<title>dependencies</title>
<polygon fill="white" stroke="transparent" points="-4,4 -4,-384.8 1909,-384.8 1909,4 -4,4"/>
<text text-anchor="middle" x="952.5" y="-8.2" font-family="sans-serif" font-size="14.00">dependencies</text>
<g id="clust1" class="cluster">
<title>cluster_BemModule</title>
<polygon fill="none" stroke="black" stroke-dasharray="1,5" points="8,-32.8 8,-236.8 381,-236.8 381,-32.8 8,-32.8"/>
</g>
<g id="clust2" class="cluster">
<title>cluster_BemModule_declarations</title>
<polygon fill="none" stroke="black" points="24,-40.8 24,-92.8 370,-92.8 370,-40.8 24,-40.8"/>
</g>
<g id="clust7" class="cluster">
<title>cluster_BemModule_exports</title>
<polygon fill="none" stroke="black" points="16,-176.8 16,-228.8 373,-228.8 373,-176.8 16,-176.8"/>
</g>
<g id="clust10" class="cluster">
<title>cluster_NavbarModule</title>
<polygon fill="none" stroke="black" stroke-dasharray="1,5" points="389,-100.8 389,-304.8 673,-304.8 673,-100.8 389,-100.8"/>
</g>
<g id="clust11" class="cluster">
<title>cluster_NavbarModule_declarations</title>
<polygon fill="none" stroke="black" points="397,-108.8 397,-160.8 535,-160.8 535,-108.8 397,-108.8"/>
</g>
<g id="clust13" class="cluster">
<title>cluster_NavbarModule_imports</title>
<polygon fill="none" stroke="black" points="543,-108.8 543,-160.8 665,-160.8 665,-108.8 543,-108.8"/>
</g>
<g id="clust14" class="cluster">
<title>cluster_NavbarModule_exports</title>
<polygon fill="none" stroke="black" points="397,-244.8 397,-296.8 539,-296.8 539,-244.8 397,-244.8"/>
</g>
<g id="clust17" class="cluster">
<title>cluster_SidebarModule</title>
<polygon fill="none" stroke="black" stroke-dasharray="1,5" points="1373,-32.8 1373,-236.8 1897,-236.8 1897,-32.8 1373,-32.8"/>
</g>
<g id="clust18" class="cluster">
<title>cluster_SidebarModule_declarations</title>
<polygon fill="none" stroke="black" points="1385,-40.8 1385,-92.8 1883,-92.8 1883,-40.8 1385,-40.8"/>
</g>
<g id="clust23" class="cluster">
<title>cluster_SidebarModule_exports</title>
<polygon fill="none" stroke="black" points="1381,-176.8 1381,-228.8 1889,-228.8 1889,-176.8 1381,-176.8"/>
</g>
<g id="clust26" class="cluster">
<title>cluster_SpinnerModule</title>
<polygon fill="none" stroke="black" stroke-dasharray="1,5" points="1205,-100.8 1205,-304.8 1365,-304.8 1365,-100.8 1205,-100.8"/>
</g>
<g id="clust27" class="cluster">
<title>cluster_SpinnerModule_declarations</title>
<polygon fill="none" stroke="black" points="1213,-108.8 1213,-160.8 1353,-160.8 1353,-108.8 1213,-108.8"/>
</g>
<g id="clust30" class="cluster">
<title>cluster_SpinnerModule_exports</title>
<polygon fill="none" stroke="black" points="1213,-244.8 1213,-296.8 1357,-296.8 1357,-244.8 1213,-244.8"/>
</g>
<g id="clust33" class="cluster">
<title>cluster_SplashScreenModule</title>
<polygon fill="none" stroke="black" stroke-dasharray="1,5" points="681,-168.8 681,-372.8 873,-372.8 873,-168.8 681,-168.8"/>
</g>
<g id="clust34" class="cluster">
<title>cluster_SplashScreenModule_declarations</title>
<polygon fill="none" stroke="black" points="691,-176.8 691,-228.8 863,-228.8 863,-176.8 691,-176.8"/>
</g>
<g id="clust37" class="cluster">
<title>cluster_SplashScreenModule_exports</title>
<polygon fill="none" stroke="black" points="689,-312.8 689,-364.8 865,-364.8 865,-312.8 689,-312.8"/>
</g>
<g id="clust40" class="cluster">
<title>cluster_SvgIconModule</title>
<polygon fill="none" stroke="black" stroke-dasharray="1,5" points="881,-168.8 881,-236.8 1197,-236.8 1197,-168.8 881,-168.8"/>
</g>
<g id="clust41" class="cluster">
<title>cluster_SvgIconModule_declarations</title>
<polygon fill="none" stroke="black" points="1045,-176.8 1045,-228.8 1189,-228.8 1189,-176.8 1045,-176.8"/>
</g>
<g id="clust44" class="cluster">
<title>cluster_SvgIconModule_exports</title>
<polygon fill="none" stroke="black" points="889,-176.8 889,-228.8 1037,-228.8 1037,-176.8 889,-176.8"/>
</g>
<!-- BlockDirective -->
<g id="node1" class="node">
<title>BlockDirective</title>
<polygon fill="#ffffb3" stroke="black" points="361.53,-84.8 260.47,-84.8 260.47,-48.8 361.53,-48.8 361.53,-84.8"/>
<text text-anchor="middle" x="311" y="-62.6" font-family="Times,serif" font-size="14.00">BlockDirective</text>
</g>
<!-- BemModule -->
<g id="node4" class="node">
<title>BemModule</title>
<polygon fill="#8dd3c7" stroke="black" points="235.99,-152.8 232.99,-156.8 211.99,-156.8 208.99,-152.8 150.01,-152.8 150.01,-116.8 235.99,-116.8 235.99,-152.8"/>
<text text-anchor="middle" x="193" y="-130.6" font-family="Times,serif" font-size="14.00">BemModule</text>
</g>
<!-- BlockDirective&#45;&gt;BemModule -->
<g id="edge1" class="edge">
<title>BlockDirective&#45;&gt;BemModule</title>
<path fill="none" stroke="black" d="M327.92,-84.82C327.92,-102.17 327.92,-125.8 327.92,-125.8 327.92,-125.8 246.06,-125.8 246.06,-125.8"/>
<polygon fill="black" stroke="black" points="246.06,-122.3 236.06,-125.8 246.06,-129.3 246.06,-122.3"/>
</g>
<!-- ElemDirective -->
<g id="node2" class="node">
<title>ElemDirective</title>
<polygon fill="#ffffb3" stroke="black" points="241.63,-84.8 144.37,-84.8 144.37,-48.8 241.63,-48.8 241.63,-84.8"/>
<text text-anchor="middle" x="193" y="-62.6" font-family="Times,serif" font-size="14.00">ElemDirective</text>
</g>
<!-- ElemDirective&#45;&gt;BemModule -->
<g id="edge2" class="edge">
<title>ElemDirective&#45;&gt;BemModule</title>
<path fill="none" stroke="black" d="M193,-85.02C193,-85.02 193,-106.53 193,-106.53"/>
<polygon fill="black" stroke="black" points="189.5,-106.53 193,-116.53 196.5,-106.53 189.5,-106.53"/>
</g>
<!-- ModDirective -->
<g id="node3" class="node">
<title>ModDirective</title>
<polygon fill="#ffffb3" stroke="black" points="126.03,-84.8 31.97,-84.8 31.97,-48.8 126.03,-48.8 126.03,-84.8"/>
<text text-anchor="middle" x="79" y="-62.6" font-family="Times,serif" font-size="14.00">ModDirective</text>
</g>
<!-- ModDirective&#45;&gt;BemModule -->
<g id="edge3" class="edge">
<title>ModDirective&#45;&gt;BemModule</title>
<path fill="none" stroke="black" d="M91.92,-85.07C91.92,-103.36 91.92,-128.8 91.92,-128.8 91.92,-128.8 139.84,-128.8 139.84,-128.8"/>
<polygon fill="black" stroke="black" points="139.84,-132.3 149.84,-128.8 139.84,-125.3 139.84,-132.3"/>
</g>
<!-- BlockDirective  -->
<g id="node5" class="node">
<title>BlockDirective </title>
<polygon fill="#fb8072" stroke="black" points="364.52,-220.8 259.48,-220.8 259.48,-184.8 364.52,-184.8 364.52,-220.8"/>
<text text-anchor="middle" x="312" y="-198.6" font-family="Times,serif" font-size="14.00">BlockDirective </text>
</g>
<!-- BemModule&#45;&gt;BlockDirective  -->
<g id="edge4" class="edge">
<title>BemModule&#45;&gt;BlockDirective </title>
<path fill="none" stroke="black" stroke-dasharray="5,2" d="M236.16,-143.8C263.63,-143.8 294.08,-143.8 294.08,-143.8 294.08,-143.8 294.08,-174.78 294.08,-174.78"/>
<polygon fill="black" stroke="black" points="290.58,-174.78 294.08,-184.78 297.58,-174.78 290.58,-174.78"/>
</g>
<!-- ElemDirective  -->
<g id="node6" class="node">
<title>ElemDirective </title>
<polygon fill="#fb8072" stroke="black" points="241.63,-220.8 140.37,-220.8 140.37,-184.8 241.63,-184.8 241.63,-220.8"/>
<text text-anchor="middle" x="191" y="-198.6" font-family="Times,serif" font-size="14.00">ElemDirective </text>
</g>
<!-- BemModule&#45;&gt;ElemDirective  -->
<g id="edge5" class="edge">
<title>BemModule&#45;&gt;ElemDirective </title>
<path fill="none" stroke="black" stroke-dasharray="5,2" d="M171.5,-153.02C171.5,-153.02 171.5,-174.53 171.5,-174.53"/>
<polygon fill="black" stroke="black" points="168,-174.53 171.5,-184.53 175,-174.53 168,-174.53"/>
</g>
<!-- ModDirective  -->
<g id="node7" class="node">
<title>ModDirective </title>
<polygon fill="#fb8072" stroke="black" points="122.03,-220.8 23.97,-220.8 23.97,-184.8 122.03,-184.8 122.03,-220.8"/>
<text text-anchor="middle" x="73" y="-198.6" font-family="Times,serif" font-size="14.00">ModDirective </text>
</g>
<!-- BemModule&#45;&gt;ModDirective  -->
<g id="edge6" class="edge">
<title>BemModule&#45;&gt;ModDirective </title>
<path fill="none" stroke="black" stroke-dasharray="5,2" d="M149.69,-140.8C111.48,-140.8 61.83,-140.8 61.83,-140.8 61.83,-140.8 61.83,-174.53 61.83,-174.53"/>
<polygon fill="black" stroke="black" points="58.33,-174.53 61.83,-184.53 65.33,-174.53 58.33,-174.53"/>
</g>
<!-- NavbarModule -->
<g id="node9" class="node">
<title>NavbarModule</title>
<polygon fill="#8dd3c7" stroke="black" points="517.25,-220.8 514.25,-224.8 493.25,-224.8 490.25,-220.8 416.75,-220.8 416.75,-184.8 517.25,-184.8 517.25,-220.8"/>
<text text-anchor="middle" x="467" y="-198.6" font-family="Times,serif" font-size="14.00">NavbarModule</text>
</g>
<!-- BemModule&#45;&gt;NavbarModule -->
<g id="edge8" class="edge">
<title>BemModule&#45;&gt;NavbarModule</title>
<path fill="none" stroke="black" d="M236,-134.8C292.5,-134.8 384.62,-134.8 384.62,-134.8 384.62,-134.8 384.62,-202.8 384.62,-202.8 384.62,-202.8 406.71,-202.8 406.71,-202.8"/>
<polygon fill="black" stroke="black" points="406.71,-206.3 416.71,-202.8 406.71,-199.3 406.71,-206.3"/>
</g>
<!-- SpinnerModule -->
<g id="node20" class="node">
<title>SpinnerModule</title>
<polygon fill="#8dd3c7" stroke="black" points="1325.6,-220.8 1322.6,-224.8 1301.6,-224.8 1298.6,-220.8 1222.4,-220.8 1222.4,-184.8 1325.6,-184.8 1325.6,-220.8"/>
<text text-anchor="middle" x="1274" y="-198.6" font-family="Times,serif" font-size="14.00">SpinnerModule</text>
</g>
<!-- BemModule&#45;&gt;SpinnerModule -->
<g id="edge18" class="edge">
<title>BemModule&#45;&gt;SpinnerModule</title>
<path fill="none" stroke="black" d="M214.5,-153C214.5,-158.83 214.5,-163.8 214.5,-163.8 214.5,-163.8 1256.82,-163.8 1256.82,-163.8 1256.82,-163.8 1256.82,-174.67 1256.82,-174.67"/>
<polygon fill="black" stroke="black" points="1253.32,-174.67 1256.82,-184.67 1260.32,-174.67 1253.32,-174.67"/>
</g>
<!-- SplashScreenModule -->
<g id="node23" class="node">
<title>SplashScreenModule</title>
<polygon fill="#8dd3c7" stroke="black" points="844.47,-288.8 841.47,-292.8 820.47,-292.8 817.47,-288.8 709.53,-288.8 709.53,-252.8 844.47,-252.8 844.47,-288.8"/>
<text text-anchor="middle" x="777" y="-266.6" font-family="Times,serif" font-size="14.00">SplashScreenModule</text>
</g>
<!-- BemModule&#45;&gt;SplashScreenModule -->
<g id="edge21" class="edge">
<title>BemModule&#45;&gt;SplashScreenModule</title>
<path fill="none" stroke="black" d="M193,-152.93C193,-163.51 193,-174.8 193,-174.8 193,-174.8 540.96,-174.8 540.96,-174.8 540.96,-174.8 540.96,-270.8 540.96,-270.8 540.96,-270.8 699.36,-270.8 699.36,-270.8"/>
<polygon fill="black" stroke="black" points="699.36,-274.3 709.36,-270.8 699.36,-267.3 699.36,-274.3"/>
</g>
<!-- NavbarComponent -->
<g id="node8" class="node">
<title>NavbarComponent</title>
<polygon fill="#ffffb3" stroke="black" points="527.03,-152.8 404.97,-152.8 404.97,-116.8 527.03,-116.8 527.03,-152.8"/>
<text text-anchor="middle" x="466" y="-130.6" font-family="Times,serif" font-size="14.00">NavbarComponent</text>
</g>
<!-- NavbarComponent&#45;&gt;NavbarModule -->
<g id="edge7" class="edge">
<title>NavbarComponent&#45;&gt;NavbarModule</title>
<path fill="none" stroke="black" d="M467,-153.02C467,-153.02 467,-174.53 467,-174.53"/>
<polygon fill="black" stroke="black" points="463.5,-174.53 467,-184.53 470.5,-174.53 463.5,-174.53"/>
</g>
<!-- NavbarComponent  -->
<g id="node11" class="node">
<title>NavbarComponent </title>
<polygon fill="#fb8072" stroke="black" points="531.03,-288.8 404.97,-288.8 404.97,-252.8 531.03,-252.8 531.03,-288.8"/>
<text text-anchor="middle" x="468" y="-266.6" font-family="Times,serif" font-size="14.00">NavbarComponent </text>
</g>
<!-- NavbarModule&#45;&gt;NavbarComponent  -->
<g id="edge10" class="edge">
<title>NavbarModule&#45;&gt;NavbarComponent </title>
<path fill="none" stroke="black" stroke-dasharray="5,2" d="M467,-221.02C467,-221.02 467,-242.53 467,-242.53"/>
<polygon fill="black" stroke="black" points="463.5,-242.53 467,-252.53 470.5,-242.53 463.5,-242.53"/>
</g>
<!-- SvgIconModule -->
<g id="node10" class="node">
<title>SvgIconModule</title>
<polygon fill="#8dd3c7" stroke="black" points="657.21,-152.8 654.21,-156.8 633.21,-156.8 630.21,-152.8 550.79,-152.8 550.79,-116.8 657.21,-116.8 657.21,-152.8"/>
<text text-anchor="middle" x="604" y="-130.6" font-family="Times,serif" font-size="14.00">SvgIconModule</text>
</g>
<!-- SvgIconModule&#45;&gt;NavbarModule -->
<g id="edge9" class="edge">
<title>SvgIconModule&#45;&gt;NavbarModule</title>
<path fill="none" stroke="black" d="M604,-153.02C604,-173.17 604,-202.8 604,-202.8 604,-202.8 527.62,-202.8 527.62,-202.8"/>
<polygon fill="black" stroke="black" points="527.62,-199.3 517.62,-202.8 527.62,-206.3 527.62,-199.3"/>
</g>
<!-- SvgIconComponent  -->
<g id="node26" class="node">
<title>SvgIconComponent </title>
<polygon fill="#fb8072" stroke="black" points="1028.99,-220.8 897.01,-220.8 897.01,-184.8 1028.99,-184.8 1028.99,-220.8"/>
<text text-anchor="middle" x="963" y="-198.6" font-family="Times,serif" font-size="14.00">SvgIconComponent </text>
</g>
<!-- SvgIconModule&#45;&gt;SvgIconComponent  -->
<g id="edge25" class="edge">
<title>SvgIconModule&#45;&gt;SvgIconComponent </title>
<path fill="none" stroke="black" stroke-dasharray="5,2" d="M657.36,-140.8C757.36,-140.8 963,-140.8 963,-140.8 963,-140.8 963,-174.53 963,-174.53"/>
<polygon fill="black" stroke="black" points="959.5,-174.53 963,-184.53 966.5,-174.53 959.5,-174.53"/>
</g>
<!-- CloseSidebarDirective -->
<g id="node12" class="node">
<title>CloseSidebarDirective</title>
<polygon fill="#ffffb3" stroke="black" points="1875.23,-84.8 1732.77,-84.8 1732.77,-48.8 1875.23,-48.8 1875.23,-84.8"/>
<text text-anchor="middle" x="1804" y="-62.6" font-family="Times,serif" font-size="14.00">CloseSidebarDirective</text>
</g>
<!-- SidebarModule -->
<g id="node15" class="node">
<title>SidebarModule</title>
<polygon fill="#8dd3c7" stroke="black" points="1704.31,-152.8 1701.31,-156.8 1680.31,-156.8 1677.31,-152.8 1601.69,-152.8 1601.69,-116.8 1704.31,-116.8 1704.31,-152.8"/>
<text text-anchor="middle" x="1653" y="-130.6" font-family="Times,serif" font-size="14.00">SidebarModule</text>
</g>
<!-- CloseSidebarDirective&#45;&gt;SidebarModule -->
<g id="edge11" class="edge">
<title>CloseSidebarDirective&#45;&gt;SidebarModule</title>
<path fill="none" stroke="black" d="M1828.54,-85.07C1828.54,-103.36 1828.54,-128.8 1828.54,-128.8 1828.54,-128.8 1714.24,-128.8 1714.24,-128.8"/>
<polygon fill="black" stroke="black" points="1714.24,-125.3 1704.24,-128.8 1714.24,-132.3 1714.24,-125.3"/>
</g>
<!-- SidebarComponent -->
<g id="node13" class="node">
<title>SidebarComponent</title>
<polygon fill="#ffffb3" stroke="black" points="1715.1,-84.8 1590.9,-84.8 1590.9,-48.8 1715.1,-48.8 1715.1,-84.8"/>
<text text-anchor="middle" x="1653" y="-62.6" font-family="Times,serif" font-size="14.00">SidebarComponent</text>
</g>
<!-- SidebarComponent&#45;&gt;SidebarModule -->
<g id="edge12" class="edge">
<title>SidebarComponent&#45;&gt;SidebarModule</title>
<path fill="none" stroke="black" d="M1653,-85.02C1653,-85.02 1653,-106.53 1653,-106.53"/>
<polygon fill="black" stroke="black" points="1649.5,-106.53 1653,-116.53 1656.5,-106.53 1649.5,-106.53"/>
</g>
<!-- SidebarContainerComponent -->
<g id="node14" class="node">
<title>SidebarContainerComponent</title>
<polygon fill="#ffffb3" stroke="black" points="1572.8,-84.8 1393.2,-84.8 1393.2,-48.8 1572.8,-48.8 1572.8,-84.8"/>
<text text-anchor="middle" x="1483" y="-62.6" font-family="Times,serif" font-size="14.00">SidebarContainerComponent</text>
</g>
<!-- SidebarContainerComponent&#45;&gt;SidebarModule -->
<g id="edge13" class="edge">
<title>SidebarContainerComponent&#45;&gt;SidebarModule</title>
<path fill="none" stroke="black" d="M1512.05,-85.07C1512.05,-103.36 1512.05,-128.8 1512.05,-128.8 1512.05,-128.8 1591.72,-128.8 1591.72,-128.8"/>
<polygon fill="black" stroke="black" points="1591.72,-132.3 1601.72,-128.8 1591.72,-125.3 1591.72,-132.3"/>
</g>
<!-- CloseSidebarDirective  -->
<g id="node16" class="node">
<title>CloseSidebarDirective </title>
<polygon fill="#fb8072" stroke="black" points="1881.23,-220.8 1734.77,-220.8 1734.77,-184.8 1881.23,-184.8 1881.23,-220.8"/>
<text text-anchor="middle" x="1808" y="-198.6" font-family="Times,serif" font-size="14.00">CloseSidebarDirective </text>
</g>
<!-- SidebarModule&#45;&gt;CloseSidebarDirective  -->
<g id="edge14" class="edge">
<title>SidebarModule&#45;&gt;CloseSidebarDirective </title>
<path fill="none" stroke="black" stroke-dasharray="5,2" d="M1704.24,-140.8C1740.13,-140.8 1781.71,-140.8 1781.71,-140.8 1781.71,-140.8 1781.71,-174.53 1781.71,-174.53"/>
<polygon fill="black" stroke="black" points="1778.21,-174.53 1781.71,-184.53 1785.21,-174.53 1778.21,-174.53"/>
</g>
<!-- SidebarComponent  -->
<g id="node17" class="node">
<title>SidebarComponent </title>
<polygon fill="#fb8072" stroke="black" points="1716.6,-220.8 1589.4,-220.8 1589.4,-184.8 1716.6,-184.8 1716.6,-220.8"/>
<text text-anchor="middle" x="1653" y="-198.6" font-family="Times,serif" font-size="14.00">SidebarComponent </text>
</g>
<!-- SidebarModule&#45;&gt;SidebarComponent  -->
<g id="edge15" class="edge">
<title>SidebarModule&#45;&gt;SidebarComponent </title>
<path fill="none" stroke="black" stroke-dasharray="5,2" d="M1653,-153.02C1653,-153.02 1653,-174.53 1653,-174.53"/>
<polygon fill="black" stroke="black" points="1649.5,-174.53 1653,-184.53 1656.5,-174.53 1649.5,-174.53"/>
</g>
<!-- SidebarContainerComponent  -->
<g id="node18" class="node">
<title>SidebarContainerComponent </title>
<polygon fill="#fb8072" stroke="black" points="1571.3,-220.8 1388.7,-220.8 1388.7,-184.8 1571.3,-184.8 1571.3,-220.8"/>
<text text-anchor="middle" x="1480" y="-198.6" font-family="Times,serif" font-size="14.00">SidebarContainerComponent </text>
</g>
<!-- SidebarModule&#45;&gt;SidebarContainerComponent  -->
<g id="edge16" class="edge">
<title>SidebarModule&#45;&gt;SidebarContainerComponent </title>
<path fill="none" stroke="black" stroke-dasharray="5,2" d="M1601.68,-140.8C1542.33,-140.8 1452.7,-140.8 1452.7,-140.8 1452.7,-140.8 1452.7,-174.53 1452.7,-174.53"/>
<polygon fill="black" stroke="black" points="1449.2,-174.53 1452.7,-184.53 1456.2,-174.53 1449.2,-174.53"/>
</g>
<!-- SpinnerComponent -->
<g id="node19" class="node">
<title>SpinnerComponent</title>
<polygon fill="#ffffb3" stroke="black" points="1345.38,-152.8 1220.62,-152.8 1220.62,-116.8 1345.38,-116.8 1345.38,-152.8"/>
<text text-anchor="middle" x="1283" y="-130.6" font-family="Times,serif" font-size="14.00">SpinnerComponent</text>
</g>
<!-- SpinnerComponent&#45;&gt;SpinnerModule -->
<g id="edge17" class="edge">
<title>SpinnerComponent&#45;&gt;SpinnerModule</title>
<path fill="none" stroke="black" d="M1291.18,-153.02C1291.18,-153.02 1291.18,-174.53 1291.18,-174.53"/>
<polygon fill="black" stroke="black" points="1287.68,-174.53 1291.18,-184.53 1294.68,-174.53 1287.68,-174.53"/>
</g>
<!-- SpinnerComponent  -->
<g id="node21" class="node">
<title>SpinnerComponent </title>
<polygon fill="#fb8072" stroke="black" points="1349.38,-288.8 1220.62,-288.8 1220.62,-252.8 1349.38,-252.8 1349.38,-288.8"/>
<text text-anchor="middle" x="1285" y="-266.6" font-family="Times,serif" font-size="14.00">SpinnerComponent </text>
</g>
<!-- SpinnerModule&#45;&gt;SpinnerComponent  -->
<g id="edge19" class="edge">
<title>SpinnerModule&#45;&gt;SpinnerComponent </title>
<path fill="none" stroke="black" stroke-dasharray="5,2" d="M1274,-221.02C1274,-221.02 1274,-242.53 1274,-242.53"/>
<polygon fill="black" stroke="black" points="1270.5,-242.53 1274,-252.53 1277.5,-242.53 1270.5,-242.53"/>
</g>
<!-- SpinnerModule&#45;&gt;SplashScreenModule -->
<g id="edge22" class="edge">
<title>SpinnerModule&#45;&gt;SplashScreenModule</title>
<path fill="none" stroke="black" d="M1222.35,-202.8C1210.23,-202.8 1200.78,-202.8 1200.78,-202.8 1200.78,-202.8 1200.78,-270.8 1200.78,-270.8 1200.78,-270.8 854.62,-270.8 854.62,-270.8"/>
<polygon fill="black" stroke="black" points="854.62,-267.3 844.62,-270.8 854.62,-274.3 854.62,-267.3"/>
</g>
<!-- SplashScreenComponent -->
<g id="node22" class="node">
<title>SplashScreenComponent</title>
<polygon fill="#ffffb3" stroke="black" points="855.25,-220.8 698.75,-220.8 698.75,-184.8 855.25,-184.8 855.25,-220.8"/>
<text text-anchor="middle" x="777" y="-198.6" font-family="Times,serif" font-size="14.00">SplashScreenComponent</text>
</g>
<!-- SplashScreenComponent&#45;&gt;SplashScreenModule -->
<g id="edge20" class="edge">
<title>SplashScreenComponent&#45;&gt;SplashScreenModule</title>
<path fill="none" stroke="black" d="M777,-221.02C777,-221.02 777,-242.53 777,-242.53"/>
<polygon fill="black" stroke="black" points="773.5,-242.53 777,-252.53 780.5,-242.53 773.5,-242.53"/>
</g>
<!-- SplashScreenComponent  -->
<g id="node24" class="node">
<title>SplashScreenComponent </title>
<polygon fill="#fb8072" stroke="black" points="857.25,-356.8 696.75,-356.8 696.75,-320.8 857.25,-320.8 857.25,-356.8"/>
<text text-anchor="middle" x="777" y="-334.6" font-family="Times,serif" font-size="14.00">SplashScreenComponent </text>
</g>
<!-- SplashScreenModule&#45;&gt;SplashScreenComponent  -->
<g id="edge23" class="edge">
<title>SplashScreenModule&#45;&gt;SplashScreenComponent </title>
<path fill="none" stroke="black" stroke-dasharray="5,2" d="M777,-289.02C777,-289.02 777,-310.53 777,-310.53"/>
<polygon fill="black" stroke="black" points="773.5,-310.53 777,-320.53 780.5,-310.53 773.5,-310.53"/>
</g>
<!-- SvgIconComponent -->
<g id="node25" class="node">
<title>SvgIconComponent</title>
<polygon fill="#ffffb3" stroke="black" points="1180.99,-220.8 1053.01,-220.8 1053.01,-184.8 1180.99,-184.8 1180.99,-220.8"/>
<text text-anchor="middle" x="1117" y="-198.6" font-family="Times,serif" font-size="14.00">SvgIconComponent</text>
</g>
<!-- SvgIconComponent&#45;&gt;SvgIconModule -->
<g id="edge24" class="edge">
<title>SvgIconComponent&#45;&gt;SvgIconModule</title>
<path fill="none" stroke="black" d="M1117,-184.51C1117,-162.59 1117,-128.8 1117,-128.8 1117,-128.8 667.45,-128.8 667.45,-128.8"/>
<polygon fill="black" stroke="black" points="667.45,-125.3 657.45,-128.8 667.45,-132.3 667.45,-125.3"/>
</g>
</g>
</svg>
