<?xml version="1.0" encoding="UTF-8" standalone="no"?>
<!DOCTYPE svg PUBLIC "-//W3C//DTD SVG 1.1//EN"
 "http://www.w3.org/Graphics/SVG/1.1/DTD/svg11.dtd">
<!-- Generated by graphviz version 2.47.3 (20210619.1520)
 -->
<!-- Title: dependencies Pages: 1 -->
<svg width="3607pt" height="435pt"
 viewBox="0.00 0.00 3607.00 435.39" xmlns="http://www.w3.org/2000/svg" xmlns:xlink="http://www.w3.org/1999/xlink">
<g id="graph0" class="graph" transform="scale(1 1) rotate(0) translate(4 431.39)">
<title>dependencies</title>
<polygon fill="white" stroke="transparent" points="-4,4 -4,-431.39 3603,-431.39 3603,4 -4,4"/>
<text text-anchor="middle" x="1799.5" y="-8.2" font-family="sans-serif" font-size="14.00">dependencies</text>
<g id="clust1" class="cluster">
<title>cluster_BemModule</title>
<polygon fill="none" stroke="black" stroke-dasharray="1,5" points="198,-32.8 198,-283.39 571,-283.39 571,-32.8 198,-32.8"/>
</g>
<g id="clust2" class="cluster">
<title>cluster_BemModule_declarations</title>
<polygon fill="none" stroke="black" points="217,-40.8 217,-92.8 563,-92.8 563,-40.8 217,-40.8"/>
</g>
<g id="clust7" class="cluster">
<title>cluster_BemModule_exports</title>
<polygon fill="none" stroke="black" points="206,-223.39 206,-275.39 563,-275.39 563,-223.39 206,-223.39"/>
</g>
<g id="clust10" class="cluster">
<title>cluster_ColorPickerSelectModule</title>
<polygon fill="none" stroke="black" stroke-dasharray="1,5" points="1297,-215.39 1297,-419.39 1767,-419.39 1767,-215.39 1297,-215.39"/>
</g>
<g id="clust11" class="cluster">
<title>cluster_ColorPickerSelectModule_declarations</title>
<polygon fill="none" stroke="black" points="1559,-223.39 1559,-275.39 1759,-275.39 1759,-223.39 1559,-223.39"/>
</g>
<g id="clust13" class="cluster">
<title>cluster_ColorPickerSelectModule_imports</title>
<polygon fill="none" stroke="black" points="1305,-223.39 1305,-275.39 1551,-275.39 1551,-223.39 1305,-223.39"/>
</g>
<g id="clust14" class="cluster">
<title>cluster_ColorPickerSelectModule_exports</title>
<polygon fill="none" stroke="black" points="1347,-359.39 1347,-411.39 1549,-411.39 1549,-359.39 1347,-359.39"/>
</g>
<g id="clust17" class="cluster">
<title>cluster_DraggableModule</title>
<polygon fill="none" stroke="black" stroke-dasharray="1,5" points="2731,-124.1 2731,-351.39 2893,-351.39 2893,-124.1 2731,-124.1"/>
</g>
<g id="clust18" class="cluster">
<title>cluster_DraggableModule_declarations</title>
<polygon fill="none" stroke="black" points="2740,-132.1 2740,-184.1 2882,-184.1 2882,-132.1 2740,-132.1"/>
</g>
<g id="clust21" class="cluster">
<title>cluster_DraggableModule_exports</title>
<polygon fill="none" stroke="black" points="2739,-291.39 2739,-343.39 2885,-343.39 2885,-291.39 2739,-291.39"/>
</g>
<g id="clust24" class="cluster">
<title>cluster_FileUploadModule</title>
<polygon fill="none" stroke="black" stroke-dasharray="1,5" points="1775,-100.8 1775,-419.39 2531,-419.39 2531,-100.8 1775,-100.8"/>
</g>
<g id="clust25" class="cluster">
<title>cluster_FileUploadModule_declarations</title>
<polygon fill="none" stroke="black" points="1953,-223.39 1953,-275.39 2113,-275.39 2113,-223.39 1953,-223.39"/>
</g>
<g id="clust26" class="cluster">
<title>cluster_FileUploadModule_FileUploadComponent_providers</title>
<polygon fill="none" stroke="black" points="1783,-108.8 1783,-207.39 2523,-207.39 2523,-108.8 1783,-108.8"/>
</g>
<g id="clust28" class="cluster">
<title>cluster_FileUploadModule_exports</title>
<polygon fill="none" stroke="black" points="1783,-359.39 1783,-411.39 1947,-411.39 1947,-359.39 1783,-359.39"/>
</g>
<g id="clust31" class="cluster">
<title>cluster_NavbarModule</title>
<polygon fill="none" stroke="black" stroke-dasharray="1,5" points="1081,-215.39 1081,-419.39 1239,-419.39 1239,-215.39 1081,-215.39"/>
</g>
<g id="clust32" class="cluster">
<title>cluster_NavbarModule_declarations</title>
<polygon fill="none" stroke="black" points="1089,-223.39 1089,-275.39 1227,-275.39 1227,-223.39 1089,-223.39"/>
</g>
<g id="clust35" class="cluster">
<title>cluster_NavbarModule_exports</title>
<polygon fill="none" stroke="black" points="1089,-359.39 1089,-411.39 1231,-411.39 1231,-359.39 1089,-359.39"/>
</g>
<g id="clust38" class="cluster">
<title>cluster_PopoverModule</title>
<polygon fill="none" stroke="black" stroke-dasharray="1,5" points="770,-124.1 770,-192.1 1443,-192.1 1443,-124.1 770,-124.1"/>
</g>
<g id="clust39" class="cluster">
<title>cluster_PopoverModule_declarations</title>
<polygon fill="none" stroke="black" points="1114,-132.1 1114,-184.1 1435,-184.1 1435,-132.1 1114,-132.1"/>
</g>
<g id="clust43" class="cluster">
<title>cluster_PopoverModule_exports</title>
<polygon fill="none" stroke="black" points="778,-132.1 778,-184.1 1106,-184.1 1106,-132.1 778,-132.1"/>
</g>
<g id="clust46" class="cluster">
<title>cluster_ResizableModule</title>
<polygon fill="none" stroke="black" stroke-dasharray="1,5" points="2901,-124.1 2901,-351.39 3059,-351.39 3059,-124.1 2901,-124.1"/>
</g>
<g id="clust47" class="cluster">
<title>cluster_ResizableModule_declarations</title>
<polygon fill="none" stroke="black" points="2910,-132.1 2910,-184.1 3048,-184.1 3048,-132.1 2910,-132.1"/>
</g>
<g id="clust50" class="cluster">
<title>cluster_ResizableModule_exports</title>
<polygon fill="none" stroke="black" points="2909,-291.39 2909,-343.39 3051,-343.39 3051,-291.39 2909,-291.39"/>
</g>
<g id="clust53" class="cluster">
<title>cluster_SidebarModule</title>
<polygon fill="none" stroke="black" stroke-dasharray="1,5" points="3067,-32.8 3067,-283.39 3591,-283.39 3591,-32.8 3067,-32.8"/>
</g>
<g id="clust54" class="cluster">
<title>cluster_SidebarModule_declarations</title>
<polygon fill="none" stroke="black" points="3079,-40.8 3079,-92.8 3577,-92.8 3577,-40.8 3079,-40.8"/>
</g>
<g id="clust59" class="cluster">
<title>cluster_SidebarModule_exports</title>
<polygon fill="none" stroke="black" points="3075,-223.39 3075,-275.39 3583,-275.39 3583,-223.39 3075,-223.39"/>
</g>
<g id="clust62" class="cluster">
<title>cluster_SpinnerModule</title>
<polygon fill="none" stroke="black" stroke-dasharray="1,5" points="8,-124.1 8,-351.39 168,-351.39 168,-124.1 8,-124.1"/>
</g>
<g id="clust63" class="cluster">
<title>cluster_SpinnerModule_declarations</title>
<polygon fill="none" stroke="black" points="20,-132.1 20,-184.1 160,-184.1 160,-132.1 20,-132.1"/>
</g>
<g id="clust66" class="cluster">
<title>cluster_SpinnerModule_exports</title>
<polygon fill="none" stroke="black" points="16,-291.39 16,-343.39 160,-343.39 160,-291.39 16,-291.39"/>
</g>
<g id="clust69" class="cluster">
<title>cluster_SplashScreenModule</title>
<polygon fill="none" stroke="black" stroke-dasharray="1,5" points="579,-215.39 579,-419.39 771,-419.39 771,-215.39 579,-215.39"/>
</g>
<g id="clust70" class="cluster">
<title>cluster_SplashScreenModule_declarations</title>
<polygon fill="none" stroke="black" points="588,-223.39 588,-275.39 760,-275.39 760,-223.39 588,-223.39"/>
</g>
<g id="clust73" class="cluster">
<title>cluster_SplashScreenModule_exports</title>
<polygon fill="none" stroke="black" points="587,-359.39 587,-411.39 763,-411.39 763,-359.39 587,-359.39"/>
</g>
<g id="clust76" class="cluster">
<title>cluster_SvgIconModule</title>
<polygon fill="none" stroke="black" stroke-dasharray="1,5" points="1451,-124.1 1451,-192.1 1767,-192.1 1767,-124.1 1451,-124.1"/>
</g>
<g id="clust77" class="cluster">
<title>cluster_SvgIconModule_declarations</title>
<polygon fill="none" stroke="black" points="1615,-132.1 1615,-184.1 1759,-184.1 1759,-132.1 1615,-132.1"/>
</g>
<g id="clust80" class="cluster">
<title>cluster_SvgIconModule_exports</title>
<polygon fill="none" stroke="black" points="1459,-132.1 1459,-184.1 1607,-184.1 1607,-132.1 1459,-132.1"/>
</g>
<g id="clust83" class="cluster">
<title>cluster_TabsetModule</title>
<polygon fill="none" stroke="black" stroke-dasharray="1,5" points="779,-215.39 779,-419.39 1057,-419.39 1057,-215.39 779,-215.39"/>
</g>
<g id="clust84" class="cluster">
<title>cluster_TabsetModule_declarations</title>
<polygon fill="none" stroke="black" points="787,-223.39 787,-275.39 1043,-275.39 1043,-223.39 787,-223.39"/>
</g>
<g id="clust88" class="cluster">
<title>cluster_TabsetModule_exports</title>
<polygon fill="none" stroke="black" points="787,-359.39 787,-411.39 1049,-411.39 1049,-359.39 787,-359.39"/>
</g>
<g id="clust91" class="cluster">
<title>cluster_WindowModule</title>
<polygon fill="none" stroke="black" stroke-dasharray="1,5" points="2557,-215.39 2557,-419.39 2723,-419.39 2723,-215.39 2557,-215.39"/>
</g>
<g id="clust92" class="cluster">
<title>cluster_WindowModule_declarations</title>
<polygon fill="none" stroke="black" points="2569,-223.39 2569,-275.39 2715,-275.39 2715,-223.39 2569,-223.39"/>
</g>
<g id="clust95" class="cluster">
<title>cluster_WindowModule_exports</title>
<polygon fill="none" stroke="black" points="2565,-359.39 2565,-411.39 2715,-411.39 2715,-359.39 2565,-359.39"/>
</g>
<!-- BlockDirective -->
<g id="node1" class="node">
<title>BlockDirective</title>
<polygon fill="#ffffb3" stroke="black" points="554.53,-84.8 453.47,-84.8 453.47,-48.8 554.53,-48.8 554.53,-84.8"/>
<text text-anchor="middle" x="504" y="-62.6" font-family="Times,serif" font-size="14.00">BlockDirective</text>
</g>
<!-- BemModule -->
<g id="node4" class="node">
<title>BemModule</title>
<polygon fill="#8dd3c7" stroke="black" points="545.99,-176.1 542.99,-180.1 521.99,-180.1 518.99,-176.1 460.01,-176.1 460.01,-140.1 545.99,-140.1 545.99,-176.1"/>
<text text-anchor="middle" x="503" y="-153.9" font-family="Times,serif" font-size="14.00">BemModule</text>
</g>
<!-- BlockDirective&#45;&gt;BemModule -->
<g id="edge1" class="edge">
<title>BlockDirective&#45;&gt;BemModule</title>
<path fill="none" stroke="black" d="M503,-84.84C503,-84.84 503,-129.78 503,-129.78"/>
<polygon fill="black" stroke="black" points="499.5,-129.78 503,-139.78 506.5,-129.78 499.5,-129.78"/>
</g>
<!-- ElemDirective -->
<g id="node2" class="node">
<title>ElemDirective</title>
<polygon fill="#ffffb3" stroke="black" points="434.63,-84.8 337.37,-84.8 337.37,-48.8 434.63,-48.8 434.63,-84.8"/>
<text text-anchor="middle" x="386" y="-62.6" font-family="Times,serif" font-size="14.00">ElemDirective</text>
</g>
<!-- ElemDirective&#45;&gt;BemModule -->
<g id="edge2" class="edge">
<title>ElemDirective&#45;&gt;BemModule</title>
<path fill="none" stroke="black" d="M400.11,-84.86C400.11,-108.34 400.11,-146.39 400.11,-146.39 400.11,-146.39 449.96,-146.39 449.96,-146.39"/>
<polygon fill="black" stroke="black" points="449.96,-149.89 459.96,-146.39 449.96,-142.89 449.96,-149.89"/>
</g>
<!-- ModDirective -->
<g id="node3" class="node">
<title>ModDirective</title>
<polygon fill="#ffffb3" stroke="black" points="319.03,-84.8 224.97,-84.8 224.97,-48.8 319.03,-48.8 319.03,-84.8"/>
<text text-anchor="middle" x="272" y="-62.6" font-family="Times,serif" font-size="14.00">ModDirective</text>
</g>
<!-- ModDirective&#45;&gt;BemModule -->
<g id="edge3" class="edge">
<title>ModDirective&#45;&gt;BemModule</title>
<path fill="none" stroke="black" d="M315.64,-84.95C315.64,-110.08 315.64,-152.39 315.64,-152.39 315.64,-152.39 449.54,-152.39 449.54,-152.39"/>
<polygon fill="black" stroke="black" points="449.54,-155.89 459.54,-152.39 449.54,-148.89 449.54,-155.89"/>
</g>
<!-- BlockDirective  -->
<g id="node5" class="node">
<title>BlockDirective </title>
<polygon fill="#fb8072" stroke="black" points="554.52,-267.39 449.48,-267.39 449.48,-231.39 554.52,-231.39 554.52,-267.39"/>
<text text-anchor="middle" x="502" y="-245.19" font-family="Times,serif" font-size="14.00">BlockDirective </text>
</g>
<!-- BemModule&#45;&gt;BlockDirective  -->
<g id="edge4" class="edge">
<title>BemModule&#45;&gt;BlockDirective </title>
<path fill="none" stroke="black" stroke-dasharray="5,2" d="M472.29,-176.13C472.29,-176.13 472.29,-221.08 472.29,-221.08"/>
<polygon fill="black" stroke="black" points="468.79,-221.08 472.29,-231.08 475.79,-221.08 468.79,-221.08"/>
</g>
<!-- ElemDirective  -->
<g id="node6" class="node">
<title>ElemDirective </title>
<polygon fill="#fb8072" stroke="black" points="431.63,-267.39 330.37,-267.39 330.37,-231.39 431.63,-231.39 431.63,-267.39"/>
<text text-anchor="middle" x="381" y="-245.19" font-family="Times,serif" font-size="14.00">ElemDirective </text>
</g>
<!-- BemModule&#45;&gt;ElemDirective  -->
<g id="edge5" class="edge">
<title>BemModule&#45;&gt;ElemDirective </title>
<path fill="none" stroke="black" stroke-dasharray="5,2" d="M459.75,-170.39C420.47,-170.39 368.64,-170.39 368.64,-170.39 368.64,-170.39 368.64,-221.07 368.64,-221.07"/>
<polygon fill="black" stroke="black" points="365.14,-221.07 368.64,-231.07 372.14,-221.07 365.14,-221.07"/>
</g>
<!-- ModDirective  -->
<g id="node7" class="node">
<title>ModDirective </title>
<polygon fill="#fb8072" stroke="black" points="312.03,-267.39 213.97,-267.39 213.97,-231.39 312.03,-231.39 312.03,-267.39"/>
<text text-anchor="middle" x="263" y="-245.19" font-family="Times,serif" font-size="14.00">ModDirective </text>
</g>
<!-- BemModule&#45;&gt;ModDirective  -->
<g id="edge6" class="edge">
<title>BemModule&#45;&gt;ModDirective </title>
<path fill="none" stroke="black" stroke-dasharray="5,2" d="M459.97,-164.39C392.23,-164.39 268.38,-164.39 268.38,-164.39 268.38,-164.39 268.38,-221.36 268.38,-221.36"/>
<polygon fill="black" stroke="black" points="264.88,-221.36 268.38,-231.36 271.88,-221.36 264.88,-221.36"/>
</g>
<!-- ColorPickerSelectModule -->
<g id="node9" class="node">
<title>ColorPickerSelectModule</title>
<polygon fill="#8dd3c7" stroke="black" points="1528.91,-335.39 1525.91,-339.39 1504.91,-339.39 1501.91,-335.39 1367.09,-335.39 1367.09,-299.39 1528.91,-299.39 1528.91,-335.39"/>
<text text-anchor="middle" x="1448" y="-313.19" font-family="Times,serif" font-size="14.00">ColorPickerSelectModule</text>
</g>
<!-- BemModule&#45;&gt;ColorPickerSelectModule -->
<g id="edge8" class="edge">
<title>BemModule&#45;&gt;ColorPickerSelectModule</title>
<path fill="none" stroke="black" d="M521.43,-176.45C521.43,-184.6 521.43,-192.39 521.43,-192.39 521.43,-192.39 1423.13,-192.39 1423.13,-192.39 1423.13,-192.39 1423.13,-289.21 1423.13,-289.21"/>
<polygon fill="black" stroke="black" points="1419.63,-289.21 1423.13,-299.21 1426.63,-289.21 1419.63,-289.21"/>
</g>
<!-- SvgIconModule -->
<g id="node11" class="node">
<title>SvgIconModule</title>
<polygon fill="#8dd3c7" stroke="black" points="1543.21,-267.39 1540.21,-271.39 1519.21,-271.39 1516.21,-267.39 1436.79,-267.39 1436.79,-231.39 1543.21,-231.39 1543.21,-267.39"/>
<text text-anchor="middle" x="1490" y="-245.19" font-family="Times,serif" font-size="14.00">SvgIconModule</text>
</g>
<!-- BemModule&#45;&gt;SvgIconModule -->
<g id="edge44" class="edge">
<title>BemModule&#45;&gt;SvgIconModule</title>
<path fill="none" stroke="black" d="M533.71,-176.36C533.71,-180.84 533.71,-184.39 533.71,-184.39 533.71,-184.39 1452.08,-184.39 1452.08,-184.39 1452.08,-184.39 1452.08,-221.28 1452.08,-221.28"/>
<polygon fill="black" stroke="black" points="1448.58,-221.28 1452.08,-231.28 1455.58,-221.28 1448.58,-221.28"/>
</g>
<!-- FileUploadModule -->
<g id="node17" class="node">
<title>FileUploadModule</title>
<polygon fill="#8dd3c7" stroke="black" points="1915.04,-335.39 1912.04,-339.39 1891.04,-339.39 1888.04,-335.39 1792.96,-335.39 1792.96,-299.39 1915.04,-299.39 1915.04,-335.39"/>
<text text-anchor="middle" x="1854" y="-313.19" font-family="Times,serif" font-size="14.00">FileUploadModule</text>
</g>
<!-- BemModule&#45;&gt;FileUploadModule -->
<g id="edge16" class="edge">
<title>BemModule&#45;&gt;FileUploadModule</title>
<path fill="none" stroke="black" d="M496.86,-176.32C496.86,-191.07 496.86,-209.39 496.86,-209.39 496.86,-209.39 1833.58,-209.39 1833.58,-209.39 1833.58,-209.39 1833.58,-289.07 1833.58,-289.07"/>
<polygon fill="black" stroke="black" points="1830.08,-289.07 1833.58,-299.07 1837.08,-289.07 1830.08,-289.07"/>
</g>
<!-- NavbarModule -->
<g id="node21" class="node">
<title>NavbarModule</title>
<polygon fill="#8dd3c7" stroke="black" points="1220.25,-335.39 1217.25,-339.39 1196.25,-339.39 1193.25,-335.39 1119.75,-335.39 1119.75,-299.39 1220.25,-299.39 1220.25,-335.39"/>
<text text-anchor="middle" x="1170" y="-313.19" font-family="Times,serif" font-size="14.00">NavbarModule</text>
</g>
<!-- BemModule&#45;&gt;NavbarModule -->
<g id="edge20" class="edge">
<title>BemModule&#45;&gt;NavbarModule</title>
<path fill="none" stroke="black" d="M484.57,-176.35C484.57,-195.36 484.57,-222.39 484.57,-222.39 484.57,-222.39 1059.63,-222.39 1059.63,-222.39 1059.63,-222.39 1059.63,-317.39 1059.63,-317.39 1059.63,-317.39 1109.66,-317.39 1109.66,-317.39"/>
<polygon fill="black" stroke="black" points="1109.66,-320.89 1119.66,-317.39 1109.66,-313.89 1109.66,-320.89"/>
</g>
<!-- SpinnerModule -->
<g id="node38" class="node">
<title>SpinnerModule</title>
<polygon fill="#8dd3c7" stroke="black" points="149.6,-267.39 146.6,-271.39 125.6,-271.39 122.6,-267.39 46.4,-267.39 46.4,-231.39 149.6,-231.39 149.6,-267.39"/>
<text text-anchor="middle" x="98" y="-245.19" font-family="Times,serif" font-size="14.00">SpinnerModule</text>
</g>
<!-- BemModule&#45;&gt;SpinnerModule -->
<g id="edge36" class="edge">
<title>BemModule&#45;&gt;SpinnerModule</title>
<path fill="none" stroke="black" d="M459.96,-158.39C374.91,-158.39 193.47,-158.39 193.47,-158.39 193.47,-158.39 193.47,-243.39 193.47,-243.39 193.47,-243.39 159.65,-243.39 159.65,-243.39"/>
<polygon fill="black" stroke="black" points="159.65,-239.89 149.65,-243.39 159.65,-246.89 159.65,-239.89"/>
</g>
<!-- SplashScreenModule -->
<g id="node41" class="node">
<title>SplashScreenModule</title>
<polygon fill="#8dd3c7" stroke="black" points="741.47,-335.39 738.47,-339.39 717.47,-339.39 714.47,-335.39 606.53,-335.39 606.53,-299.39 741.47,-299.39 741.47,-335.39"/>
<text text-anchor="middle" x="674" y="-313.19" font-family="Times,serif" font-size="14.00">SplashScreenModule</text>
</g>
<!-- BemModule&#45;&gt;SplashScreenModule -->
<g id="edge39" class="edge">
<title>BemModule&#45;&gt;SplashScreenModule</title>
<path fill="none" stroke="black" d="M546.02,-164.39C561.32,-164.39 574.82,-164.39 574.82,-164.39 574.82,-164.39 574.82,-311.39 574.82,-311.39 574.82,-311.39 596.47,-311.39 596.47,-311.39"/>
<polygon fill="black" stroke="black" points="596.47,-314.89 606.47,-311.39 596.47,-307.89 596.47,-314.89"/>
</g>
<!-- TabsetModule -->
<g id="node47" class="node">
<title>TabsetModule</title>
<polygon fill="#8dd3c7" stroke="black" points="1029.37,-335.39 1026.37,-339.39 1005.37,-339.39 1002.37,-335.39 932.63,-335.39 932.63,-299.39 1029.37,-299.39 1029.37,-335.39"/>
<text text-anchor="middle" x="981" y="-313.19" font-family="Times,serif" font-size="14.00">TabsetModule</text>
</g>
<!-- BemModule&#45;&gt;TabsetModule -->
<g id="edge48" class="edge">
<title>BemModule&#45;&gt;TabsetModule</title>
<path fill="none" stroke="black" d="M546.28,-152.39C621.99,-152.39 770.5,-152.39 770.5,-152.39 770.5,-152.39 770.5,-317.39 770.5,-317.39 770.5,-317.39 922.44,-317.39 922.44,-317.39"/>
<polygon fill="black" stroke="black" points="922.44,-320.89 932.44,-317.39 922.44,-313.89 922.44,-320.89"/>
</g>
<!-- WindowModule -->
<g id="node51" class="node">
<title>WindowModule</title>
<polygon fill="#8dd3c7" stroke="black" points="2694.76,-335.39 2691.76,-339.39 2670.76,-339.39 2667.76,-335.39 2587.24,-335.39 2587.24,-299.39 2694.76,-299.39 2694.76,-335.39"/>
<text text-anchor="middle" x="2641" y="-313.19" font-family="Times,serif" font-size="14.00">WindowModule</text>
</g>
<!-- BemModule&#45;&gt;WindowModule -->
<g id="edge53" class="edge">
<title>BemModule&#45;&gt;WindowModule</title>
<path fill="none" stroke="black" d="M509.14,-176.13C509.14,-189.13 509.14,-204.39 509.14,-204.39 509.14,-204.39 1927.09,-204.39 1927.09,-204.39 1927.09,-204.39 1927.09,-317.39 1927.09,-317.39 1927.09,-317.39 2577.05,-317.39 2577.05,-317.39"/>
<polygon fill="black" stroke="black" points="2577.05,-320.89 2587.05,-317.39 2577.05,-313.89 2577.05,-320.89"/>
</g>
<!-- ColorPickerSelectComponent -->
<g id="node8" class="node">
<title>ColorPickerSelectComponent</title>
<polygon fill="#ffffb3" stroke="black" points="1750.69,-267.39 1567.31,-267.39 1567.31,-231.39 1750.69,-231.39 1750.69,-267.39"/>
<text text-anchor="middle" x="1659" y="-245.19" font-family="Times,serif" font-size="14.00">ColorPickerSelectComponent</text>
</g>
<!-- ColorPickerSelectComponent&#45;&gt;ColorPickerSelectModule -->
<g id="edge7" class="edge">
<title>ColorPickerSelectComponent&#45;&gt;ColorPickerSelectModule</title>
<path fill="none" stroke="black" d="M1659,-267.66C1659,-285.95 1659,-311.39 1659,-311.39 1659,-311.39 1538.97,-311.39 1538.97,-311.39"/>
<polygon fill="black" stroke="black" points="1538.97,-307.89 1528.97,-311.39 1538.97,-314.89 1538.97,-307.89"/>
</g>
<!-- ColorPickerSelectComponent  -->
<g id="node12" class="node">
<title>ColorPickerSelectComponent </title>
<polygon fill="#fb8072" stroke="black" points="1541.19,-403.39 1354.81,-403.39 1354.81,-367.39 1541.19,-367.39 1541.19,-403.39"/>
<text text-anchor="middle" x="1448" y="-381.19" font-family="Times,serif" font-size="14.00">ColorPickerSelectComponent </text>
</g>
<!-- ColorPickerSelectModule&#45;&gt;ColorPickerSelectComponent  -->
<g id="edge11" class="edge">
<title>ColorPickerSelectModule&#45;&gt;ColorPickerSelectComponent </title>
<path fill="none" stroke="black" stroke-dasharray="5,2" d="M1448,-335.61C1448,-335.61 1448,-357.12 1448,-357.12"/>
<polygon fill="black" stroke="black" points="1444.5,-357.12 1448,-367.12 1451.5,-357.12 1444.5,-357.12"/>
</g>
<!-- PopoverModule -->
<g id="node10" class="node">
<title>PopoverModule</title>
<polygon fill="#8dd3c7" stroke="black" points="1419.21,-267.39 1416.21,-271.39 1395.21,-271.39 1392.21,-267.39 1312.79,-267.39 1312.79,-231.39 1419.21,-231.39 1419.21,-267.39"/>
<text text-anchor="middle" x="1366" y="-245.19" font-family="Times,serif" font-size="14.00">PopoverModule</text>
</g>
<!-- PopoverModule&#45;&gt;ColorPickerSelectModule -->
<g id="edge9" class="edge">
<title>PopoverModule&#45;&gt;ColorPickerSelectModule</title>
<path fill="none" stroke="black" d="M1393.2,-267.61C1393.2,-267.61 1393.2,-289.12 1393.2,-289.12"/>
<polygon fill="black" stroke="black" points="1389.7,-289.12 1393.2,-299.12 1396.7,-289.12 1389.7,-289.12"/>
</g>
<!-- PopoverContentComponent  -->
<g id="node25" class="node">
<title>PopoverContentComponent </title>
<polygon fill="#fb8072" stroke="black" points="1097.82,-176.1 922.18,-176.1 922.18,-140.1 1097.82,-140.1 1097.82,-176.1"/>
<text text-anchor="middle" x="1010" y="-153.9" font-family="Times,serif" font-size="14.00">PopoverContentComponent </text>
</g>
<!-- PopoverModule&#45;&gt;PopoverContentComponent  -->
<g id="edge25" class="edge">
<title>PopoverModule&#45;&gt;PopoverContentComponent </title>
<path fill="none" stroke="black" stroke-dasharray="5,2" d="M1392.55,-230.97C1392.55,-222.11 1392.55,-213.39 1392.55,-213.39 1392.55,-213.39 1078.18,-213.39 1078.18,-213.39 1078.18,-213.39 1078.18,-186.2 1078.18,-186.2"/>
<polygon fill="black" stroke="black" points="1081.68,-186.2 1078.18,-176.2 1074.68,-186.2 1081.68,-186.2"/>
</g>
<!-- PopoverDirective  -->
<g id="node26" class="node">
<title>PopoverDirective </title>
<polygon fill="#fb8072" stroke="black" points="904.24,-176.1 785.76,-176.1 785.76,-140.1 904.24,-140.1 904.24,-176.1"/>
<text text-anchor="middle" x="845" y="-153.9" font-family="Times,serif" font-size="14.00">PopoverDirective </text>
</g>
<!-- PopoverModule&#45;&gt;PopoverDirective  -->
<g id="edge26" class="edge">
<title>PopoverModule&#45;&gt;PopoverDirective </title>
<path fill="none" stroke="black" stroke-dasharray="5,2" d="M1366,-231.36C1366,-224.54 1366,-218.39 1366,-218.39 1366,-218.39 849.4,-218.39 849.4,-218.39 849.4,-218.39 849.4,-186.19 849.4,-186.19"/>
<polygon fill="black" stroke="black" points="852.9,-186.19 849.4,-176.19 845.9,-186.19 852.9,-186.19"/>
</g>
<!-- SvgIconModule&#45;&gt;ColorPickerSelectModule -->
<g id="edge10" class="edge">
<title>SvgIconModule&#45;&gt;ColorPickerSelectModule</title>
<path fill="none" stroke="black" d="M1510.34,-267.61C1510.34,-267.61 1510.34,-289.12 1510.34,-289.12"/>
<polygon fill="black" stroke="black" points="1506.84,-289.12 1510.34,-299.12 1513.84,-289.12 1506.84,-289.12"/>
</g>
<!-- SvgIconModule&#45;&gt;FileUploadModule -->
<g id="edge17" class="edge">
<title>SvgIconModule&#45;&gt;FileUploadModule</title>
<path fill="none" stroke="black" d="M1537.13,-267.68C1537.13,-289.6 1537.13,-323.39 1537.13,-323.39 1537.13,-323.39 1782.9,-323.39 1782.9,-323.39"/>
<polygon fill="black" stroke="black" points="1782.9,-326.89 1792.9,-323.39 1782.9,-319.89 1782.9,-326.89"/>
</g>
<!-- SvgIconModule&#45;&gt;NavbarModule -->
<g id="edge21" class="edge">
<title>SvgIconModule&#45;&gt;NavbarModule</title>
<path fill="none" stroke="black" d="M1491.98,-267.43C1491.98,-279.95 1491.98,-294.39 1491.98,-294.39 1491.98,-294.39 1186.05,-294.39 1186.05,-294.39 1186.05,-294.39 1186.05,-294.88 1186.05,-294.88"/>
<polygon fill="black" stroke="black" points="1182.55,-289.27 1186.05,-299.27 1189.55,-289.27 1182.55,-289.27"/>
</g>
<!-- SvgIconModule&#45;&gt;SplashScreenModule -->
<g id="edge41" class="edge">
<title>SvgIconModule&#45;&gt;SplashScreenModule</title>
<path fill="none" stroke="black" d="M1455.26,-267.59C1455.26,-273.42 1455.26,-278.39 1455.26,-278.39 1455.26,-278.39 696.49,-278.39 696.49,-278.39 696.49,-278.39 696.49,-289.26 696.49,-289.26"/>
<polygon fill="black" stroke="black" points="692.99,-289.26 696.49,-299.26 699.99,-289.26 692.99,-289.26"/>
</g>
<!-- SvgIconComponent  -->
<g id="node44" class="node">
<title>SvgIconComponent </title>
<polygon fill="#fb8072" stroke="black" points="1598.99,-176.1 1467.01,-176.1 1467.01,-140.1 1598.99,-140.1 1598.99,-176.1"/>
<text text-anchor="middle" x="1533" y="-153.9" font-family="Times,serif" font-size="14.00">SvgIconComponent </text>
</g>
<!-- SvgIconModule&#45;&gt;SvgIconComponent  -->
<g id="edge45" class="edge">
<title>SvgIconModule&#45;&gt;SvgIconComponent </title>
<path fill="none" stroke="black" stroke-dasharray="5,2" d="M1492.54,-231.35C1492.54,-231.35 1492.54,-186.41 1492.54,-186.41"/>
<polygon fill="black" stroke="black" points="1496.04,-186.41 1492.54,-176.41 1489.04,-186.41 1496.04,-186.41"/>
</g>
<!-- SvgIconModule&#45;&gt;TabsetModule -->
<g id="edge49" class="edge">
<title>SvgIconModule&#45;&gt;TabsetModule</title>
<path fill="none" stroke="black" d="M1473.62,-267.58C1473.62,-275.67 1473.62,-283.39 1473.62,-283.39 1473.62,-283.39 997.14,-283.39 997.14,-283.39 997.14,-283.39 997.14,-289.2 997.14,-289.2"/>
<polygon fill="black" stroke="black" points="993.64,-289.2 997.14,-299.2 1000.64,-289.2 993.64,-289.2"/>
</g>
<!-- SvgIconModule&#45;&gt;WindowModule -->
<g id="edge56" class="edge">
<title>SvgIconModule&#45;&gt;WindowModule</title>
<path fill="none" stroke="black" d="M1532.92,-267.58C1532.92,-270.93 1532.92,-273.39 1532.92,-273.39 1532.92,-273.39 2614.06,-273.39 2614.06,-273.39 2614.06,-273.39 2614.06,-289.24 2614.06,-289.24"/>
<polygon fill="black" stroke="black" points="2610.56,-289.24 2614.06,-299.24 2617.56,-289.24 2610.56,-289.24"/>
</g>
<!-- DraggableDirective -->
<g id="node13" class="node">
<title>DraggableDirective</title>
<polygon fill="#ffffb3" stroke="black" points="2874.38,-176.1 2747.62,-176.1 2747.62,-140.1 2874.38,-140.1 2874.38,-176.1"/>
<text text-anchor="middle" x="2811" y="-153.9" font-family="Times,serif" font-size="14.00">DraggableDirective</text>
</g>
<!-- DraggableModule -->
<g id="node14" class="node">
<title>DraggableModule</title>
<polygon fill="#8dd3c7" stroke="black" points="2869.85,-267.39 2866.85,-271.39 2845.85,-271.39 2842.85,-267.39 2752.15,-267.39 2752.15,-231.39 2869.85,-231.39 2869.85,-267.39"/>
<text text-anchor="middle" x="2811" y="-245.19" font-family="Times,serif" font-size="14.00">DraggableModule</text>
</g>
<!-- DraggableDirective&#45;&gt;DraggableModule -->
<g id="edge12" class="edge">
<title>DraggableDirective&#45;&gt;DraggableModule</title>
<path fill="none" stroke="black" d="M2811,-176.13C2811,-176.13 2811,-221.08 2811,-221.08"/>
<polygon fill="black" stroke="black" points="2807.5,-221.08 2811,-231.08 2814.5,-221.08 2807.5,-221.08"/>
</g>
<!-- DraggableDirective  -->
<g id="node15" class="node">
<title>DraggableDirective </title>
<polygon fill="#fb8072" stroke="black" points="2876.88,-335.39 2747.12,-335.39 2747.12,-299.39 2876.88,-299.39 2876.88,-335.39"/>
<text text-anchor="middle" x="2812" y="-313.19" font-family="Times,serif" font-size="14.00">DraggableDirective </text>
</g>
<!-- DraggableModule&#45;&gt;DraggableDirective  -->
<g id="edge13" class="edge">
<title>DraggableModule&#45;&gt;DraggableDirective </title>
<path fill="none" stroke="black" stroke-dasharray="5,2" d="M2811,-267.61C2811,-267.61 2811,-289.12 2811,-289.12"/>
<polygon fill="black" stroke="black" points="2807.5,-289.12 2811,-299.12 2814.5,-289.12 2807.5,-289.12"/>
</g>
<!-- DraggableModule&#45;&gt;WindowModule -->
<g id="edge54" class="edge">
<title>DraggableModule&#45;&gt;WindowModule</title>
<path fill="none" stroke="black" d="M2752.14,-249.39C2738.01,-249.39 2726.91,-249.39 2726.91,-249.39 2726.91,-249.39 2726.91,-317.39 2726.91,-317.39 2726.91,-317.39 2704.92,-317.39 2704.92,-317.39"/>
<polygon fill="black" stroke="black" points="2704.92,-313.89 2694.92,-317.39 2704.92,-320.89 2704.92,-313.89"/>
</g>
<!-- FileUploadComponent -->
<g id="node16" class="node">
<title>FileUploadComponent</title>
<polygon fill="#ffffb3" stroke="black" points="2105.32,-267.39 1960.68,-267.39 1960.68,-231.39 2105.32,-231.39 2105.32,-267.39"/>
<text text-anchor="middle" x="2033" y="-245.19" font-family="Times,serif" font-size="14.00">FileUploadComponent</text>
</g>
<!-- FileUploadComponent&#45;&gt;FileUploadModule -->
<g id="edge14" class="edge">
<title>FileUploadComponent&#45;&gt;FileUploadModule</title>
<path fill="none" stroke="black" d="M1960.67,-249.39C1918.85,-249.39 1874.42,-249.39 1874.42,-249.39 1874.42,-249.39 1874.42,-289.17 1874.42,-289.17"/>
<polygon fill="black" stroke="black" points="1870.92,-289.17 1874.42,-299.17 1877.92,-289.17 1870.92,-289.17"/>
</g>
<!-- FileUploadComponent  -->
<g id="node19" class="node">
<title>FileUploadComponent </title>
<polygon fill="#fb8072" stroke="black" points="1938.82,-403.39 1791.18,-403.39 1791.18,-367.39 1938.82,-367.39 1938.82,-403.39"/>
<text text-anchor="middle" x="1865" y="-381.19" font-family="Times,serif" font-size="14.00">FileUploadComponent </text>
</g>
<!-- FileUploadModule&#45;&gt;FileUploadComponent  -->
<g id="edge18" class="edge">
<title>FileUploadModule&#45;&gt;FileUploadComponent </title>
<path fill="none" stroke="black" stroke-dasharray="5,2" d="M1854,-335.61C1854,-335.61 1854,-357.12 1854,-357.12"/>
<polygon fill="black" stroke="black" points="1850.5,-357.12 1854,-367.12 1857.5,-357.12 1850.5,-357.12"/>
</g>
<!-- {
 &#160;&#160;&#160;provide: NG_VALUE_ACCESSOR, useExisting: FileUploadComponent, multi: true,
} -->
<g id="node18" class="node">
<title>{
 &#160;&#160;&#160;provide: NG_VALUE_ACCESSOR, useExisting: FileUploadComponent, multi: true,
}</title>
<ellipse fill="#fdb462" stroke="black" cx="2153" cy="-158.1" rx="361.72" ry="41.09"/>
<text text-anchor="middle" x="2153" y="-170.7" font-family="Times,serif" font-size="14.00">{</text>
<text text-anchor="middle" x="2153" y="-153.9" font-family="Times,serif" font-size="14.00"> &#160;&#160;&#160;provide: NG_VALUE_ACCESSOR, useExisting: FileUploadComponent, multi: true,</text>
<text text-anchor="middle" x="2153" y="-137.1" font-family="Times,serif" font-size="14.00">}</text>
</g>
<!-- {
 &#160;&#160;&#160;provide: NG_VALUE_ACCESSOR, useExisting: FileUploadComponent, multi: true,
}&#45;&gt;FileUploadComponent -->
<g id="edge15" class="edge">
<title>{
 &#160;&#160;&#160;provide: NG_VALUE_ACCESSOR, useExisting: FileUploadComponent, multi: true,
}&#45;&gt;FileUploadComponent</title>
<path fill="none" stroke="black" d="M2033,-197.08C2033,-197.08 2033,-221.12 2033,-221.12"/>
<polygon fill="black" stroke="black" points="2029.5,-221.12 2033,-231.12 2036.5,-221.12 2029.5,-221.12"/>
</g>
<!-- NavbarComponent -->
<g id="node20" class="node">
<title>NavbarComponent</title>
<polygon fill="#ffffb3" stroke="black" points="1219.03,-267.39 1096.97,-267.39 1096.97,-231.39 1219.03,-231.39 1219.03,-267.39"/>
<text text-anchor="middle" x="1158" y="-245.19" font-family="Times,serif" font-size="14.00">NavbarComponent</text>
</g>
<!-- NavbarComponent&#45;&gt;NavbarModule -->
<g id="edge19" class="edge">
<title>NavbarComponent&#45;&gt;NavbarModule</title>
<path fill="none" stroke="black" d="M1152.84,-267.61C1152.84,-267.61 1152.84,-289.12 1152.84,-289.12"/>
<polygon fill="black" stroke="black" points="1149.34,-289.12 1152.84,-299.12 1156.34,-289.12 1149.34,-289.12"/>
</g>
<!-- NavbarComponent  -->
<g id="node22" class="node">
<title>NavbarComponent </title>
<polygon fill="#fb8072" stroke="black" points="1223.03,-403.39 1096.97,-403.39 1096.97,-367.39 1223.03,-367.39 1223.03,-403.39"/>
<text text-anchor="middle" x="1160" y="-381.19" font-family="Times,serif" font-size="14.00">NavbarComponent </text>
</g>
<!-- NavbarModule&#45;&gt;NavbarComponent  -->
<g id="edge22" class="edge">
<title>NavbarModule&#45;&gt;NavbarComponent </title>
<path fill="none" stroke="black" stroke-dasharray="5,2" d="M1170,-335.61C1170,-335.61 1170,-357.12 1170,-357.12"/>
<polygon fill="black" stroke="black" points="1166.5,-357.12 1170,-367.12 1173.5,-357.12 1166.5,-357.12"/>
</g>
<!-- PopoverContentComponent -->
<g id="node23" class="node">
<title>PopoverContentComponent</title>
<polygon fill="#ffffb3" stroke="black" points="1427.32,-176.1 1254.68,-176.1 1254.68,-140.1 1427.32,-140.1 1427.32,-176.1"/>
<text text-anchor="middle" x="1341" y="-153.9" font-family="Times,serif" font-size="14.00">PopoverContentComponent</text>
</g>
<!-- PopoverContentComponent&#45;&gt;PopoverModule -->
<g id="edge23" class="edge">
<title>PopoverContentComponent&#45;&gt;PopoverModule</title>
<path fill="none" stroke="black" d="M1339.45,-176.13C1339.45,-176.13 1339.45,-221.08 1339.45,-221.08"/>
<polygon fill="black" stroke="black" points="1335.95,-221.08 1339.45,-231.08 1342.95,-221.08 1335.95,-221.08"/>
</g>
<!-- PopoverDirective -->
<g id="node24" class="node">
<title>PopoverDirective</title>
<polygon fill="#ffffb3" stroke="black" points="1236.24,-176.1 1121.76,-176.1 1121.76,-140.1 1236.24,-140.1 1236.24,-176.1"/>
<text text-anchor="middle" x="1179" y="-153.9" font-family="Times,serif" font-size="14.00">PopoverDirective</text>
</g>
<!-- PopoverDirective&#45;&gt;PopoverModule -->
<g id="edge24" class="edge">
<title>PopoverDirective&#45;&gt;PopoverModule</title>
<path fill="none" stroke="black" d="M1229.69,-176.13C1229.69,-202.74 1229.69,-249.39 1229.69,-249.39 1229.69,-249.39 1302.52,-249.39 1302.52,-249.39"/>
<polygon fill="black" stroke="black" points="1302.52,-252.89 1312.52,-249.39 1302.52,-245.89 1302.52,-252.89"/>
</g>
<!-- ResizableDirective -->
<g id="node27" class="node">
<title>ResizableDirective</title>
<polygon fill="#ffffb3" stroke="black" points="3040,-176.1 2918,-176.1 2918,-140.1 3040,-140.1 3040,-176.1"/>
<text text-anchor="middle" x="2979" y="-153.9" font-family="Times,serif" font-size="14.00">ResizableDirective</text>
</g>
<!-- ResizableModule -->
<g id="node28" class="node">
<title>ResizableModule</title>
<polygon fill="#8dd3c7" stroke="black" points="3035.97,-267.39 3032.97,-271.39 3011.97,-271.39 3008.97,-267.39 2922.03,-267.39 2922.03,-231.39 3035.97,-231.39 3035.97,-267.39"/>
<text text-anchor="middle" x="2979" y="-245.19" font-family="Times,serif" font-size="14.00">ResizableModule</text>
</g>
<!-- ResizableDirective&#45;&gt;ResizableModule -->
<g id="edge27" class="edge">
<title>ResizableDirective&#45;&gt;ResizableModule</title>
<path fill="none" stroke="black" d="M2979,-176.13C2979,-176.13 2979,-221.08 2979,-221.08"/>
<polygon fill="black" stroke="black" points="2975.5,-221.08 2979,-231.08 2982.5,-221.08 2975.5,-221.08"/>
</g>
<!-- ResizableDirective  -->
<g id="node29" class="node">
<title>ResizableDirective </title>
<polygon fill="#fb8072" stroke="black" points="3043,-335.39 2917,-335.39 2917,-299.39 3043,-299.39 3043,-335.39"/>
<text text-anchor="middle" x="2980" y="-313.19" font-family="Times,serif" font-size="14.00">ResizableDirective </text>
</g>
<!-- ResizableModule&#45;&gt;ResizableDirective  -->
<g id="edge28" class="edge">
<title>ResizableModule&#45;&gt;ResizableDirective </title>
<path fill="none" stroke="black" stroke-dasharray="5,2" d="M2998,-267.61C2998,-267.61 2998,-289.12 2998,-289.12"/>
<polygon fill="black" stroke="black" points="2994.5,-289.12 2998,-299.12 3001.5,-289.12 2994.5,-289.12"/>
</g>
<!-- ResizableModule&#45;&gt;WindowModule -->
<g id="edge55" class="edge">
<title>ResizableModule&#45;&gt;WindowModule</title>
<path fill="none" stroke="black" d="M2960,-267.52C2960,-278.1 2960,-289.39 2960,-289.39 2960,-289.39 2667.94,-289.39 2667.94,-289.39 2667.94,-289.39 2667.94,-290.37 2667.94,-290.37"/>
<polygon fill="black" stroke="black" points="2664.44,-289.18 2667.94,-299.18 2671.44,-289.18 2664.44,-289.18"/>
</g>
<!-- CloseSidebarDirective -->
<g id="node30" class="node">
<title>CloseSidebarDirective</title>
<polygon fill="#ffffb3" stroke="black" points="3569.23,-84.8 3426.77,-84.8 3426.77,-48.8 3569.23,-48.8 3569.23,-84.8"/>
<text text-anchor="middle" x="3498" y="-62.6" font-family="Times,serif" font-size="14.00">CloseSidebarDirective</text>
</g>
<!-- SidebarModule -->
<g id="node33" class="node">
<title>SidebarModule</title>
<polygon fill="#8dd3c7" stroke="black" points="3398.31,-176.1 3395.31,-180.1 3374.31,-180.1 3371.31,-176.1 3295.69,-176.1 3295.69,-140.1 3398.31,-140.1 3398.31,-176.1"/>
<text text-anchor="middle" x="3347" y="-153.9" font-family="Times,serif" font-size="14.00">SidebarModule</text>
</g>
<!-- CloseSidebarDirective&#45;&gt;SidebarModule -->
<g id="edge29" class="edge">
<title>CloseSidebarDirective&#45;&gt;SidebarModule</title>
<path fill="none" stroke="black" d="M3522.54,-84.95C3522.54,-110.08 3522.54,-152.39 3522.54,-152.39 3522.54,-152.39 3408.24,-152.39 3408.24,-152.39"/>
<polygon fill="black" stroke="black" points="3408.24,-148.89 3398.24,-152.39 3408.24,-155.89 3408.24,-148.89"/>
</g>
<!-- SidebarComponent -->
<g id="node31" class="node">
<title>SidebarComponent</title>
<polygon fill="#ffffb3" stroke="black" points="3409.1,-84.8 3284.9,-84.8 3284.9,-48.8 3409.1,-48.8 3409.1,-84.8"/>
<text text-anchor="middle" x="3347" y="-62.6" font-family="Times,serif" font-size="14.00">SidebarComponent</text>
</g>
<!-- SidebarComponent&#45;&gt;SidebarModule -->
<g id="edge30" class="edge">
<title>SidebarComponent&#45;&gt;SidebarModule</title>
<path fill="none" stroke="black" d="M3347,-84.84C3347,-84.84 3347,-129.78 3347,-129.78"/>
<polygon fill="black" stroke="black" points="3343.5,-129.78 3347,-139.78 3350.5,-129.78 3343.5,-129.78"/>
</g>
<!-- SidebarContainerComponent -->
<g id="node32" class="node">
<title>SidebarContainerComponent</title>
<polygon fill="#ffffb3" stroke="black" points="3266.8,-84.8 3087.2,-84.8 3087.2,-48.8 3266.8,-48.8 3266.8,-84.8"/>
<text text-anchor="middle" x="3177" y="-62.6" font-family="Times,serif" font-size="14.00">SidebarContainerComponent</text>
</g>
<!-- SidebarContainerComponent&#45;&gt;SidebarModule -->
<g id="edge31" class="edge">
<title>SidebarContainerComponent&#45;&gt;SidebarModule</title>
<path fill="none" stroke="black" d="M3206.05,-84.95C3206.05,-110.08 3206.05,-152.39 3206.05,-152.39 3206.05,-152.39 3285.72,-152.39 3285.72,-152.39"/>
<polygon fill="black" stroke="black" points="3285.72,-155.89 3295.72,-152.39 3285.72,-148.89 3285.72,-155.89"/>
</g>
<!-- CloseSidebarDirective  -->
<g id="node34" class="node">
<title>CloseSidebarDirective </title>
<polygon fill="#fb8072" stroke="black" points="3575.23,-267.39 3428.77,-267.39 3428.77,-231.39 3575.23,-231.39 3575.23,-267.39"/>
<text text-anchor="middle" x="3502" y="-245.19" font-family="Times,serif" font-size="14.00">CloseSidebarDirective </text>
</g>
<!-- SidebarModule&#45;&gt;CloseSidebarDirective  -->
<g id="edge32" class="edge">
<title>SidebarModule&#45;&gt;CloseSidebarDirective </title>
<path fill="none" stroke="black" stroke-dasharray="5,2" d="M3398.24,-164.39C3434.13,-164.39 3475.71,-164.39 3475.71,-164.39 3475.71,-164.39 3475.71,-221.36 3475.71,-221.36"/>
<polygon fill="black" stroke="black" points="3472.21,-221.36 3475.71,-231.36 3479.21,-221.36 3472.21,-221.36"/>
</g>
<!-- SidebarComponent  -->
<g id="node35" class="node">
<title>SidebarComponent </title>
<polygon fill="#fb8072" stroke="black" points="3410.6,-267.39 3283.4,-267.39 3283.4,-231.39 3410.6,-231.39 3410.6,-267.39"/>
<text text-anchor="middle" x="3347" y="-245.19" font-family="Times,serif" font-size="14.00">SidebarComponent </text>
</g>
<!-- SidebarModule&#45;&gt;SidebarComponent  -->
<g id="edge33" class="edge">
<title>SidebarModule&#45;&gt;SidebarComponent </title>
<path fill="none" stroke="black" stroke-dasharray="5,2" d="M3347,-176.13C3347,-176.13 3347,-221.08 3347,-221.08"/>
<polygon fill="black" stroke="black" points="3343.5,-221.08 3347,-231.08 3350.5,-221.08 3343.5,-221.08"/>
</g>
<!-- SidebarContainerComponent  -->
<g id="node36" class="node">
<title>SidebarContainerComponent </title>
<polygon fill="#fb8072" stroke="black" points="3265.3,-267.39 3082.7,-267.39 3082.7,-231.39 3265.3,-231.39 3265.3,-267.39"/>
<text text-anchor="middle" x="3174" y="-245.19" font-family="Times,serif" font-size="14.00">SidebarContainerComponent </text>
</g>
<!-- SidebarModule&#45;&gt;SidebarContainerComponent  -->
<g id="edge34" class="edge">
<title>SidebarModule&#45;&gt;SidebarContainerComponent </title>
<path fill="none" stroke="black" stroke-dasharray="5,2" d="M3295.68,-164.39C3236.33,-164.39 3146.7,-164.39 3146.7,-164.39 3146.7,-164.39 3146.7,-221.36 3146.7,-221.36"/>
<polygon fill="black" stroke="black" points="3143.2,-221.36 3146.7,-231.36 3150.2,-221.36 3143.2,-221.36"/>
</g>
<!-- SpinnerComponent -->
<g id="node37" class="node">
<title>SpinnerComponent</title>
<polygon fill="#ffffb3" stroke="black" points="152.38,-176.1 27.62,-176.1 27.62,-140.1 152.38,-140.1 152.38,-176.1"/>
<text text-anchor="middle" x="90" y="-153.9" font-family="Times,serif" font-size="14.00">SpinnerComponent</text>
</g>
<!-- SpinnerComponent&#45;&gt;SpinnerModule -->
<g id="edge35" class="edge">
<title>SpinnerComponent&#45;&gt;SpinnerModule</title>
<path fill="none" stroke="black" d="M98,-176.13C98,-176.13 98,-221.08 98,-221.08"/>
<polygon fill="black" stroke="black" points="94.5,-221.08 98,-231.08 101.5,-221.08 94.5,-221.08"/>
</g>
<!-- SpinnerComponent  -->
<g id="node39" class="node">
<title>SpinnerComponent </title>
<polygon fill="#fb8072" stroke="black" points="152.38,-335.39 23.62,-335.39 23.62,-299.39 152.38,-299.39 152.38,-335.39"/>
<text text-anchor="middle" x="88" y="-313.19" font-family="Times,serif" font-size="14.00">SpinnerComponent </text>
</g>
<!-- SpinnerModule&#45;&gt;SpinnerComponent  -->
<g id="edge37" class="edge">
<title>SpinnerModule&#45;&gt;SpinnerComponent </title>
<path fill="none" stroke="black" stroke-dasharray="5,2" d="M98,-267.61C98,-267.61 98,-289.12 98,-289.12"/>
<polygon fill="black" stroke="black" points="94.5,-289.12 98,-299.12 101.5,-289.12 94.5,-289.12"/>
</g>
<!-- SpinnerModule&#45;&gt;SplashScreenModule -->
<g id="edge40" class="edge">
<title>SpinnerModule&#45;&gt;SplashScreenModule</title>
<path fill="none" stroke="black" d="M149.65,-255.39C162.63,-255.39 172.96,-255.39 172.96,-255.39 172.96,-255.39 172.96,-323.39 172.96,-323.39 172.96,-323.39 596.43,-323.39 596.43,-323.39"/>
<polygon fill="black" stroke="black" points="596.43,-326.89 606.43,-323.39 596.43,-319.89 596.43,-326.89"/>
</g>
<!-- SplashScreenComponent -->
<g id="node40" class="node">
<title>SplashScreenComponent</title>
<polygon fill="#ffffb3" stroke="black" points="752.25,-267.39 595.75,-267.39 595.75,-231.39 752.25,-231.39 752.25,-267.39"/>
<text text-anchor="middle" x="674" y="-245.19" font-family="Times,serif" font-size="14.00">SplashScreenComponent</text>
</g>
<!-- SplashScreenComponent&#45;&gt;SplashScreenModule -->
<g id="edge38" class="edge">
<title>SplashScreenComponent&#45;&gt;SplashScreenModule</title>
<path fill="none" stroke="black" d="M651.51,-267.61C651.51,-267.61 651.51,-289.12 651.51,-289.12"/>
<polygon fill="black" stroke="black" points="648.01,-289.12 651.51,-299.12 655.01,-289.12 648.01,-289.12"/>
</g>
<!-- SplashScreenComponent  -->
<g id="node42" class="node">
<title>SplashScreenComponent </title>
<polygon fill="#fb8072" stroke="black" points="755.25,-403.39 594.75,-403.39 594.75,-367.39 755.25,-367.39 755.25,-403.39"/>
<text text-anchor="middle" x="675" y="-381.19" font-family="Times,serif" font-size="14.00">SplashScreenComponent </text>
</g>
<!-- SplashScreenModule&#45;&gt;SplashScreenComponent  -->
<g id="edge42" class="edge">
<title>SplashScreenModule&#45;&gt;SplashScreenComponent </title>
<path fill="none" stroke="black" stroke-dasharray="5,2" d="M674,-335.61C674,-335.61 674,-357.12 674,-357.12"/>
<polygon fill="black" stroke="black" points="670.5,-357.12 674,-367.12 677.5,-357.12 670.5,-357.12"/>
</g>
<!-- SvgIconComponent -->
<g id="node43" class="node">
<title>SvgIconComponent</title>
<polygon fill="#ffffb3" stroke="black" points="1750.99,-176.1 1623.01,-176.1 1623.01,-140.1 1750.99,-140.1 1750.99,-176.1"/>
<text text-anchor="middle" x="1687" y="-153.9" font-family="Times,serif" font-size="14.00">SvgIconComponent</text>
</g>
<!-- SvgIconComponent&#45;&gt;SvgIconModule -->
<g id="edge43" class="edge">
<title>SvgIconComponent&#45;&gt;SvgIconModule</title>
<path fill="none" stroke="black" d="M1686.8,-176.3C1686.8,-196.83 1686.8,-227.39 1686.8,-227.39 1686.8,-227.39 1517.82,-227.39 1517.82,-227.39 1517.82,-227.39 1517.82,-227.77 1517.82,-227.77"/>
<polygon fill="black" stroke="black" points="1514.32,-221.22 1517.82,-231.22 1521.32,-221.22 1514.32,-221.22"/>
</g>
<!-- TabComponent -->
<g id="node45" class="node">
<title>TabComponent</title>
<polygon fill="#ffffb3" stroke="black" points="1034.6,-267.39 931.4,-267.39 931.4,-231.39 1034.6,-231.39 1034.6,-267.39"/>
<text text-anchor="middle" x="983" y="-245.19" font-family="Times,serif" font-size="14.00">TabComponent</text>
</g>
<!-- TabComponent&#45;&gt;TabsetModule -->
<g id="edge46" class="edge">
<title>TabComponent&#45;&gt;TabsetModule</title>
<path fill="none" stroke="black" d="M964.86,-267.61C964.86,-267.61 964.86,-289.12 964.86,-289.12"/>
<polygon fill="black" stroke="black" points="961.36,-289.12 964.86,-299.12 968.36,-289.12 961.36,-289.12"/>
</g>
<!-- TabsetComponent -->
<g id="node46" class="node">
<title>TabsetComponent</title>
<polygon fill="#ffffb3" stroke="black" points="913.15,-267.39 794.85,-267.39 794.85,-231.39 913.15,-231.39 913.15,-267.39"/>
<text text-anchor="middle" x="854" y="-245.19" font-family="Times,serif" font-size="14.00">TabsetComponent</text>
</g>
<!-- TabsetComponent&#45;&gt;TabsetModule -->
<g id="edge47" class="edge">
<title>TabsetComponent&#45;&gt;TabsetModule</title>
<path fill="none" stroke="black" d="M907.31,-267.41C907.31,-284.76 907.31,-308.39 907.31,-308.39 907.31,-308.39 922.26,-308.39 922.26,-308.39"/>
<polygon fill="black" stroke="black" points="922.26,-311.89 932.26,-308.39 922.26,-304.89 922.26,-311.89"/>
</g>
<!-- TabComponent  -->
<g id="node48" class="node">
<title>TabComponent </title>
<polygon fill="#fb8072" stroke="black" points="901.1,-403.39 794.9,-403.39 794.9,-367.39 901.1,-367.39 901.1,-403.39"/>
<text text-anchor="middle" x="848" y="-381.19" font-family="Times,serif" font-size="14.00">TabComponent </text>
</g>
<!-- TabsetModule&#45;&gt;TabComponent  -->
<g id="edge50" class="edge">
<title>TabsetModule&#45;&gt;TabComponent </title>
<path fill="none" stroke="black" stroke-dasharray="5,2" d="M932.61,-326.39C894.58,-326.39 848,-326.39 848,-326.39 848,-326.39 848,-357.37 848,-357.37"/>
<polygon fill="black" stroke="black" points="844.5,-357.37 848,-367.37 851.5,-357.37 844.5,-357.37"/>
</g>
<!-- TabsetComponent  -->
<g id="node49" class="node">
<title>TabsetComponent </title>
<polygon fill="#fb8072" stroke="black" points="1041.15,-403.39 918.85,-403.39 918.85,-367.39 1041.15,-367.39 1041.15,-403.39"/>
<text text-anchor="middle" x="980" y="-381.19" font-family="Times,serif" font-size="14.00">TabsetComponent </text>
</g>
<!-- TabsetModule&#45;&gt;TabsetComponent  -->
<g id="edge51" class="edge">
<title>TabsetModule&#45;&gt;TabsetComponent </title>
<path fill="none" stroke="black" stroke-dasharray="5,2" d="M981,-335.61C981,-335.61 981,-357.12 981,-357.12"/>
<polygon fill="black" stroke="black" points="977.5,-357.12 981,-367.12 984.5,-357.12 977.5,-357.12"/>
</g>
<!-- WindowComponent -->
<g id="node50" class="node">
<title>WindowComponent</title>
<polygon fill="#ffffb3" stroke="black" points="2706.54,-267.39 2577.46,-267.39 2577.46,-231.39 2706.54,-231.39 2706.54,-267.39"/>
<text text-anchor="middle" x="2642" y="-245.19" font-family="Times,serif" font-size="14.00">WindowComponent</text>
</g>
<!-- WindowComponent&#45;&gt;WindowModule -->
<g id="edge52" class="edge">
<title>WindowComponent&#45;&gt;WindowModule</title>
<path fill="none" stroke="black" d="M2641,-267.61C2641,-267.61 2641,-289.12 2641,-289.12"/>
<polygon fill="black" stroke="black" points="2637.5,-289.12 2641,-299.12 2644.5,-289.12 2637.5,-289.12"/>
</g>
<!-- WindowComponent  -->
<g id="node52" class="node">
<title>WindowComponent </title>
<polygon fill="#fb8072" stroke="black" points="2706.54,-403.39 2573.46,-403.39 2573.46,-367.39 2706.54,-367.39 2706.54,-403.39"/>
<text text-anchor="middle" x="2640" y="-381.19" font-family="Times,serif" font-size="14.00">WindowComponent </text>
</g>
<!-- WindowModule&#45;&gt;WindowComponent  -->
<g id="edge57" class="edge">
<title>WindowModule&#45;&gt;WindowComponent </title>
<path fill="none" stroke="black" stroke-dasharray="5,2" d="M2641,-335.61C2641,-335.61 2641,-357.12 2641,-357.12"/>
<polygon fill="black" stroke="black" points="2637.5,-357.12 2641,-367.12 2644.5,-357.12 2637.5,-357.12"/>
</g>
</g>
</svg>
