<?xml version="1.0" encoding="UTF-8" standalone="no"?>
<!DOCTYPE svg PUBLIC "-//W3C//DTD SVG 1.1//EN"
 "http://www.w3.org/Graphics/SVG/1.1/DTD/svg11.dtd">
<!-- Generated by graphviz version 2.47.3 (20210619.1520)
 -->
<!-- Title: dependencies Pages: 1 -->
<svg width="334pt" height="247pt"
 viewBox="0.00 0.00 334.00 246.80" xmlns="http://www.w3.org/2000/svg" xmlns:xlink="http://www.w3.org/1999/xlink">
<g id="graph0" class="graph" transform="scale(1 1) rotate(0) translate(4 242.8)">
<title>dependencies</title>
<polygon fill="white" stroke="transparent" points="-4,4 -4,-242.8 330,-242.8 330,4 -4,4"/>
<text text-anchor="middle" x="163" y="-8.2" font-family="sans-serif" font-size="14.00">dependencies</text>
<g id="clust1" class="cluster">
<title>cluster_AvatarAppearancePreviewAframeModule</title>
<polygon fill="none" stroke="black" stroke-dasharray="1,5" points="8,-32.8 8,-230.8 318,-230.8 318,-32.8 8,-32.8"/>
</g>
<g id="clust2" class="cluster">
<title>cluster_AvatarAppearancePreviewAframeModule_declarations</title>
<polygon fill="none" stroke="black" points="18,-40.8 18,-92.8 308,-92.8 308,-40.8 18,-40.8"/>
</g>
<g id="clust5" class="cluster">
<title>cluster_AvatarAppearancePreviewAframeModule_exports</title>
<polygon fill="none" stroke="black" points="16,-170.8 16,-222.8 310,-222.8 310,-170.8 16,-170.8"/>
</g>
<!-- AvatarAppearancePreviewAframeComponent -->
<g id="node1" class="node">
<title>AvatarAppearancePreviewAframeComponent</title>
<polygon fill="#ffffb3" stroke="black" points="300.38,-84.8 25.62,-84.8 25.62,-48.8 300.38,-48.8 300.38,-84.8"/>
<text text-anchor="middle" x="163" y="-62.6" font-family="Times,serif" font-size="14.00">AvatarAppearancePreviewAframeComponent</text>
</g>
<!-- AvatarAppearancePreviewAframeModule -->
<g id="node2" class="node">
<title>AvatarAppearancePreviewAframeModule</title>
<polygon fill="#8dd3c7" stroke="black" points="289.59,-149.8 286.59,-153.8 265.59,-153.8 262.59,-149.8 36.41,-149.8 36.41,-113.8 289.59,-113.8 289.59,-149.8"/>
<text text-anchor="middle" x="163" y="-127.6" font-family="Times,serif" font-size="14.00">AvatarAppearancePreviewAframeModule</text>
</g>
<!-- AvatarAppearancePreviewAframeComponent&#45;&gt;AvatarAppearancePreviewAframeModule -->
<g id="edge1" class="edge">
<title>AvatarAppearancePreviewAframeComponent&#45;&gt;AvatarAppearancePreviewAframeModule</title>
<path fill="none" stroke="black" d="M163,-84.91C163,-84.91 163,-103.79 163,-103.79"/>
<polygon fill="black" stroke="black" points="159.5,-103.79 163,-113.79 166.5,-103.79 159.5,-103.79"/>
</g>
<!-- AvatarAppearancePreviewAframeComponent  -->
<g id="node3" class="node">
<title>AvatarAppearancePreviewAframeComponent </title>
<polygon fill="#fb8072" stroke="black" points="302.38,-214.8 23.62,-214.8 23.62,-178.8 302.38,-178.8 302.38,-214.8"/>
<text text-anchor="middle" x="163" y="-192.6" font-family="Times,serif" font-size="14.00">AvatarAppearancePreviewAframeComponent </text>
</g>
<!-- AvatarAppearancePreviewAframeModule&#45;&gt;AvatarAppearancePreviewAframeComponent  -->
<g id="edge2" class="edge">
<title>AvatarAppearancePreviewAframeModule&#45;&gt;AvatarAppearancePreviewAframeComponent </title>
<path fill="none" stroke="black" stroke-dasharray="5,2" d="M163,-149.91C163,-149.91 163,-168.79 163,-168.79"/>
<polygon fill="black" stroke="black" points="159.5,-168.79 163,-178.79 166.5,-168.79 159.5,-168.79"/>
</g>
</g>
</svg>
