<?xml version="1.0" encoding="UTF-8" standalone="no"?>
<!DOCTYPE svg PUBLIC "-//W3C//DTD SVG 1.1//EN"
 "http://www.w3.org/Graphics/SVG/1.1/DTD/svg11.dtd">
<!-- Generated by graphviz version 2.47.3 (20210619.1520)
 -->
<!-- Title: dependencies Pages: 1 -->
<svg width="946pt" height="247pt"
 viewBox="0.00 0.00 946.00 246.80" xmlns="http://www.w3.org/2000/svg" xmlns:xlink="http://www.w3.org/1999/xlink">
<g id="graph0" class="graph" transform="scale(1 1) rotate(0) translate(4 242.8)">
<title>dependencies</title>
<polygon fill="white" stroke="transparent" points="-4,4 -4,-242.8 942,-242.8 942,4 -4,4"/>
<text text-anchor="middle" x="469" y="-8.2" font-family="sans-serif" font-size="14.00">dependencies</text>
<g id="clust1" class="cluster">
<title>cluster_AvatarAppearanceEditorModule</title>
<polygon fill="none" stroke="black" stroke-dasharray="1,5" points="8,-32.8 8,-230.8 930,-230.8 930,-32.8 8,-32.8"/>
</g>
<g id="clust2" class="cluster">
<title>cluster_AvatarAppearanceEditorModule_declarations</title>
<polygon fill="none" stroke="black" points="684,-40.8 684,-92.8 922,-92.8 922,-40.8 684,-40.8"/>
</g>
<g id="clust5" class="cluster">
<title>cluster_AvatarAppearanceEditorModule_exports</title>
<polygon fill="none" stroke="black" points="343,-170.8 343,-222.8 583,-222.8 583,-170.8 343,-170.8"/>
</g>
<g id="clust4" class="cluster">
<title>cluster_AvatarAppearanceEditorModule_imports</title>
<polygon fill="none" stroke="black" points="16,-40.8 16,-92.8 676,-92.8 676,-40.8 16,-40.8"/>
</g>
<!-- AvatarAppearanceEditorComponent -->
<g id="node1" class="node">
<title>AvatarAppearanceEditorComponent</title>
<polygon fill="#ffffb3" stroke="black" points="913.75,-84.8 692.25,-84.8 692.25,-48.8 913.75,-48.8 913.75,-84.8"/>
<text text-anchor="middle" x="803" y="-62.6" font-family="Times,serif" font-size="14.00">AvatarAppearanceEditorComponent</text>
</g>
<!-- AvatarAppearanceEditorModule -->
<g id="node2" class="node">
<title>AvatarAppearanceEditorModule</title>
<polygon fill="#8dd3c7" stroke="black" points="562.97,-149.8 559.97,-153.8 538.97,-153.8 535.97,-149.8 363.03,-149.8 363.03,-113.8 562.97,-113.8 562.97,-149.8"/>
<text text-anchor="middle" x="463" y="-127.6" font-family="Times,serif" font-size="14.00">AvatarAppearanceEditorModule</text>
</g>
<!-- AvatarAppearanceEditorComponent&#45;&gt;AvatarAppearanceEditorModule -->
<g id="edge1" class="edge">
<title>AvatarAppearanceEditorComponent&#45;&gt;AvatarAppearanceEditorModule</title>
<path fill="none" stroke="black" d="M803,-84.91C803,-104.14 803,-131.8 803,-131.8 803,-131.8 573.17,-131.8 573.17,-131.8"/>
<polygon fill="black" stroke="black" points="573.17,-128.3 563.17,-131.8 573.17,-135.3 573.17,-128.3"/>
</g>
<!-- AvatarAppearanceEditorComponent  -->
<g id="node6" class="node">
<title>AvatarAppearanceEditorComponent </title>
<polygon fill="#fb8072" stroke="black" points="575.25,-214.8 350.75,-214.8 350.75,-178.8 575.25,-178.8 575.25,-214.8"/>
<text text-anchor="middle" x="463" y="-192.6" font-family="Times,serif" font-size="14.00">AvatarAppearanceEditorComponent </text>
</g>
<!-- AvatarAppearanceEditorModule&#45;&gt;AvatarAppearanceEditorComponent  -->
<g id="edge5" class="edge">
<title>AvatarAppearanceEditorModule&#45;&gt;AvatarAppearanceEditorComponent </title>
<path fill="none" stroke="black" stroke-dasharray="5,2" d="M463,-149.91C463,-149.91 463,-168.79 463,-168.79"/>
<polygon fill="black" stroke="black" points="459.5,-168.79 463,-178.79 466.5,-168.79 459.5,-168.79"/>
</g>
<!-- AvatarAppearanceCardModule -->
<g id="node3" class="node">
<title>AvatarAppearanceCardModule</title>
<polygon fill="#8dd3c7" stroke="black" points="667.69,-84.8 664.69,-88.8 643.69,-88.8 640.69,-84.8 476.31,-84.8 476.31,-48.8 667.69,-48.8 667.69,-84.8"/>
<text text-anchor="middle" x="572" y="-62.6" font-family="Times,serif" font-size="14.00">AvatarAppearanceCardModule</text>
</g>
<!-- AvatarAppearanceCardModule&#45;&gt;AvatarAppearanceEditorModule -->
<g id="edge2" class="edge">
<title>AvatarAppearanceCardModule&#45;&gt;AvatarAppearanceEditorModule</title>
<path fill="none" stroke="black" d="M519.45,-84.91C519.45,-84.91 519.45,-103.79 519.45,-103.79"/>
<polygon fill="black" stroke="black" points="515.95,-103.79 519.45,-113.79 522.95,-103.79 515.95,-103.79"/>
</g>
<!-- AvatarAppearancePortraitModule -->
<g id="node4" class="node">
<title>AvatarAppearancePortraitModule</title>
<polygon fill="#8dd3c7" stroke="black" points="458.47,-84.8 455.47,-88.8 434.47,-88.8 431.47,-84.8 251.53,-84.8 251.53,-48.8 458.47,-48.8 458.47,-84.8"/>
<text text-anchor="middle" x="355" y="-62.6" font-family="Times,serif" font-size="14.00">AvatarAppearancePortraitModule</text>
</g>
<!-- AvatarAppearancePortraitModule&#45;&gt;AvatarAppearanceEditorModule -->
<g id="edge3" class="edge">
<title>AvatarAppearancePortraitModule&#45;&gt;AvatarAppearanceEditorModule</title>
<path fill="none" stroke="black" d="M410.75,-84.91C410.75,-84.91 410.75,-103.79 410.75,-103.79"/>
<polygon fill="black" stroke="black" points="407.25,-103.79 410.75,-113.79 414.25,-103.79 407.25,-103.79"/>
</g>
<!-- AvatarAppearancePreviewModule -->
<g id="node5" class="node">
<title>AvatarAppearancePreviewModule</title>
<polygon fill="#8dd3c7" stroke="black" points="234.35,-84.8 231.35,-88.8 210.35,-88.8 207.35,-84.8 23.65,-84.8 23.65,-48.8 234.35,-48.8 234.35,-84.8"/>
<text text-anchor="middle" x="129" y="-62.6" font-family="Times,serif" font-size="14.00">AvatarAppearancePreviewModule</text>
</g>
<!-- AvatarAppearancePreviewModule&#45;&gt;AvatarAppearanceEditorModule -->
<g id="edge4" class="edge">
<title>AvatarAppearancePreviewModule&#45;&gt;AvatarAppearanceEditorModule</title>
<path fill="none" stroke="black" d="M129,-84.91C129,-104.14 129,-131.8 129,-131.8 129,-131.8 353.24,-131.8 353.24,-131.8"/>
<polygon fill="black" stroke="black" points="353.24,-135.3 363.24,-131.8 353.24,-128.3 353.24,-135.3"/>
</g>
</g>
</svg>
