<?xml version="1.0" encoding="UTF-8" standalone="no"?>
<!DOCTYPE svg PUBLIC "-//W3C//DTD SVG 1.1//EN"
 "http://www.w3.org/Graphics/SVG/1.1/DTD/svg11.dtd">
<!-- Generated by graphviz version 2.47.3 (20210619.1520)
 -->
<!-- Title: dependencies Pages: 1 -->
<svg width="2263pt" height="247pt"
 viewBox="0.00 0.00 2263.00 246.80" xmlns="http://www.w3.org/2000/svg" xmlns:xlink="http://www.w3.org/1999/xlink">
<g id="graph0" class="graph" transform="scale(1 1) rotate(0) translate(4 242.8)">
<title>dependencies</title>
<polygon fill="white" stroke="transparent" points="-4,4 -4,-242.8 2259,-242.8 2259,4 -4,4"/>
<text text-anchor="middle" x="1127.5" y="-8.2" font-family="sans-serif" font-size="14.00">dependencies</text>
<g id="clust1" class="cluster">
<title>cluster_AvatarAppearanceEditorModule</title>
<polygon fill="none" stroke="black" stroke-dasharray="1,5" points="8,-32.8 8,-230.8 2247,-230.8 2247,-32.8 8,-32.8"/>
</g>
<g id="clust2" class="cluster">
<title>cluster_AvatarAppearanceEditorModule_declarations</title>
<polygon fill="none" stroke="black" points="1195,-40.8 1195,-92.8 2239,-92.8 2239,-40.8 1195,-40.8"/>
</g>
<g id="clust7" class="cluster">
<title>cluster_AvatarAppearanceEditorModule_imports</title>
<polygon fill="none" stroke="black" points="16,-40.8 16,-92.8 1187,-92.8 1187,-40.8 16,-40.8"/>
</g>
<g id="clust8" class="cluster">
<title>cluster_AvatarAppearanceEditorModule_exports</title>
<polygon fill="none" stroke="black" points="963,-170.8 963,-222.8 1203,-222.8 1203,-170.8 963,-170.8"/>
</g>
<!-- AvatarAppearanceEditorComponent -->
<g id="node1" class="node">
<title>AvatarAppearanceEditorComponent</title>
<polygon fill="#ffffb3" stroke="black" points="2230.75,-84.8 2009.25,-84.8 2009.25,-48.8 2230.75,-48.8 2230.75,-84.8"/>
<text text-anchor="middle" x="2120" y="-62.6" font-family="Times,serif" font-size="14.00">AvatarAppearanceEditorComponent</text>
</g>
<!-- AvatarAppearanceEditorModule -->
<g id="node5" class="node">
<title>AvatarAppearanceEditorModule</title>
<polygon fill="#8dd3c7" stroke="black" points="1182.97,-149.8 1179.97,-153.8 1158.97,-153.8 1155.97,-149.8 983.03,-149.8 983.03,-113.8 1182.97,-113.8 1182.97,-149.8"/>
<text text-anchor="middle" x="1083" y="-127.6" font-family="Times,serif" font-size="14.00">AvatarAppearanceEditorModule</text>
</g>
<!-- AvatarAppearanceEditorComponent&#45;&gt;AvatarAppearanceEditorModule -->
<g id="edge1" class="edge">
<title>AvatarAppearanceEditorComponent&#45;&gt;AvatarAppearanceEditorModule</title>
<path fill="none" stroke="black" d="M2120,-84.81C2120,-107.29 2120,-142.8 2120,-142.8 2120,-142.8 1192.9,-142.8 1192.9,-142.8"/>
<polygon fill="black" stroke="black" points="1192.9,-139.3 1182.9,-142.8 1192.9,-146.3 1192.9,-139.3"/>
</g>
<!-- AvatarAppearanceInfoFormComponent -->
<g id="node2" class="node">
<title>AvatarAppearanceInfoFormComponent</title>
<polygon fill="#ffffb3" stroke="black" points="1990.91,-84.8 1751.09,-84.8 1751.09,-48.8 1990.91,-48.8 1990.91,-84.8"/>
<text text-anchor="middle" x="1871" y="-62.6" font-family="Times,serif" font-size="14.00">AvatarAppearanceInfoFormComponent</text>
</g>
<!-- AvatarAppearanceInfoFormComponent&#45;&gt;AvatarAppearanceEditorModule -->
<g id="edge2" class="edge">
<title>AvatarAppearanceInfoFormComponent&#45;&gt;AvatarAppearanceEditorModule</title>
<path fill="none" stroke="black" d="M1871,-84.93C1871,-105.37 1871,-135.8 1871,-135.8 1871,-135.8 1192.8,-135.8 1192.8,-135.8"/>
<polygon fill="black" stroke="black" points="1192.8,-132.3 1182.8,-135.8 1192.8,-139.3 1192.8,-132.3"/>
</g>
<!-- AvatarAppearanceModelFormComponent -->
<g id="node3" class="node">
<title>AvatarAppearanceModelFormComponent</title>
<polygon fill="#ffffb3" stroke="black" points="1732.64,-84.8 1479.36,-84.8 1479.36,-48.8 1732.64,-48.8 1732.64,-84.8"/>
<text text-anchor="middle" x="1606" y="-62.6" font-family="Times,serif" font-size="14.00">AvatarAppearanceModelFormComponent</text>
</g>
<!-- AvatarAppearanceModelFormComponent&#45;&gt;AvatarAppearanceEditorModule -->
<g id="edge3" class="edge">
<title>AvatarAppearanceModelFormComponent&#45;&gt;AvatarAppearanceEditorModule</title>
<path fill="none" stroke="black" d="M1606,-85.07C1606,-103.36 1606,-128.8 1606,-128.8 1606,-128.8 1192.91,-128.8 1192.91,-128.8"/>
<polygon fill="black" stroke="black" points="1192.91,-125.3 1182.91,-128.8 1192.91,-132.3 1192.91,-125.3"/>
</g>
<!-- AvatarAppearancePortraitFormComponent -->
<g id="node4" class="node">
<title>AvatarAppearancePortraitFormComponent</title>
<polygon fill="#ffffb3" stroke="black" points="1461.08,-84.8 1202.92,-84.8 1202.92,-48.8 1461.08,-48.8 1461.08,-84.8"/>
<text text-anchor="middle" x="1332" y="-62.6" font-family="Times,serif" font-size="14.00">AvatarAppearancePortraitFormComponent</text>
</g>
<!-- AvatarAppearancePortraitFormComponent&#45;&gt;AvatarAppearanceEditorModule -->
<g id="edge4" class="edge">
<title>AvatarAppearancePortraitFormComponent&#45;&gt;AvatarAppearanceEditorModule</title>
<path fill="none" stroke="black" d="M1332,-84.81C1332,-100.85 1332,-121.8 1332,-121.8 1332,-121.8 1192.84,-121.8 1192.84,-121.8"/>
<polygon fill="black" stroke="black" points="1192.84,-118.3 1182.84,-121.8 1192.84,-125.3 1192.84,-118.3"/>
</g>
<!-- AvatarAppearanceEditorComponent  -->
<g id="node11" class="node">
<title>AvatarAppearanceEditorComponent </title>
<polygon fill="#fb8072" stroke="black" points="1195.25,-214.8 970.75,-214.8 970.75,-178.8 1195.25,-178.8 1195.25,-214.8"/>
<text text-anchor="middle" x="1083" y="-192.6" font-family="Times,serif" font-size="14.00">AvatarAppearanceEditorComponent </text>
</g>
<!-- AvatarAppearanceEditorModule&#45;&gt;AvatarAppearanceEditorComponent  -->
<g id="edge10" class="edge">
<title>AvatarAppearanceEditorModule&#45;&gt;AvatarAppearanceEditorComponent </title>
<path fill="none" stroke="black" stroke-dasharray="5,2" d="M1083,-149.91C1083,-149.91 1083,-168.79 1083,-168.79"/>
<polygon fill="black" stroke="black" points="1079.5,-168.79 1083,-178.79 1086.5,-168.79 1079.5,-168.79"/>
</g>
<!-- AvatarAppearanceCardModule -->
<g id="node6" class="node">
<title>AvatarAppearanceCardModule</title>
<polygon fill="#8dd3c7" stroke="black" points="1178.69,-84.8 1175.69,-88.8 1154.69,-88.8 1151.69,-84.8 987.31,-84.8 987.31,-48.8 1178.69,-48.8 1178.69,-84.8"/>
<text text-anchor="middle" x="1083" y="-62.6" font-family="Times,serif" font-size="14.00">AvatarAppearanceCardModule</text>
</g>
<!-- AvatarAppearanceCardModule&#45;&gt;AvatarAppearanceEditorModule -->
<g id="edge5" class="edge">
<title>AvatarAppearanceCardModule&#45;&gt;AvatarAppearanceEditorModule</title>
<path fill="none" stroke="black" d="M1083,-84.91C1083,-84.91 1083,-103.79 1083,-103.79"/>
<polygon fill="black" stroke="black" points="1079.5,-103.79 1083,-113.79 1086.5,-103.79 1079.5,-103.79"/>
</g>
<!-- AvatarAppearancePortraitDesignerModule -->
<g id="node7" class="node">
<title>AvatarAppearancePortraitDesignerModule</title>
<polygon fill="#8dd3c7" stroke="black" points="969.5,-84.8 966.5,-88.8 945.5,-88.8 942.5,-84.8 712.5,-84.8 712.5,-48.8 969.5,-48.8 969.5,-84.8"/>
<text text-anchor="middle" x="841" y="-62.6" font-family="Times,serif" font-size="14.00">AvatarAppearancePortraitDesignerModule</text>
</g>
<!-- AvatarAppearancePortraitDesignerModule&#45;&gt;AvatarAppearanceEditorModule -->
<g id="edge6" class="edge">
<title>AvatarAppearancePortraitDesignerModule&#45;&gt;AvatarAppearanceEditorModule</title>
<path fill="none" stroke="black" d="M841,-84.81C841,-100.85 841,-121.8 841,-121.8 841,-121.8 973.17,-121.8 973.17,-121.8"/>
<polygon fill="black" stroke="black" points="973.17,-125.3 983.17,-121.8 973.17,-118.3 973.17,-125.3"/>
</g>
<!-- AvatarAppearancePortraitModule -->
<g id="node8" class="node">
<title>AvatarAppearancePortraitModule</title>
<polygon fill="#8dd3c7" stroke="black" points="694.47,-84.8 691.47,-88.8 670.47,-88.8 667.47,-84.8 487.53,-84.8 487.53,-48.8 694.47,-48.8 694.47,-84.8"/>
<text text-anchor="middle" x="591" y="-62.6" font-family="Times,serif" font-size="14.00">AvatarAppearancePortraitModule</text>
</g>
<!-- AvatarAppearancePortraitModule&#45;&gt;AvatarAppearanceEditorModule -->
<g id="edge7" class="edge">
<title>AvatarAppearancePortraitModule&#45;&gt;AvatarAppearanceEditorModule</title>
<path fill="none" stroke="black" d="M591,-85.07C591,-103.36 591,-128.8 591,-128.8 591,-128.8 973.14,-128.8 973.14,-128.8"/>
<polygon fill="black" stroke="black" points="973.14,-132.3 983.14,-128.8 973.14,-125.3 973.14,-132.3"/>
</g>
<!-- AvatarAppearancePreviewModule -->
<g id="node9" class="node">
<title>AvatarAppearancePreviewModule</title>
<polygon fill="#8dd3c7" stroke="black" points="470.35,-84.8 467.35,-88.8 446.35,-88.8 443.35,-84.8 259.65,-84.8 259.65,-48.8 470.35,-48.8 470.35,-84.8"/>
<text text-anchor="middle" x="365" y="-62.6" font-family="Times,serif" font-size="14.00">AvatarAppearancePreviewModule</text>
</g>
<!-- AvatarAppearancePreviewModule&#45;&gt;AvatarAppearanceEditorModule -->
<g id="edge8" class="edge">
<title>AvatarAppearancePreviewModule&#45;&gt;AvatarAppearanceEditorModule</title>
<path fill="none" stroke="black" d="M365,-84.93C365,-105.37 365,-135.8 365,-135.8 365,-135.8 973.17,-135.8 973.17,-135.8"/>
<polygon fill="black" stroke="black" points="973.17,-139.3 983.17,-135.8 973.17,-132.3 973.17,-139.3"/>
</g>
<!-- AvatarAppearanceProvidersModule -->
<g id="node10" class="node">
<title>AvatarAppearanceProvidersModule</title>
<polygon fill="#8dd3c7" stroke="black" points="242.13,-84.8 239.13,-88.8 218.13,-88.8 215.13,-84.8 23.87,-84.8 23.87,-48.8 242.13,-48.8 242.13,-84.8"/>
<text text-anchor="middle" x="133" y="-62.6" font-family="Times,serif" font-size="14.00">AvatarAppearanceProvidersModule</text>
</g>
<!-- AvatarAppearanceProvidersModule&#45;&gt;AvatarAppearanceEditorModule -->
<g id="edge9" class="edge">
<title>AvatarAppearanceProvidersModule&#45;&gt;AvatarAppearanceEditorModule</title>
<path fill="none" stroke="black" d="M133,-84.81C133,-107.29 133,-142.8 133,-142.8 133,-142.8 973.13,-142.8 973.13,-142.8"/>
<polygon fill="black" stroke="black" points="973.13,-146.3 983.13,-142.8 973.13,-139.3 973.13,-146.3"/>
</g>
</g>
</svg>
