<?xml version="1.0" encoding="UTF-8" standalone="no"?>
<!DOCTYPE svg PUBLIC "-//W3C//DTD SVG 1.1//EN"
 "http://www.w3.org/Graphics/SVG/1.1/DTD/svg11.dtd">
<!-- Generated by graphviz version 2.47.3 (20210619.1520)
 -->
<!-- Title: dependencies Pages: 1 -->
<svg width="588pt" height="174pt"
 viewBox="0.00 0.00 588.00 173.80" xmlns="http://www.w3.org/2000/svg" xmlns:xlink="http://www.w3.org/1999/xlink">
<g id="graph0" class="graph" transform="scale(1 1) rotate(0) translate(4 169.8)">
<title>dependencies</title>
<polygon fill="white" stroke="transparent" points="-4,4 -4,-169.8 584,-169.8 584,4 -4,4"/>
<text text-anchor="middle" x="290" y="-8.2" font-family="sans-serif" font-size="14.00">dependencies</text>
<g id="clust1" class="cluster">
<title>cluster_AvatarDialogModule</title>
<polygon fill="none" stroke="black" stroke-dasharray="1,5" points="8,-32.8 8,-157.8 572,-157.8 572,-32.8 8,-32.8"/>
</g>
<g id="clust2" class="cluster">
<title>cluster_AvatarDialogModule_declarations</title>
<polygon fill="none" stroke="black" points="246,-40.8 246,-92.8 564,-92.8 564,-40.8 246,-40.8"/>
</g>
<g id="clust5" class="cluster">
<title>cluster_AvatarDialogModule_imports</title>
<polygon fill="none" stroke="black" points="16,-40.8 16,-92.8 238,-92.8 238,-40.8 16,-40.8"/>
</g>
<!-- AvatarDialogComponent -->
<g id="node1" class="node">
<title>AvatarDialogComponent</title>
<polygon fill="#ffffb3" stroke="black" points="555.52,-84.8 398.48,-84.8 398.48,-48.8 555.52,-48.8 555.52,-84.8"/>
<text text-anchor="middle" x="477" y="-62.6" font-family="Times,serif" font-size="14.00">AvatarDialogComponent</text>
</g>
<!-- AvatarDialogModule -->
<g id="node3" class="node">
<title>AvatarDialogModule</title>
<polygon fill="#8dd3c7" stroke="black" points="384.74,-149.8 381.74,-153.8 360.74,-153.8 357.74,-149.8 249.26,-149.8 249.26,-113.8 384.74,-113.8 384.74,-149.8"/>
<text text-anchor="middle" x="317" y="-127.6" font-family="Times,serif" font-size="14.00">AvatarDialogModule</text>
</g>
<!-- AvatarDialogComponent&#45;&gt;AvatarDialogModule -->
<g id="edge1" class="edge">
<title>AvatarDialogComponent&#45;&gt;AvatarDialogModule</title>
<path fill="none" stroke="black" d="M477,-84.91C477,-104.14 477,-131.8 477,-131.8 477,-131.8 394.85,-131.8 394.85,-131.8"/>
<polygon fill="black" stroke="black" points="394.85,-128.3 384.85,-131.8 394.85,-135.3 394.85,-128.3"/>
</g>
<!-- AvatarDialogScene -->
<g id="node2" class="node">
<title>AvatarDialogScene</title>
<polygon fill="#ffffb3" stroke="black" points="379.62,-84.8 254.38,-84.8 254.38,-48.8 379.62,-48.8 379.62,-84.8"/>
<text text-anchor="middle" x="317" y="-62.6" font-family="Times,serif" font-size="14.00">AvatarDialogScene</text>
</g>
<!-- AvatarDialogScene&#45;&gt;AvatarDialogModule -->
<g id="edge2" class="edge">
<title>AvatarDialogScene&#45;&gt;AvatarDialogModule</title>
<path fill="none" stroke="black" d="M317,-84.91C317,-84.91 317,-103.79 317,-103.79"/>
<polygon fill="black" stroke="black" points="313.5,-103.79 317,-113.79 320.5,-103.79 313.5,-103.79"/>
</g>
<!-- AvatarAppearancePortraitModule -->
<g id="node4" class="node">
<title>AvatarAppearancePortraitModule</title>
<polygon fill="#8dd3c7" stroke="black" points="230.47,-84.8 227.47,-88.8 206.47,-88.8 203.47,-84.8 23.53,-84.8 23.53,-48.8 230.47,-48.8 230.47,-84.8"/>
<text text-anchor="middle" x="127" y="-62.6" font-family="Times,serif" font-size="14.00">AvatarAppearancePortraitModule</text>
</g>
<!-- AvatarAppearancePortraitModule&#45;&gt;AvatarDialogModule -->
<g id="edge3" class="edge">
<title>AvatarAppearancePortraitModule&#45;&gt;AvatarDialogModule</title>
<path fill="none" stroke="black" d="M127,-84.91C127,-104.14 127,-131.8 127,-131.8 127,-131.8 239.21,-131.8 239.21,-131.8"/>
<polygon fill="black" stroke="black" points="239.21,-135.3 249.21,-131.8 239.21,-128.3 239.21,-135.3"/>
</g>
</g>
</svg>
