<?xml version="1.0" encoding="UTF-8" standalone="no"?>
<!DOCTYPE svg PUBLIC "-//W3C//DTD SVG 1.1//EN"
 "http://www.w3.org/Graphics/SVG/1.1/DTD/svg11.dtd">
<!-- Generated by graphviz version 2.47.3 (20210619.1520)
 -->
<!-- Title: dependencies Pages: 1 -->
<svg width="617pt" height="174pt"
 viewBox="0.00 0.00 617.00 173.80" xmlns="http://www.w3.org/2000/svg" xmlns:xlink="http://www.w3.org/1999/xlink">
<g id="graph0" class="graph" transform="scale(1 1) rotate(0) translate(4 169.8)">
<title>dependencies</title>
<polygon fill="white" stroke="transparent" points="-4,4 -4,-169.8 613,-169.8 613,4 -4,4"/>
<text text-anchor="middle" x="304.5" y="-8.2" font-family="sans-serif" font-size="14.00">dependencies</text>
<g id="clust1" class="cluster">
<title>cluster_CreateAvatarModule</title>
<polygon fill="none" stroke="black" stroke-dasharray="1,5" points="8,-32.8 8,-157.8 601,-157.8 601,-32.8 8,-32.8"/>
</g>
<g id="clust4" class="cluster">
<title>cluster_CreateAvatarModule_imports</title>
<polygon fill="none" stroke="black" points="164,-40.8 164,-92.8 593,-92.8 593,-40.8 164,-40.8"/>
</g>
<g id="clust2" class="cluster">
<title>cluster_CreateAvatarModule_declarations</title>
<polygon fill="none" stroke="black" points="16,-40.8 16,-92.8 156,-92.8 156,-40.8 16,-40.8"/>
</g>
<!-- CreateAvatarScene -->
<g id="node1" class="node">
<title>CreateAvatarScene</title>
<polygon fill="#ffffb3" stroke="black" points="148.05,-84.8 23.95,-84.8 23.95,-48.8 148.05,-48.8 148.05,-84.8"/>
<text text-anchor="middle" x="86" y="-62.6" font-family="Times,serif" font-size="14.00">CreateAvatarScene</text>
</g>
<!-- CreateAvatarModule -->
<g id="node2" class="node">
<title>CreateAvatarModule</title>
<polygon fill="#8dd3c7" stroke="black" points="347.17,-149.8 344.17,-153.8 323.17,-153.8 320.17,-149.8 212.83,-149.8 212.83,-113.8 347.17,-113.8 347.17,-149.8"/>
<text text-anchor="middle" x="280" y="-127.6" font-family="Times,serif" font-size="14.00">CreateAvatarModule</text>
</g>
<!-- CreateAvatarScene&#45;&gt;CreateAvatarModule -->
<g id="edge1" class="edge">
<title>CreateAvatarScene&#45;&gt;CreateAvatarModule</title>
<path fill="none" stroke="black" d="M86,-84.91C86,-104.14 86,-131.8 86,-131.8 86,-131.8 202.69,-131.8 202.69,-131.8"/>
<polygon fill="black" stroke="black" points="202.69,-135.3 212.69,-131.8 202.69,-128.3 202.69,-135.3"/>
</g>
<!-- CreateAvatarRoutingModule -->
<g id="node3" class="node">
<title>CreateAvatarRoutingModule</title>
<polygon fill="#8dd3c7" stroke="black" points="584.79,-84.8 581.79,-88.8 560.79,-88.8 557.79,-84.8 405.21,-84.8 405.21,-48.8 584.79,-48.8 584.79,-84.8"/>
<text text-anchor="middle" x="495" y="-62.6" font-family="Times,serif" font-size="14.00">CreateAvatarRoutingModule</text>
</g>
<!-- CreateAvatarRoutingModule&#45;&gt;CreateAvatarModule -->
<g id="edge2" class="edge">
<title>CreateAvatarRoutingModule&#45;&gt;CreateAvatarModule</title>
<path fill="none" stroke="black" d="M495,-84.91C495,-104.14 495,-131.8 495,-131.8 495,-131.8 357.14,-131.8 357.14,-131.8"/>
<polygon fill="black" stroke="black" points="357.14,-128.3 347.14,-131.8 357.14,-135.3 357.14,-128.3"/>
</g>
<!-- ManageAvatarAppearancesModule -->
<g id="node4" class="node">
<title>ManageAvatarAppearancesModule</title>
<polygon fill="#8dd3c7" stroke="black" points="387.51,-84.8 384.51,-88.8 363.51,-88.8 360.51,-84.8 172.49,-84.8 172.49,-48.8 387.51,-48.8 387.51,-84.8"/>
<text text-anchor="middle" x="280" y="-62.6" font-family="Times,serif" font-size="14.00">ManageAvatarAppearancesModule</text>
</g>
<!-- ManageAvatarAppearancesModule&#45;&gt;CreateAvatarModule -->
<g id="edge3" class="edge">
<title>ManageAvatarAppearancesModule&#45;&gt;CreateAvatarModule</title>
<path fill="none" stroke="black" d="M280,-84.91C280,-84.91 280,-103.79 280,-103.79"/>
<polygon fill="black" stroke="black" points="276.5,-103.79 280,-113.79 283.5,-103.79 276.5,-103.79"/>
</g>
</g>
</svg>
