<?xml version="1.0" encoding="UTF-8" standalone="no"?>
<!DOCTYPE svg PUBLIC "-//W3C//DTD SVG 1.1//EN"
 "http://www.w3.org/Graphics/SVG/1.1/DTD/svg11.dtd">
<!-- Generated by graphviz version 2.47.3 (20210619.1520)
 -->
<!-- Title: dependencies Pages: 1 -->
<svg width="942pt" height="247pt"
 viewBox="0.00 0.00 942.00 246.80" xmlns="http://www.w3.org/2000/svg" xmlns:xlink="http://www.w3.org/1999/xlink">
<g id="graph0" class="graph" transform="scale(1 1) rotate(0) translate(4 242.8)">
<title>dependencies</title>
<polygon fill="white" stroke="transparent" points="-4,4 -4,-242.8 938,-242.8 938,4 -4,4"/>
<text text-anchor="middle" x="467" y="-8.2" font-family="sans-serif" font-size="14.00">dependencies</text>
<g id="clust1" class="cluster">
<title>cluster_DashboardModule</title>
<polygon fill="none" stroke="black" stroke-dasharray="1,5" points="8,-32.8 8,-157.8 340,-157.8 340,-32.8 8,-32.8"/>
</g>
<g id="clust2" class="cluster">
<title>cluster_DashboardModule_declarations</title>
<polygon fill="none" stroke="black" points="206,-40.8 206,-92.8 332,-92.8 332,-40.8 206,-40.8"/>
</g>
<g id="clust4" class="cluster">
<title>cluster_DashboardModule_imports</title>
<polygon fill="none" stroke="black" points="16,-40.8 16,-92.8 198,-92.8 198,-40.8 16,-40.8"/>
</g>
<g id="clust14" class="cluster">
<title>cluster_PortalModule</title>
<polygon fill="none" stroke="black" stroke-dasharray="1,5" points="348,-32.8 348,-230.8 618,-230.8 618,-32.8 348,-32.8"/>
</g>
<g id="clust15" class="cluster">
<title>cluster_PortalModule_declarations</title>
<polygon fill="none" stroke="black" points="518,-40.8 518,-92.8 610,-92.8 610,-40.8 518,-40.8"/>
</g>
<g id="clust17" class="cluster">
<title>cluster_PortalModule_imports</title>
<polygon fill="none" stroke="black" points="356,-40.8 356,-92.8 510,-92.8 510,-40.8 356,-40.8"/>
</g>
<g id="clust19" class="cluster">
<title>cluster_PortalModule_bootstrap</title>
<polygon fill="none" stroke="black" points="449,-170.8 449,-222.8 545,-222.8 545,-170.8 449,-170.8"/>
</g>
<g id="clust27" class="cluster">
<title>cluster_SettingsModule</title>
<polygon fill="none" stroke="black" stroke-dasharray="1,5" points="626,-32.8 626,-157.8 926,-157.8 926,-32.8 626,-32.8"/>
</g>
<g id="clust28" class="cluster">
<title>cluster_SettingsModule_declarations</title>
<polygon fill="none" stroke="black" points="808,-40.8 808,-92.8 918,-92.8 918,-40.8 808,-40.8"/>
</g>
<g id="clust30" class="cluster">
<title>cluster_SettingsModule_imports</title>
<polygon fill="none" stroke="black" points="634,-40.8 634,-92.8 800,-92.8 800,-40.8 634,-40.8"/>
</g>
<!-- DashboardScene -->
<g id="node1" class="node">
<title>DashboardScene</title>
<polygon fill="#ffffb3" stroke="black" points="324.07,-84.8 213.93,-84.8 213.93,-48.8 324.07,-48.8 324.07,-84.8"/>
<text text-anchor="middle" x="269" y="-62.6" font-family="Times,serif" font-size="14.00">DashboardScene</text>
</g>
<!-- DashboardModule -->
<g id="node2" class="node">
<title>DashboardModule</title>
<polygon fill="#8dd3c7" stroke="black" points="248.19,-149.8 245.19,-153.8 224.19,-153.8 221.19,-149.8 127.81,-149.8 127.81,-113.8 248.19,-113.8 248.19,-149.8"/>
<text text-anchor="middle" x="188" y="-127.6" font-family="Times,serif" font-size="14.00">DashboardModule</text>
</g>
<!-- DashboardScene&#45;&gt;DashboardModule -->
<g id="edge1" class="edge">
<title>DashboardScene&#45;&gt;DashboardModule</title>
<path fill="none" stroke="black" d="M231.03,-84.91C231.03,-84.91 231.03,-103.79 231.03,-103.79"/>
<polygon fill="black" stroke="black" points="227.53,-103.79 231.03,-113.79 234.53,-103.79 227.53,-103.79"/>
</g>
<!-- DashboardRoutingModule -->
<g id="node3" class="node">
<title>DashboardRoutingModule</title>
<polygon fill="#8dd3c7" stroke="black" points="189.81,-84.8 186.81,-88.8 165.81,-88.8 162.81,-84.8 24.19,-84.8 24.19,-48.8 189.81,-48.8 189.81,-84.8"/>
<text text-anchor="middle" x="107" y="-62.6" font-family="Times,serif" font-size="14.00">DashboardRoutingModule</text>
</g>
<!-- DashboardRoutingModule&#45;&gt;DashboardModule -->
<g id="edge2" class="edge">
<title>DashboardRoutingModule&#45;&gt;DashboardModule</title>
<path fill="none" stroke="black" d="M158.78,-84.91C158.78,-84.91 158.78,-103.79 158.78,-103.79"/>
<polygon fill="black" stroke="black" points="155.28,-103.79 158.78,-113.79 162.28,-103.79 155.28,-103.79"/>
</g>
<!-- PortalRoot -->
<g id="node4" class="node">
<title>PortalRoot</title>
<polygon fill="#ffffb3" stroke="black" points="602.17,-84.8 525.83,-84.8 525.83,-48.8 602.17,-48.8 602.17,-84.8"/>
<text text-anchor="middle" x="564" y="-62.6" font-family="Times,serif" font-size="14.00">PortalRoot</text>
</g>
<!-- PortalModule -->
<g id="node5" class="node">
<title>PortalModule</title>
<polygon fill="#8dd3c7" stroke="black" points="543.49,-149.8 540.49,-153.8 519.49,-153.8 516.49,-149.8 450.51,-149.8 450.51,-113.8 543.49,-113.8 543.49,-149.8"/>
<text text-anchor="middle" x="497" y="-127.6" font-family="Times,serif" font-size="14.00">PortalModule</text>
</g>
<!-- PortalRoot&#45;&gt;PortalModule -->
<g id="edge3" class="edge">
<title>PortalRoot&#45;&gt;PortalModule</title>
<path fill="none" stroke="black" d="M534.58,-84.91C534.58,-84.91 534.58,-103.79 534.58,-103.79"/>
<polygon fill="black" stroke="black" points="531.08,-103.79 534.58,-113.79 538.08,-103.79 531.08,-103.79"/>
</g>
<!-- PortalRoot  -->
<g id="node7" class="node">
<title>PortalRoot </title>
<polygon fill="#80b1d3" stroke="black" points="537.17,-214.8 456.83,-214.8 456.83,-178.8 537.17,-178.8 537.17,-214.8"/>
<text text-anchor="middle" x="497" y="-192.6" font-family="Times,serif" font-size="14.00">PortalRoot </text>
</g>
<!-- PortalModule&#45;&gt;PortalRoot  -->
<g id="edge5" class="edge">
<title>PortalModule&#45;&gt;PortalRoot </title>
<path fill="none" stroke="black" stroke-dasharray="1,5" d="M497,-149.91C497,-149.91 497,-168.79 497,-168.79"/>
<polygon fill="black" stroke="black" points="493.5,-168.79 497,-178.79 500.5,-168.79 493.5,-168.79"/>
</g>
<!-- PortalRoutingModule -->
<g id="node6" class="node">
<title>PortalRoutingModule</title>
<polygon fill="#8dd3c7" stroke="black" points="502.11,-84.8 499.11,-88.8 478.11,-88.8 475.11,-84.8 363.89,-84.8 363.89,-48.8 502.11,-48.8 502.11,-84.8"/>
<text text-anchor="middle" x="433" y="-62.6" font-family="Times,serif" font-size="14.00">PortalRoutingModule</text>
</g>
<!-- PortalRoutingModule&#45;&gt;PortalModule -->
<g id="edge4" class="edge">
<title>PortalRoutingModule&#45;&gt;PortalModule</title>
<path fill="none" stroke="black" d="M476.28,-84.91C476.28,-84.91 476.28,-103.79 476.28,-103.79"/>
<polygon fill="black" stroke="black" points="472.78,-103.79 476.28,-113.79 479.78,-103.79 472.78,-103.79"/>
</g>
<!-- SettingsScene -->
<g id="node8" class="node">
<title>SettingsScene</title>
<polygon fill="#ffffb3" stroke="black" points="910.04,-84.8 815.96,-84.8 815.96,-48.8 910.04,-48.8 910.04,-84.8"/>
<text text-anchor="middle" x="863" y="-62.6" font-family="Times,serif" font-size="14.00">SettingsScene</text>
</g>
<!-- SettingsModule -->
<g id="node9" class="node">
<title>SettingsModule</title>
<polygon fill="#8dd3c7" stroke="black" points="842.16,-149.8 839.16,-153.8 818.16,-153.8 815.16,-149.8 737.84,-149.8 737.84,-113.8 842.16,-113.8 842.16,-149.8"/>
<text text-anchor="middle" x="790" y="-127.6" font-family="Times,serif" font-size="14.00">SettingsModule</text>
</g>
<!-- SettingsScene&#45;&gt;SettingsModule -->
<g id="edge6" class="edge">
<title>SettingsScene&#45;&gt;SettingsModule</title>
<path fill="none" stroke="black" d="M829.03,-84.91C829.03,-84.91 829.03,-103.79 829.03,-103.79"/>
<polygon fill="black" stroke="black" points="825.53,-103.79 829.03,-113.79 832.53,-103.79 825.53,-103.79"/>
</g>
<!-- SettingsRoutingModule -->
<g id="node10" class="node">
<title>SettingsRoutingModule</title>
<polygon fill="#8dd3c7" stroke="black" points="791.78,-84.8 788.78,-88.8 767.78,-88.8 764.78,-84.8 642.22,-84.8 642.22,-48.8 791.78,-48.8 791.78,-84.8"/>
<text text-anchor="middle" x="717" y="-62.6" font-family="Times,serif" font-size="14.00">SettingsRoutingModule</text>
</g>
<!-- SettingsRoutingModule&#45;&gt;SettingsModule -->
<g id="edge7" class="edge">
<title>SettingsRoutingModule&#45;&gt;SettingsModule</title>
<path fill="none" stroke="black" d="M764.78,-84.91C764.78,-84.91 764.78,-103.79 764.78,-103.79"/>
<polygon fill="black" stroke="black" points="761.28,-103.79 764.78,-113.79 768.28,-103.79 761.28,-103.79"/>
</g>
</g>
</svg>
