<?xml version="1.0" encoding="UTF-8" standalone="no"?>
<!DOCTYPE svg PUBLIC "-//W3C//DTD SVG 1.1//EN"
 "http://www.w3.org/Graphics/SVG/1.1/DTD/svg11.dtd">
<!-- Generated by graphviz version 2.47.3 (20210619.1520)
 -->
<!-- Title: dependencies Pages: 1 -->
<svg width="378pt" height="247pt"
 viewBox="0.00 0.00 378.00 246.80" xmlns="http://www.w3.org/2000/svg" xmlns:xlink="http://www.w3.org/1999/xlink">
<g id="graph0" class="graph" transform="scale(1 1) rotate(0) translate(4 242.8)">
<title>dependencies</title>
<polygon fill="white" stroke="transparent" points="-4,4 -4,-242.8 374,-242.8 374,4 -4,4"/>
<text text-anchor="middle" x="185" y="-8.2" font-family="sans-serif" font-size="14.00">dependencies</text>
<g id="clust1" class="cluster">
<title>cluster_AvatarsListModule</title>
<polygon fill="none" stroke="black" stroke-dasharray="1,5" points="8,-32.8 8,-230.8 362,-230.8 362,-32.8 8,-32.8"/>
</g>
<g id="clust2" class="cluster">
<title>cluster_AvatarsListModule_declarations</title>
<polygon fill="none" stroke="black" points="192,-40.8 192,-92.8 354,-92.8 354,-40.8 192,-40.8"/>
</g>
<g id="clust5" class="cluster">
<title>cluster_AvatarsListModule_exports</title>
<polygon fill="none" stroke="black" points="102,-170.8 102,-222.8 268,-222.8 268,-170.8 102,-170.8"/>
</g>
<g id="clust4" class="cluster">
<title>cluster_AvatarsListModule_imports</title>
<polygon fill="none" stroke="black" points="16,-40.8 16,-92.8 184,-92.8 184,-40.8 16,-40.8"/>
</g>
<!-- AvatarsListComponent -->
<g id="node1" class="node">
<title>AvatarsListComponent</title>
<polygon fill="#ffffb3" stroke="black" points="346.14,-84.8 199.86,-84.8 199.86,-48.8 346.14,-48.8 346.14,-84.8"/>
<text text-anchor="middle" x="273" y="-62.6" font-family="Times,serif" font-size="14.00">AvatarsListComponent</text>
</g>
<!-- AvatarsListModule -->
<g id="node2" class="node">
<title>AvatarsListModule</title>
<polygon fill="#8dd3c7" stroke="black" points="247.36,-149.8 244.36,-153.8 223.36,-153.8 220.36,-149.8 122.64,-149.8 122.64,-113.8 247.36,-113.8 247.36,-149.8"/>
<text text-anchor="middle" x="185" y="-127.6" font-family="Times,serif" font-size="14.00">AvatarsListModule</text>
</g>
<!-- AvatarsListComponent&#45;&gt;AvatarsListModule -->
<g id="edge1" class="edge">
<title>AvatarsListComponent&#45;&gt;AvatarsListModule</title>
<path fill="none" stroke="black" d="M223.55,-84.91C223.55,-84.91 223.55,-103.79 223.55,-103.79"/>
<polygon fill="black" stroke="black" points="220.05,-103.79 223.55,-113.79 227.05,-103.79 220.05,-103.79"/>
</g>
<!-- AvatarsListComponent  -->
<g id="node4" class="node">
<title>AvatarsListComponent </title>
<polygon fill="#fb8072" stroke="black" points="260.14,-214.8 109.86,-214.8 109.86,-178.8 260.14,-178.8 260.14,-214.8"/>
<text text-anchor="middle" x="185" y="-192.6" font-family="Times,serif" font-size="14.00">AvatarsListComponent </text>
</g>
<!-- AvatarsListModule&#45;&gt;AvatarsListComponent  -->
<g id="edge3" class="edge">
<title>AvatarsListModule&#45;&gt;AvatarsListComponent </title>
<path fill="none" stroke="black" stroke-dasharray="5,2" d="M185,-149.91C185,-149.91 185,-168.79 185,-168.79"/>
<polygon fill="black" stroke="black" points="181.5,-168.79 185,-178.79 188.5,-168.79 181.5,-168.79"/>
</g>
<!-- AvatarsCarouselModule -->
<g id="node3" class="node">
<title>AvatarsCarouselModule</title>
<polygon fill="#8dd3c7" stroke="black" points="176.34,-84.8 173.34,-88.8 152.34,-88.8 149.34,-84.8 23.66,-84.8 23.66,-48.8 176.34,-48.8 176.34,-84.8"/>
<text text-anchor="middle" x="100" y="-62.6" font-family="Times,serif" font-size="14.00">AvatarsCarouselModule</text>
</g>
<!-- AvatarsCarouselModule&#45;&gt;AvatarsListModule -->
<g id="edge2" class="edge">
<title>AvatarsCarouselModule&#45;&gt;AvatarsListModule</title>
<path fill="none" stroke="black" d="M149.5,-84.91C149.5,-84.91 149.5,-103.79 149.5,-103.79"/>
<polygon fill="black" stroke="black" points="146,-103.79 149.5,-113.79 153,-103.79 146,-103.79"/>
</g>
</g>
</svg>
