<?xml version="1.0" encoding="UTF-8" standalone="no"?>
<!DOCTYPE svg PUBLIC "-//W3C//DTD SVG 1.1//EN"
 "http://www.w3.org/Graphics/SVG/1.1/DTD/svg11.dtd">
<!-- Generated by graphviz version 2.47.3 (20210619.1520)
 -->
<!-- Title: dependencies Pages: 1 -->
<svg width="438pt" height="247pt"
 viewBox="0.00 0.00 438.00 246.80" xmlns="http://www.w3.org/2000/svg" xmlns:xlink="http://www.w3.org/1999/xlink">
<g id="graph0" class="graph" transform="scale(1 1) rotate(0) translate(4 242.8)">
<title>dependencies</title>
<polygon fill="white" stroke="transparent" points="-4,4 -4,-242.8 434,-242.8 434,4 -4,4"/>
<text text-anchor="middle" x="215" y="-8.2" font-family="sans-serif" font-size="14.00">dependencies</text>
<g id="clust1" class="cluster">
<title>cluster_ApplicationViewModule</title>
<polygon fill="none" stroke="black" stroke-dasharray="1,5" points="8,-32.8 8,-230.8 422,-230.8 422,-32.8 8,-32.8"/>
</g>
<g id="clust2" class="cluster">
<title>cluster_ApplicationViewModule_declarations</title>
<polygon fill="none" stroke="black" points="220,-40.8 220,-92.8 414,-92.8 414,-40.8 220,-40.8"/>
</g>
<g id="clust5" class="cluster">
<title>cluster_ApplicationViewModule_exports</title>
<polygon fill="none" stroke="black" points="116,-170.8 116,-222.8 314,-222.8 314,-170.8 116,-170.8"/>
</g>
<g id="clust4" class="cluster">
<title>cluster_ApplicationViewModule_imports</title>
<polygon fill="none" stroke="black" points="16,-40.8 16,-92.8 212,-92.8 212,-40.8 16,-40.8"/>
</g>
<!-- ApplicationViewComponent -->
<g id="node1" class="node">
<title>ApplicationViewComponent</title>
<polygon fill="#ffffb3" stroke="black" points="405.75,-84.8 228.25,-84.8 228.25,-48.8 405.75,-48.8 405.75,-84.8"/>
<text text-anchor="middle" x="317" y="-62.6" font-family="Times,serif" font-size="14.00">ApplicationViewComponent</text>
</g>
<!-- ApplicationViewModule -->
<g id="node2" class="node">
<title>ApplicationViewModule</title>
<polygon fill="#8dd3c7" stroke="black" points="292.97,-149.8 289.97,-153.8 268.97,-153.8 265.97,-149.8 137.03,-149.8 137.03,-113.8 292.97,-113.8 292.97,-149.8"/>
<text text-anchor="middle" x="215" y="-127.6" font-family="Times,serif" font-size="14.00">ApplicationViewModule</text>
</g>
<!-- ApplicationViewComponent&#45;&gt;ApplicationViewModule -->
<g id="edge1" class="edge">
<title>ApplicationViewComponent&#45;&gt;ApplicationViewModule</title>
<path fill="none" stroke="black" d="M260.55,-84.91C260.55,-84.91 260.55,-103.79 260.55,-103.79"/>
<polygon fill="black" stroke="black" points="257.05,-103.79 260.55,-113.79 264.05,-103.79 257.05,-103.79"/>
</g>
<!-- ApplicationViewComponent  -->
<g id="node4" class="node">
<title>ApplicationViewComponent </title>
<polygon fill="#fb8072" stroke="black" points="305.75,-214.8 124.25,-214.8 124.25,-178.8 305.75,-178.8 305.75,-214.8"/>
<text text-anchor="middle" x="215" y="-192.6" font-family="Times,serif" font-size="14.00">ApplicationViewComponent </text>
</g>
<!-- ApplicationViewModule&#45;&gt;ApplicationViewComponent  -->
<g id="edge3" class="edge">
<title>ApplicationViewModule&#45;&gt;ApplicationViewComponent </title>
<path fill="none" stroke="black" stroke-dasharray="5,2" d="M215,-149.91C215,-149.91 215,-168.79 215,-168.79"/>
<polygon fill="black" stroke="black" points="211.5,-168.79 215,-178.79 218.5,-168.79 211.5,-168.79"/>
</g>
<!-- ApplicationWebviewModule -->
<g id="node3" class="node">
<title>ApplicationWebviewModule</title>
<polygon fill="#8dd3c7" stroke="black" points="203.79,-84.8 200.79,-88.8 179.79,-88.8 176.79,-84.8 24.21,-84.8 24.21,-48.8 203.79,-48.8 203.79,-84.8"/>
<text text-anchor="middle" x="114" y="-62.6" font-family="Times,serif" font-size="14.00">ApplicationWebviewModule</text>
</g>
<!-- ApplicationWebviewModule&#45;&gt;ApplicationViewModule -->
<g id="edge2" class="edge">
<title>ApplicationWebviewModule&#45;&gt;ApplicationViewModule</title>
<path fill="none" stroke="black" d="M170.33,-84.91C170.33,-84.91 170.33,-103.79 170.33,-103.79"/>
<polygon fill="black" stroke="black" points="166.83,-103.79 170.33,-113.79 173.83,-103.79 166.83,-103.79"/>
</g>
</g>
</svg>
