<?xml version="1.0" encoding="UTF-8" standalone="no"?>
<!DOCTYPE svg PUBLIC "-//W3C//DTD SVG 1.1//EN"
 "http://www.w3.org/Graphics/SVG/1.1/DTD/svg11.dtd">
<!-- Generated by graphviz version 2.47.3 (20210619.1520)
 -->
<!-- Title: dependencies Pages: 1 -->
<svg width="434pt" height="247pt"
 viewBox="0.00 0.00 434.00 246.80" xmlns="http://www.w3.org/2000/svg" xmlns:xlink="http://www.w3.org/1999/xlink">
<g id="graph0" class="graph" transform="scale(1 1) rotate(0) translate(4 242.8)">
<title>dependencies</title>
<polygon fill="white" stroke="transparent" points="-4,4 -4,-242.8 430,-242.8 430,4 -4,4"/>
<text text-anchor="middle" x="213" y="-8.2" font-family="sans-serif" font-size="14.00">dependencies</text>
<g id="clust1" class="cluster">
<title>cluster_ApplicationsCarouselModule</title>
<polygon fill="none" stroke="black" stroke-dasharray="1,5" points="8,-32.8 8,-230.8 418,-230.8 418,-32.8 8,-32.8"/>
</g>
<g id="clust5" class="cluster">
<title>cluster_ApplicationsCarouselModule_exports</title>
<polygon fill="none" stroke="black" points="102,-170.8 102,-222.8 324,-222.8 324,-170.8 102,-170.8"/>
</g>
<g id="clust4" class="cluster">
<title>cluster_ApplicationsCarouselModule_imports</title>
<polygon fill="none" stroke="black" points="242,-40.8 242,-92.8 410,-92.8 410,-40.8 242,-40.8"/>
</g>
<g id="clust2" class="cluster">
<title>cluster_ApplicationsCarouselModule_declarations</title>
<polygon fill="none" stroke="black" points="16,-40.8 16,-92.8 234,-92.8 234,-40.8 16,-40.8"/>
</g>
<!-- ApplicationsCarouselComponent -->
<g id="node1" class="node">
<title>ApplicationsCarouselComponent</title>
<polygon fill="#ffffb3" stroke="black" points="226.14,-84.8 23.86,-84.8 23.86,-48.8 226.14,-48.8 226.14,-84.8"/>
<text text-anchor="middle" x="125" y="-62.6" font-family="Times,serif" font-size="14.00">ApplicationsCarouselComponent</text>
</g>
<!-- ApplicationsCarouselModule -->
<g id="node2" class="node">
<title>ApplicationsCarouselModule</title>
<polygon fill="#8dd3c7" stroke="black" points="303.35,-149.8 300.35,-153.8 279.35,-153.8 276.35,-149.8 122.65,-149.8 122.65,-113.8 303.35,-113.8 303.35,-149.8"/>
<text text-anchor="middle" x="213" y="-127.6" font-family="Times,serif" font-size="14.00">ApplicationsCarouselModule</text>
</g>
<!-- ApplicationsCarouselComponent&#45;&gt;ApplicationsCarouselModule -->
<g id="edge1" class="edge">
<title>ApplicationsCarouselComponent&#45;&gt;ApplicationsCarouselModule</title>
<path fill="none" stroke="black" d="M174.45,-84.91C174.45,-84.91 174.45,-103.79 174.45,-103.79"/>
<polygon fill="black" stroke="black" points="170.95,-103.79 174.45,-113.79 177.95,-103.79 170.95,-103.79"/>
</g>
<!-- ApplicationsCarouselComponent  -->
<g id="node4" class="node">
<title>ApplicationsCarouselComponent </title>
<polygon fill="#fb8072" stroke="black" points="316.14,-214.8 109.86,-214.8 109.86,-178.8 316.14,-178.8 316.14,-214.8"/>
<text text-anchor="middle" x="213" y="-192.6" font-family="Times,serif" font-size="14.00">ApplicationsCarouselComponent </text>
</g>
<!-- ApplicationsCarouselModule&#45;&gt;ApplicationsCarouselComponent  -->
<g id="edge3" class="edge">
<title>ApplicationsCarouselModule&#45;&gt;ApplicationsCarouselComponent </title>
<path fill="none" stroke="black" stroke-dasharray="5,2" d="M213,-149.91C213,-149.91 213,-168.79 213,-168.79"/>
<polygon fill="black" stroke="black" points="209.5,-168.79 213,-178.79 216.5,-168.79 209.5,-168.79"/>
</g>
<!-- ApplicationCardModule -->
<g id="node3" class="node">
<title>ApplicationCardModule</title>
<polygon fill="#8dd3c7" stroke="black" points="402.36,-84.8 399.36,-88.8 378.36,-88.8 375.36,-84.8 249.64,-84.8 249.64,-48.8 402.36,-48.8 402.36,-84.8"/>
<text text-anchor="middle" x="326" y="-62.6" font-family="Times,serif" font-size="14.00">ApplicationCardModule</text>
</g>
<!-- ApplicationCardModule&#45;&gt;ApplicationsCarouselModule -->
<g id="edge2" class="edge">
<title>ApplicationCardModule&#45;&gt;ApplicationsCarouselModule</title>
<path fill="none" stroke="black" d="M276.5,-84.91C276.5,-84.91 276.5,-103.79 276.5,-103.79"/>
<polygon fill="black" stroke="black" points="273,-103.79 276.5,-113.79 280,-103.79 273,-103.79"/>
</g>
</g>
</svg>
