<?xml version="1.0" encoding="UTF-8" standalone="no"?>
<!DOCTYPE svg PUBLIC "-//W3C//DTD SVG 1.1//EN"
 "http://www.w3.org/Graphics/SVG/1.1/DTD/svg11.dtd">
<!-- Generated by graphviz version 2.47.3 (20210619.1520)
 -->
<!-- Title: dependencies Pages: 1 -->
<svg width="738pt" height="247pt"
 viewBox="0.00 0.00 738.00 246.80" xmlns="http://www.w3.org/2000/svg" xmlns:xlink="http://www.w3.org/1999/xlink">
<g id="graph0" class="graph" transform="scale(1 1) rotate(0) translate(4 242.8)">
<title>dependencies</title>
<polygon fill="white" stroke="transparent" points="-4,4 -4,-242.8 734,-242.8 734,4 -4,4"/>
<text text-anchor="middle" x="365" y="-8.2" font-family="sans-serif" font-size="14.00">dependencies</text>
<g id="clust1" class="cluster">
<title>cluster_AvatarAppearancesCarouselModule</title>
<polygon fill="none" stroke="black" stroke-dasharray="1,5" points="8,-32.8 8,-230.8 722,-230.8 722,-32.8 8,-32.8"/>
</g>
<g id="clust4" class="cluster">
<title>cluster_AvatarAppearancesCarouselModule_imports</title>
<polygon fill="none" stroke="black" points="282,-40.8 282,-92.8 714,-92.8 714,-40.8 282,-40.8"/>
</g>
<g id="clust5" class="cluster">
<title>cluster_AvatarAppearancesCarouselModule_exports</title>
<polygon fill="none" stroke="black" points="263,-170.8 263,-222.8 523,-222.8 523,-170.8 263,-170.8"/>
</g>
<g id="clust2" class="cluster">
<title>cluster_AvatarAppearancesCarouselModule_declarations</title>
<polygon fill="none" stroke="black" points="16,-40.8 16,-92.8 274,-92.8 274,-40.8 16,-40.8"/>
</g>
<!-- AvatarAppearancesCarouselComponent -->
<g id="node1" class="node">
<title>AvatarAppearancesCarouselComponent</title>
<polygon fill="#ffffb3" stroke="black" points="265.97,-84.8 24.03,-84.8 24.03,-48.8 265.97,-48.8 265.97,-84.8"/>
<text text-anchor="middle" x="145" y="-62.6" font-family="Times,serif" font-size="14.00">AvatarAppearancesCarouselComponent</text>
</g>
<!-- AvatarAppearancesCarouselModule -->
<g id="node2" class="node">
<title>AvatarAppearancesCarouselModule</title>
<polygon fill="#8dd3c7" stroke="black" points="502.68,-149.8 499.68,-153.8 478.68,-153.8 475.68,-149.8 283.32,-149.8 283.32,-113.8 502.68,-113.8 502.68,-149.8"/>
<text text-anchor="middle" x="393" y="-127.6" font-family="Times,serif" font-size="14.00">AvatarAppearancesCarouselModule</text>
</g>
<!-- AvatarAppearancesCarouselComponent&#45;&gt;AvatarAppearancesCarouselModule -->
<g id="edge1" class="edge">
<title>AvatarAppearancesCarouselComponent&#45;&gt;AvatarAppearancesCarouselModule</title>
<path fill="none" stroke="black" d="M145,-84.91C145,-104.14 145,-131.8 145,-131.8 145,-131.8 273.14,-131.8 273.14,-131.8"/>
<polygon fill="black" stroke="black" points="273.14,-135.3 283.14,-131.8 273.14,-128.3 273.14,-135.3"/>
</g>
<!-- AvatarAppearancesCarouselComponent  -->
<g id="node5" class="node">
<title>AvatarAppearancesCarouselComponent </title>
<polygon fill="#fb8072" stroke="black" points="515.47,-214.8 270.53,-214.8 270.53,-178.8 515.47,-178.8 515.47,-214.8"/>
<text text-anchor="middle" x="393" y="-192.6" font-family="Times,serif" font-size="14.00">AvatarAppearancesCarouselComponent </text>
</g>
<!-- AvatarAppearancesCarouselModule&#45;&gt;AvatarAppearancesCarouselComponent  -->
<g id="edge4" class="edge">
<title>AvatarAppearancesCarouselModule&#45;&gt;AvatarAppearancesCarouselComponent </title>
<path fill="none" stroke="black" stroke-dasharray="5,2" d="M393,-149.91C393,-149.91 393,-168.79 393,-168.79"/>
<polygon fill="black" stroke="black" points="389.5,-168.79 393,-178.79 396.5,-168.79 389.5,-168.79"/>
</g>
<!-- AvatarAppearanceCardModule -->
<g id="node3" class="node">
<title>AvatarAppearanceCardModule</title>
<polygon fill="#8dd3c7" stroke="black" points="705.69,-84.8 702.69,-88.8 681.69,-88.8 678.69,-84.8 514.31,-84.8 514.31,-48.8 705.69,-48.8 705.69,-84.8"/>
<text text-anchor="middle" x="610" y="-62.6" font-family="Times,serif" font-size="14.00">AvatarAppearanceCardModule</text>
</g>
<!-- AvatarAppearanceCardModule&#45;&gt;AvatarAppearancesCarouselModule -->
<g id="edge2" class="edge">
<title>AvatarAppearanceCardModule&#45;&gt;AvatarAppearancesCarouselModule</title>
<path fill="none" stroke="black" d="M610.66,-84.91C610.66,-104.14 610.66,-131.8 610.66,-131.8 610.66,-131.8 512.79,-131.8 512.79,-131.8"/>
<polygon fill="black" stroke="black" points="512.79,-128.3 502.79,-131.8 512.79,-135.3 512.79,-128.3"/>
</g>
<!-- AvatarAppearancePortraitModule -->
<g id="node4" class="node">
<title>AvatarAppearancePortraitModule</title>
<polygon fill="#8dd3c7" stroke="black" points="496.47,-84.8 493.47,-88.8 472.47,-88.8 469.47,-84.8 289.53,-84.8 289.53,-48.8 496.47,-48.8 496.47,-84.8"/>
<text text-anchor="middle" x="393" y="-62.6" font-family="Times,serif" font-size="14.00">AvatarAppearancePortraitModule</text>
</g>
<!-- AvatarAppearancePortraitModule&#45;&gt;AvatarAppearancesCarouselModule -->
<g id="edge3" class="edge">
<title>AvatarAppearancePortraitModule&#45;&gt;AvatarAppearancesCarouselModule</title>
<path fill="none" stroke="black" d="M393,-84.91C393,-84.91 393,-103.79 393,-103.79"/>
<polygon fill="black" stroke="black" points="389.5,-103.79 393,-113.79 396.5,-103.79 389.5,-103.79"/>
</g>
</g>
</svg>
