<?xml version="1.0" encoding="UTF-8" standalone="no"?>
<!DOCTYPE svg PUBLIC "-//W3C//DTD SVG 1.1//EN"
 "http://www.w3.org/Graphics/SVG/1.1/DTD/svg11.dtd">
<!-- Generated by graphviz version 2.47.3 (20210619.1520)
 -->
<!-- Title: dependencies Pages: 1 -->
<svg width="514pt" height="247pt"
 viewBox="0.00 0.00 514.00 246.80" xmlns="http://www.w3.org/2000/svg" xmlns:xlink="http://www.w3.org/1999/xlink">
<g id="graph0" class="graph" transform="scale(1 1) rotate(0) translate(4 242.8)">
<title>dependencies</title>
<polygon fill="white" stroke="transparent" points="-4,4 -4,-242.8 510,-242.8 510,4 -4,4"/>
<text text-anchor="middle" x="253" y="-8.2" font-family="sans-serif" font-size="14.00">dependencies</text>
<g id="clust1" class="cluster">
<title>cluster_AvatarAppearancesCarouselModule</title>
<polygon fill="none" stroke="black" stroke-dasharray="1,5" points="8,-32.8 8,-230.8 498,-230.8 498,-32.8 8,-32.8"/>
</g>
<g id="clust4" class="cluster">
<title>cluster_AvatarAppearancesCarouselModule_imports</title>
<polygon fill="none" stroke="black" points="282,-40.8 282,-92.8 490,-92.8 490,-40.8 282,-40.8"/>
</g>
<g id="clust2" class="cluster">
<title>cluster_AvatarAppearancesCarouselModule_declarations</title>
<polygon fill="none" stroke="black" points="16,-40.8 16,-92.8 274,-92.8 274,-40.8 16,-40.8"/>
</g>
<g id="clust5" class="cluster">
<title>cluster_AvatarAppearancesCarouselModule_exports</title>
<polygon fill="none" stroke="black" points="123,-170.8 123,-222.8 383,-222.8 383,-170.8 123,-170.8"/>
</g>
<!-- AvatarAppearancesCarouselComponent -->
<g id="node1" class="node">
<title>AvatarAppearancesCarouselComponent</title>
<polygon fill="#ffffb3" stroke="black" points="265.97,-84.8 24.03,-84.8 24.03,-48.8 265.97,-48.8 265.97,-84.8"/>
<text text-anchor="middle" x="145" y="-62.6" font-family="Times,serif" font-size="14.00">AvatarAppearancesCarouselComponent</text>
</g>
<!-- AvatarAppearancesCarouselModule -->
<g id="node2" class="node">
<title>AvatarAppearancesCarouselModule</title>
<polygon fill="#8dd3c7" stroke="black" points="362.68,-149.8 359.68,-153.8 338.68,-153.8 335.68,-149.8 143.32,-149.8 143.32,-113.8 362.68,-113.8 362.68,-149.8"/>
<text text-anchor="middle" x="253" y="-127.6" font-family="Times,serif" font-size="14.00">AvatarAppearancesCarouselModule</text>
</g>
<!-- AvatarAppearancesCarouselComponent&#45;&gt;AvatarAppearancesCarouselModule -->
<g id="edge1" class="edge">
<title>AvatarAppearancesCarouselComponent&#45;&gt;AvatarAppearancesCarouselModule</title>
<path fill="none" stroke="black" d="M204.45,-84.91C204.45,-84.91 204.45,-103.79 204.45,-103.79"/>
<polygon fill="black" stroke="black" points="200.95,-103.79 204.45,-113.79 207.95,-103.79 200.95,-103.79"/>
</g>
<!-- AvatarAppearancesCarouselComponent  -->
<g id="node4" class="node">
<title>AvatarAppearancesCarouselComponent </title>
<polygon fill="#fb8072" stroke="black" points="375.47,-214.8 130.53,-214.8 130.53,-178.8 375.47,-178.8 375.47,-214.8"/>
<text text-anchor="middle" x="253" y="-192.6" font-family="Times,serif" font-size="14.00">AvatarAppearancesCarouselComponent </text>
</g>
<!-- AvatarAppearancesCarouselModule&#45;&gt;AvatarAppearancesCarouselComponent  -->
<g id="edge3" class="edge">
<title>AvatarAppearancesCarouselModule&#45;&gt;AvatarAppearancesCarouselComponent </title>
<path fill="none" stroke="black" stroke-dasharray="5,2" d="M253,-149.91C253,-149.91 253,-168.79 253,-168.79"/>
<polygon fill="black" stroke="black" points="249.5,-168.79 253,-178.79 256.5,-168.79 249.5,-168.79"/>
</g>
<!-- AvatarAppearanceCardModule -->
<g id="node3" class="node">
<title>AvatarAppearanceCardModule</title>
<polygon fill="#8dd3c7" stroke="black" points="481.69,-84.8 478.69,-88.8 457.69,-88.8 454.69,-84.8 290.31,-84.8 290.31,-48.8 481.69,-48.8 481.69,-84.8"/>
<text text-anchor="middle" x="386" y="-62.6" font-family="Times,serif" font-size="14.00">AvatarAppearanceCardModule</text>
</g>
<!-- AvatarAppearanceCardModule&#45;&gt;AvatarAppearancesCarouselModule -->
<g id="edge2" class="edge">
<title>AvatarAppearanceCardModule&#45;&gt;AvatarAppearancesCarouselModule</title>
<path fill="none" stroke="black" d="M326.5,-84.91C326.5,-84.91 326.5,-103.79 326.5,-103.79"/>
<polygon fill="black" stroke="black" points="323,-103.79 326.5,-113.79 330,-103.79 323,-103.79"/>
</g>
</g>
</svg>
