<?xml version="1.0" encoding="UTF-8" standalone="no"?>
<!DOCTYPE svg PUBLIC "-//W3C//DTD SVG 1.1//EN"
 "http://www.w3.org/Graphics/SVG/1.1/DTD/svg11.dtd">
<!-- Generated by graphviz version 2.47.3 (20210619.1520)
 -->
<!-- Title: dependencies Pages: 1 -->
<svg width="738pt" height="247pt"
 viewBox="0.00 0.00 738.00 246.80" xmlns="http://www.w3.org/2000/svg" xmlns:xlink="http://www.w3.org/1999/xlink">
<g id="graph0" class="graph" transform="scale(1 1) rotate(0) translate(4 242.8)">
<title>dependencies</title>
<polygon fill="white" stroke="transparent" points="-4,4 -4,-242.8 734,-242.8 734,4 -4,4"/>
<text text-anchor="middle" x="365" y="-8.2" font-family="sans-serif" font-size="14.00">dependencies</text>
<g id="clust1" class="cluster">
<title>cluster_AvatarAppearancesCarouselModule</title>
<polygon fill="none" stroke="black" stroke-dasharray="1,5" points="8,-32.8 8,-230.8 722,-230.8 722,-32.8 8,-32.8"/>
</g>
<g id="clust2" class="cluster">
<title>cluster_AvatarAppearancesCarouselModule_declarations</title>
<polygon fill="none" stroke="black" points="456,-40.8 456,-92.8 714,-92.8 714,-40.8 456,-40.8"/>
</g>
<g id="clust5" class="cluster">
<title>cluster_AvatarAppearancesCarouselModule_exports</title>
<polygon fill="none" stroke="black" points="214,-170.8 214,-222.8 474,-222.8 474,-170.8 214,-170.8"/>
</g>
<g id="clust4" class="cluster">
<title>cluster_AvatarAppearancesCarouselModule_imports</title>
<polygon fill="none" stroke="black" points="16,-40.8 16,-92.8 448,-92.8 448,-40.8 16,-40.8"/>
</g>
<!-- AvatarAppearancesCarouselComponent -->
<g id="node1" class="node">
<title>AvatarAppearancesCarouselComponent</title>
<polygon fill="#ffffb3" stroke="black" points="705.97,-84.8 464.03,-84.8 464.03,-48.8 705.97,-48.8 705.97,-84.8"/>
<text text-anchor="middle" x="585" y="-62.6" font-family="Times,serif" font-size="14.00">AvatarAppearancesCarouselComponent</text>
</g>
<!-- AvatarAppearancesCarouselModule -->
<g id="node2" class="node">
<title>AvatarAppearancesCarouselModule</title>
<polygon fill="#8dd3c7" stroke="black" points="453.68,-149.8 450.68,-153.8 429.68,-153.8 426.68,-149.8 234.32,-149.8 234.32,-113.8 453.68,-113.8 453.68,-149.8"/>
<text text-anchor="middle" x="344" y="-127.6" font-family="Times,serif" font-size="14.00">AvatarAppearancesCarouselModule</text>
</g>
<!-- AvatarAppearancesCarouselComponent&#45;&gt;AvatarAppearancesCarouselModule -->
<g id="edge1" class="edge">
<title>AvatarAppearancesCarouselComponent&#45;&gt;AvatarAppearancesCarouselModule</title>
<path fill="none" stroke="black" d="M464.06,-66.8C453.57,-66.8 446.84,-66.8 446.84,-66.8 446.84,-66.8 446.84,-103.69 446.84,-103.69"/>
<polygon fill="black" stroke="black" points="443.34,-103.69 446.84,-113.69 450.34,-103.69 443.34,-103.69"/>
</g>
<!-- AvatarAppearancesCarouselComponent  -->
<g id="node5" class="node">
<title>AvatarAppearancesCarouselComponent </title>
<polygon fill="#fb8072" stroke="black" points="466.47,-214.8 221.53,-214.8 221.53,-178.8 466.47,-178.8 466.47,-214.8"/>
<text text-anchor="middle" x="344" y="-192.6" font-family="Times,serif" font-size="14.00">AvatarAppearancesCarouselComponent </text>
</g>
<!-- AvatarAppearancesCarouselModule&#45;&gt;AvatarAppearancesCarouselComponent  -->
<g id="edge4" class="edge">
<title>AvatarAppearancesCarouselModule&#45;&gt;AvatarAppearancesCarouselComponent </title>
<path fill="none" stroke="black" stroke-dasharray="5,2" d="M344,-149.91C344,-149.91 344,-168.79 344,-168.79"/>
<polygon fill="black" stroke="black" points="340.5,-168.79 344,-178.79 347.5,-168.79 340.5,-168.79"/>
</g>
<!-- AvatarAppearanceCardModule -->
<g id="node3" class="node">
<title>AvatarAppearanceCardModule</title>
<polygon fill="#8dd3c7" stroke="black" points="439.69,-84.8 436.69,-88.8 415.69,-88.8 412.69,-84.8 248.31,-84.8 248.31,-48.8 439.69,-48.8 439.69,-84.8"/>
<text text-anchor="middle" x="344" y="-62.6" font-family="Times,serif" font-size="14.00">AvatarAppearanceCardModule</text>
</g>
<!-- AvatarAppearanceCardModule&#45;&gt;AvatarAppearancesCarouselModule -->
<g id="edge2" class="edge">
<title>AvatarAppearanceCardModule&#45;&gt;AvatarAppearancesCarouselModule</title>
<path fill="none" stroke="black" d="M344,-84.91C344,-84.91 344,-103.79 344,-103.79"/>
<polygon fill="black" stroke="black" points="340.5,-103.79 344,-113.79 347.5,-103.79 340.5,-103.79"/>
</g>
<!-- AvatarAppearancePortraitModule -->
<g id="node4" class="node">
<title>AvatarAppearancePortraitModule</title>
<polygon fill="#8dd3c7" stroke="black" points="230.47,-84.8 227.47,-88.8 206.47,-88.8 203.47,-84.8 23.53,-84.8 23.53,-48.8 230.47,-48.8 230.47,-84.8"/>
<text text-anchor="middle" x="127" y="-62.6" font-family="Times,serif" font-size="14.00">AvatarAppearancePortraitModule</text>
</g>
<!-- AvatarAppearancePortraitModule&#45;&gt;AvatarAppearancesCarouselModule -->
<g id="edge3" class="edge">
<title>AvatarAppearancePortraitModule&#45;&gt;AvatarAppearancesCarouselModule</title>
<path fill="none" stroke="black" d="M225.88,-84.91C225.88,-104.14 225.88,-131.8 225.88,-131.8 225.88,-131.8 226.69,-131.8 226.69,-131.8"/>
<polygon fill="black" stroke="black" points="223.99,-135.3 233.99,-131.8 223.99,-128.3 223.99,-135.3"/>
</g>
</g>
</svg>
