<?xml version="1.0" encoding="UTF-8" standalone="no"?>
<!DOCTYPE svg PUBLIC "-//W3C//DTD SVG 1.1//EN"
 "http://www.w3.org/Graphics/SVG/1.1/DTD/svg11.dtd">
<!-- Generated by graphviz version 2.47.3 (20210619.1520)
 -->
<!-- Title: dependencies Pages: 1 -->
<svg width="410pt" height="247pt"
 viewBox="0.00 0.00 410.00 246.80" xmlns="http://www.w3.org/2000/svg" xmlns:xlink="http://www.w3.org/1999/xlink">
<g id="graph0" class="graph" transform="scale(1 1) rotate(0) translate(4 242.8)">
<title>dependencies</title>
<polygon fill="white" stroke="transparent" points="-4,4 -4,-242.8 406,-242.8 406,4 -4,4"/>
<text text-anchor="middle" x="201" y="-8.2" font-family="sans-serif" font-size="14.00">dependencies</text>
<g id="clust1" class="cluster">
<title>cluster_ApplicationSheetModule</title>
<polygon fill="none" stroke="black" stroke-dasharray="1,5" points="8,-32.8 8,-230.8 394,-230.8 394,-32.8 8,-32.8"/>
</g>
<g id="clust4" class="cluster">
<title>cluster_ApplicationSheetModule_imports</title>
<polygon fill="none" stroke="black" points="218,-40.8 218,-92.8 386,-92.8 386,-40.8 218,-40.8"/>
</g>
<g id="clust5" class="cluster">
<title>cluster_ApplicationSheetModule_exports</title>
<polygon fill="none" stroke="black" points="102,-170.8 102,-222.8 300,-222.8 300,-170.8 102,-170.8"/>
</g>
<g id="clust2" class="cluster">
<title>cluster_ApplicationSheetModule_declarations</title>
<polygon fill="none" stroke="black" points="16,-40.8 16,-92.8 210,-92.8 210,-40.8 16,-40.8"/>
</g>
<!-- ApplicationSheetComponent -->
<g id="node1" class="node">
<title>ApplicationSheetComponent</title>
<polygon fill="#ffffb3" stroke="black" points="202.03,-84.8 23.97,-84.8 23.97,-48.8 202.03,-48.8 202.03,-84.8"/>
<text text-anchor="middle" x="113" y="-62.6" font-family="Times,serif" font-size="14.00">ApplicationSheetComponent</text>
</g>
<!-- ApplicationSheetModule -->
<g id="node2" class="node">
<title>ApplicationSheetModule</title>
<polygon fill="#8dd3c7" stroke="black" points="279.25,-149.8 276.25,-153.8 255.25,-153.8 252.25,-149.8 122.75,-149.8 122.75,-113.8 279.25,-113.8 279.25,-149.8"/>
<text text-anchor="middle" x="201" y="-127.6" font-family="Times,serif" font-size="14.00">ApplicationSheetModule</text>
</g>
<!-- ApplicationSheetComponent&#45;&gt;ApplicationSheetModule -->
<g id="edge1" class="edge">
<title>ApplicationSheetComponent&#45;&gt;ApplicationSheetModule</title>
<path fill="none" stroke="black" d="M162.45,-84.91C162.45,-84.91 162.45,-103.79 162.45,-103.79"/>
<polygon fill="black" stroke="black" points="158.95,-103.79 162.45,-113.79 165.95,-103.79 158.95,-103.79"/>
</g>
<!-- ApplicationSheetComponent  -->
<g id="node4" class="node">
<title>ApplicationSheetComponent </title>
<polygon fill="#fb8072" stroke="black" points="292.03,-214.8 109.97,-214.8 109.97,-178.8 292.03,-178.8 292.03,-214.8"/>
<text text-anchor="middle" x="201" y="-192.6" font-family="Times,serif" font-size="14.00">ApplicationSheetComponent </text>
</g>
<!-- ApplicationSheetModule&#45;&gt;ApplicationSheetComponent  -->
<g id="edge3" class="edge">
<title>ApplicationSheetModule&#45;&gt;ApplicationSheetComponent </title>
<path fill="none" stroke="black" stroke-dasharray="5,2" d="M201,-149.91C201,-149.91 201,-168.79 201,-168.79"/>
<polygon fill="black" stroke="black" points="197.5,-168.79 201,-178.79 204.5,-168.79 197.5,-168.79"/>
</g>
<!-- ApplicationCardModule -->
<g id="node3" class="node">
<title>ApplicationCardModule</title>
<polygon fill="#8dd3c7" stroke="black" points="378.36,-84.8 375.36,-88.8 354.36,-88.8 351.36,-84.8 225.64,-84.8 225.64,-48.8 378.36,-48.8 378.36,-84.8"/>
<text text-anchor="middle" x="302" y="-62.6" font-family="Times,serif" font-size="14.00">ApplicationCardModule</text>
</g>
<!-- ApplicationCardModule&#45;&gt;ApplicationSheetModule -->
<g id="edge2" class="edge">
<title>ApplicationCardModule&#45;&gt;ApplicationSheetModule</title>
<path fill="none" stroke="black" d="M252.47,-84.91C252.47,-84.91 252.47,-103.79 252.47,-103.79"/>
<polygon fill="black" stroke="black" points="248.97,-103.79 252.47,-113.79 255.97,-103.79 248.97,-103.79"/>
</g>
</g>
</svg>
