<?xml version="1.0" encoding="UTF-8" standalone="no"?>
<!DOCTYPE svg PUBLIC "-//W3C//DTD SVG 1.1//EN"
 "http://www.w3.org/Graphics/SVG/1.1/DTD/svg11.dtd">
<!-- Generated by graphviz version 2.47.3 (20210619.1520)
 -->
<!-- Title: dependencies Pages: 1 -->
<svg width="526pt" height="312pt"
 viewBox="0.00 0.00 526.00 311.80" xmlns="http://www.w3.org/2000/svg" xmlns:xlink="http://www.w3.org/1999/xlink">
<g id="graph0" class="graph" transform="scale(1 1) rotate(0) translate(4 307.8)">
<title>dependencies</title>
<polygon fill="white" stroke="transparent" points="-4,4 -4,-307.8 522,-307.8 522,4 -4,4"/>
<text text-anchor="middle" x="259" y="-8.2" font-family="sans-serif" font-size="14.00">dependencies</text>
<g id="clust1" class="cluster">
<title>cluster_PortalLayoutSceneModule</title>
<polygon fill="none" stroke="black" stroke-dasharray="1,5" points="8,-32.8 8,-295.8 510,-295.8 510,-32.8 8,-32.8"/>
</g>
<g id="clust3" class="cluster">
<title>cluster_PortalLayoutSceneModule_ApplicationManagerComponent_providers</title>
<polygon fill="none" stroke="black" points="162,-40.8 162,-157.8 502,-157.8 502,-40.8 162,-40.8"/>
</g>
<g id="clust6" class="cluster">
<title>cluster_PortalLayoutSceneModule_exports</title>
<polygon fill="none" stroke="black" points="113,-235.8 113,-287.8 255,-287.8 255,-235.8 113,-235.8"/>
</g>
<g id="clust2" class="cluster">
<title>cluster_PortalLayoutSceneModule_declarations</title>
<polygon fill="none" stroke="black" points="16,-105.8 16,-157.8 154,-157.8 154,-105.8 16,-105.8"/>
</g>
<!-- ApplicationManagerComponent -->
<g id="node1" class="node">
<title>ApplicationManagerComponent</title>
<polygon fill="#ffffb3" stroke="black" points="398.68,-149.8 201.32,-149.8 201.32,-113.8 398.68,-113.8 398.68,-149.8"/>
<text text-anchor="middle" x="300" y="-127.6" font-family="Times,serif" font-size="14.00">ApplicationManagerComponent</text>
</g>
<!-- PortalLayoutSceneModule -->
<g id="node3" class="node">
<title>PortalLayoutSceneModule</title>
<polygon fill="#8dd3c7" stroke="black" points="267.07,-214.8 264.07,-218.8 243.07,-218.8 240.07,-214.8 100.93,-214.8 100.93,-178.8 267.07,-178.8 267.07,-214.8"/>
<text text-anchor="middle" x="184" y="-192.6" font-family="Times,serif" font-size="14.00">PortalLayoutSceneModule</text>
</g>
<!-- ApplicationManagerComponent&#45;&gt;PortalLayoutSceneModule -->
<g id="edge1" class="edge">
<title>ApplicationManagerComponent&#45;&gt;PortalLayoutSceneModule</title>
<path fill="none" stroke="black" d="M234.22,-149.91C234.22,-149.91 234.22,-168.79 234.22,-168.79"/>
<polygon fill="black" stroke="black" points="230.72,-168.79 234.22,-178.79 237.72,-168.79 230.72,-168.79"/>
</g>
<!-- PortalLayoutScene -->
<g id="node2" class="node">
<title>PortalLayoutScene</title>
<polygon fill="#ffffb3" stroke="black" points="146.02,-149.8 23.98,-149.8 23.98,-113.8 146.02,-113.8 146.02,-149.8"/>
<text text-anchor="middle" x="85" y="-127.6" font-family="Times,serif" font-size="14.00">PortalLayoutScene</text>
</g>
<!-- PortalLayoutScene&#45;&gt;PortalLayoutSceneModule -->
<g id="edge3" class="edge">
<title>PortalLayoutScene&#45;&gt;PortalLayoutSceneModule</title>
<path fill="none" stroke="black" d="M123.61,-149.91C123.61,-149.91 123.61,-168.79 123.61,-168.79"/>
<polygon fill="black" stroke="black" points="120.11,-168.79 123.61,-178.79 127.11,-168.79 120.11,-168.79"/>
</g>
<!-- PortalLayoutScene  -->
<g id="node5" class="node">
<title>PortalLayoutScene </title>
<polygon fill="#fb8072" stroke="black" points="247.02,-279.8 120.98,-279.8 120.98,-243.8 247.02,-243.8 247.02,-279.8"/>
<text text-anchor="middle" x="184" y="-257.6" font-family="Times,serif" font-size="14.00">PortalLayoutScene </text>
</g>
<!-- PortalLayoutSceneModule&#45;&gt;PortalLayoutScene  -->
<g id="edge4" class="edge">
<title>PortalLayoutSceneModule&#45;&gt;PortalLayoutScene </title>
<path fill="none" stroke="black" stroke-dasharray="5,2" d="M184,-214.91C184,-214.91 184,-233.79 184,-233.79"/>
<polygon fill="black" stroke="black" points="180.5,-233.79 184,-243.79 187.5,-233.79 180.5,-233.79"/>
</g>
<!-- LocalApplicationComponentsResolver -->
<g id="node4" class="node">
<title>LocalApplicationComponentsResolver</title>
<ellipse fill="#fdb462" stroke="black" cx="332" cy="-66.8" rx="161.52" ry="18"/>
<text text-anchor="middle" x="332" y="-62.6" font-family="Times,serif" font-size="14.00">LocalApplicationComponentsResolver</text>
</g>
<!-- LocalApplicationComponentsResolver&#45;&gt;ApplicationManagerComponent -->
<g id="edge2" class="edge">
<title>LocalApplicationComponentsResolver&#45;&gt;ApplicationManagerComponent</title>
<path fill="none" stroke="black" d="M300,-84.56C300,-84.56 300,-103.61 300,-103.61"/>
<polygon fill="black" stroke="black" points="296.5,-103.61 300,-113.61 303.5,-103.61 296.5,-103.61"/>
</g>
</g>
</svg>
