<?xml version="1.0" encoding="UTF-8" standalone="no"?>
<!DOCTYPE svg PUBLIC "-//W3C//DTD SVG 1.1//EN"
 "http://www.w3.org/Graphics/SVG/1.1/DTD/svg11.dtd">
<!-- Generated by graphviz version 2.47.3 (20210619.1520)
 -->
<!-- Title: dependencies Pages: 1 -->
<svg width="1014pt" height="358pt"
 viewBox="0.00 0.00 1014.00 358.39" xmlns="http://www.w3.org/2000/svg" xmlns:xlink="http://www.w3.org/1999/xlink">
<g id="graph0" class="graph" transform="scale(1 1) rotate(0) translate(4 354.39)">
<title>dependencies</title>
<polygon fill="white" stroke="transparent" points="-4,4 -4,-354.39 1010,-354.39 1010,4 -4,4"/>
<text text-anchor="middle" x="503" y="-8.2" font-family="sans-serif" font-size="14.00">dependencies</text>
<g id="clust1" class="cluster">
<title>cluster_FileUploadModule</title>
<polygon fill="none" stroke="black" stroke-dasharray="1,5" points="8,-32.8 8,-342.39 998,-342.39 998,-32.8 8,-32.8"/>
</g>
<g id="clust3" class="cluster">
<title>cluster_FileUploadModule_FileUploadComponent_providers</title>
<polygon fill="none" stroke="black" points="250,-40.8 250,-204.39 990,-204.39 990,-40.8 250,-40.8"/>
</g>
<g id="clust4" class="cluster">
<title>cluster_FileUploadModule_imports</title>
<polygon fill="none" stroke="black" points="16,-152.39 16,-204.39 242,-204.39 242,-152.39 16,-152.39"/>
</g>
<g id="clust5" class="cluster">
<title>cluster_FileUploadModule_exports</title>
<polygon fill="none" stroke="black" points="109,-282.39 109,-334.39 273,-334.39 273,-282.39 109,-282.39"/>
</g>
<!-- FileUploadComponent -->
<g id="node1" class="node">
<title>FileUploadComponent</title>
<polygon fill="#ffffb3" stroke="black" points="547.32,-196.39 402.68,-196.39 402.68,-160.39 547.32,-160.39 547.32,-196.39"/>
<text text-anchor="middle" x="475" y="-174.19" font-family="Times,serif" font-size="14.00">FileUploadComponent</text>
</g>
<!-- FileUploadModule -->
<g id="node2" class="node">
<title>FileUploadModule</title>
<polygon fill="#8dd3c7" stroke="black" points="252.04,-261.39 249.04,-265.39 228.04,-265.39 225.04,-261.39 129.96,-261.39 129.96,-225.39 252.04,-225.39 252.04,-261.39"/>
<text text-anchor="middle" x="191" y="-239.19" font-family="Times,serif" font-size="14.00">FileUploadModule</text>
</g>
<!-- FileUploadComponent&#45;&gt;FileUploadModule -->
<g id="edge1" class="edge">
<title>FileUploadComponent&#45;&gt;FileUploadModule</title>
<path fill="none" stroke="black" d="M402.59,-178.39C334.56,-178.39 243.13,-178.39 243.13,-178.39 243.13,-178.39 243.13,-215.28 243.13,-215.28"/>
<polygon fill="black" stroke="black" points="239.63,-215.28 243.13,-225.28 246.63,-215.28 239.63,-215.28"/>
</g>
<!-- FileUploadComponent  -->
<g id="node6" class="node">
<title>FileUploadComponent </title>
<polygon fill="#fb8072" stroke="black" points="264.82,-326.39 117.18,-326.39 117.18,-290.39 264.82,-290.39 264.82,-326.39"/>
<text text-anchor="middle" x="191" y="-304.19" font-family="Times,serif" font-size="14.00">FileUploadComponent </text>
</g>
<!-- FileUploadModule&#45;&gt;FileUploadComponent  -->
<g id="edge5" class="edge">
<title>FileUploadModule&#45;&gt;FileUploadComponent </title>
<path fill="none" stroke="black" stroke-dasharray="5,2" d="M191,-261.5C191,-261.5 191,-280.38 191,-280.38"/>
<polygon fill="black" stroke="black" points="187.5,-280.38 191,-290.38 194.5,-280.38 187.5,-280.38"/>
</g>
<!-- {
 &#160;&#160;&#160;provide: NG_VALUE_ACCESSOR, useExisting: FileUploadComponent, multi: true,
} -->
<g id="node3" class="node">
<title>{
 &#160;&#160;&#160;provide: NG_VALUE_ACCESSOR, useExisting: FileUploadComponent, multi: true,
}</title>
<ellipse fill="#fdb462" stroke="black" cx="620" cy="-90.1" rx="361.72" ry="41.09"/>
<text text-anchor="middle" x="620" y="-102.7" font-family="Times,serif" font-size="14.00">{</text>
<text text-anchor="middle" x="620" y="-85.9" font-family="Times,serif" font-size="14.00"> &#160;&#160;&#160;provide: NG_VALUE_ACCESSOR, useExisting: FileUploadComponent, multi: true,</text>
<text text-anchor="middle" x="620" y="-69.1" font-family="Times,serif" font-size="14.00">}</text>
</g>
<!-- {
 &#160;&#160;&#160;provide: NG_VALUE_ACCESSOR, useExisting: FileUploadComponent, multi: true,
}&#45;&gt;FileUploadComponent -->
<g id="edge2" class="edge">
<title>{
 &#160;&#160;&#160;provide: NG_VALUE_ACCESSOR, useExisting: FileUploadComponent, multi: true,
}&#45;&gt;FileUploadComponent</title>
<path fill="none" stroke="black" d="M475,-128.05C475,-128.05 475,-150.36 475,-150.36"/>
<polygon fill="black" stroke="black" points="471.5,-150.36 475,-160.36 478.5,-150.36 471.5,-150.36"/>
</g>
<!-- BemModule -->
<g id="node4" class="node">
<title>BemModule</title>
<polygon fill="#8dd3c7" stroke="black" points="233.99,-196.39 230.99,-200.39 209.99,-200.39 206.99,-196.39 148.01,-196.39 148.01,-160.39 233.99,-160.39 233.99,-196.39"/>
<text text-anchor="middle" x="191" y="-174.19" font-family="Times,serif" font-size="14.00">BemModule</text>
</g>
<!-- BemModule&#45;&gt;FileUploadModule -->
<g id="edge3" class="edge">
<title>BemModule&#45;&gt;FileUploadModule</title>
<path fill="none" stroke="black" d="M191,-196.5C191,-196.5 191,-215.38 191,-215.38"/>
<polygon fill="black" stroke="black" points="187.5,-215.38 191,-225.38 194.5,-215.38 187.5,-215.38"/>
</g>
<!-- SvgIconModule -->
<g id="node5" class="node">
<title>SvgIconModule</title>
<polygon fill="#8dd3c7" stroke="black" points="130.21,-196.39 127.21,-200.39 106.21,-200.39 103.21,-196.39 23.79,-196.39 23.79,-160.39 130.21,-160.39 130.21,-196.39"/>
<text text-anchor="middle" x="77" y="-174.19" font-family="Times,serif" font-size="14.00">SvgIconModule</text>
</g>
<!-- SvgIconModule&#45;&gt;FileUploadModule -->
<g id="edge4" class="edge">
<title>SvgIconModule&#45;&gt;FileUploadModule</title>
<path fill="none" stroke="black" d="M123.41,-196.5C123.41,-215.73 123.41,-243.39 123.41,-243.39 123.41,-243.39 124.06,-243.39 124.06,-243.39"/>
<polygon fill="black" stroke="black" points="119.89,-246.89 129.89,-243.39 119.89,-239.89 119.89,-246.89"/>
</g>
</g>
</svg>
