<?xml version="1.0" encoding="UTF-8" standalone="no"?>
<!DOCTYPE svg PUBLIC "-//W3C//DTD SVG 1.1//EN"
 "http://www.w3.org/Graphics/SVG/1.1/DTD/svg11.dtd">
<!-- Generated by graphviz version 2.47.3 (20210619.1520)
 -->
<!-- Title: dependencies Pages: 1 -->
<svg width="599pt" height="247pt"
 viewBox="0.00 0.00 599.00 246.80" xmlns="http://www.w3.org/2000/svg" xmlns:xlink="http://www.w3.org/1999/xlink">
<g id="graph0" class="graph" transform="scale(1 1) rotate(0) translate(4 242.8)">
<title>dependencies</title>
<polygon fill="white" stroke="transparent" points="-4,4 -4,-242.8 595,-242.8 595,4 -4,4"/>
<text text-anchor="middle" x="295.5" y="-8.2" font-family="sans-serif" font-size="14.00">dependencies</text>
<g id="clust1" class="cluster">
<title>cluster_AvatarInfoModule</title>
<polygon fill="none" stroke="black" stroke-dasharray="1,5" points="8,-32.8 8,-230.8 583,-230.8 583,-32.8 8,-32.8"/>
</g>
<g id="clust2" class="cluster">
<title>cluster_AvatarInfoModule_declarations</title>
<polygon fill="none" stroke="black" points="417,-40.8 417,-92.8 575,-92.8 575,-40.8 417,-40.8"/>
</g>
<g id="clust4" class="cluster">
<title>cluster_AvatarInfoModule_imports</title>
<polygon fill="none" stroke="black" points="16,-40.8 16,-92.8 409,-92.8 409,-40.8 16,-40.8"/>
</g>
<g id="clust5" class="cluster">
<title>cluster_AvatarInfoModule_exports</title>
<polygon fill="none" stroke="black" points="217,-170.8 217,-222.8 379,-222.8 379,-170.8 217,-170.8"/>
</g>
<!-- AvatarInfoComponent -->
<g id="node1" class="node">
<title>AvatarInfoComponent</title>
<polygon fill="#ffffb3" stroke="black" points="567.24,-84.8 424.76,-84.8 424.76,-48.8 567.24,-48.8 567.24,-84.8"/>
<text text-anchor="middle" x="496" y="-62.6" font-family="Times,serif" font-size="14.00">AvatarInfoComponent</text>
</g>
<!-- AvatarInfoModule -->
<g id="node2" class="node">
<title>AvatarInfoModule</title>
<polygon fill="#8dd3c7" stroke="black" points="358.46,-149.8 355.46,-153.8 334.46,-153.8 331.46,-149.8 237.54,-149.8 237.54,-113.8 358.46,-113.8 358.46,-149.8"/>
<text text-anchor="middle" x="298" y="-127.6" font-family="Times,serif" font-size="14.00">AvatarInfoModule</text>
</g>
<!-- AvatarInfoComponent&#45;&gt;AvatarInfoModule -->
<g id="edge1" class="edge">
<title>AvatarInfoComponent&#45;&gt;AvatarInfoModule</title>
<path fill="none" stroke="black" d="M496,-84.91C496,-104.14 496,-131.8 496,-131.8 496,-131.8 368.48,-131.8 368.48,-131.8"/>
<polygon fill="black" stroke="black" points="368.48,-128.3 358.48,-131.8 368.48,-135.3 368.48,-128.3"/>
</g>
<!-- AvatarInfoComponent  -->
<g id="node5" class="node">
<title>AvatarInfoComponent </title>
<polygon fill="#fb8072" stroke="black" points="371.24,-214.8 224.76,-214.8 224.76,-178.8 371.24,-178.8 371.24,-214.8"/>
<text text-anchor="middle" x="298" y="-192.6" font-family="Times,serif" font-size="14.00">AvatarInfoComponent </text>
</g>
<!-- AvatarInfoModule&#45;&gt;AvatarInfoComponent  -->
<g id="edge4" class="edge">
<title>AvatarInfoModule&#45;&gt;AvatarInfoComponent </title>
<path fill="none" stroke="black" stroke-dasharray="5,2" d="M298,-149.91C298,-149.91 298,-168.79 298,-168.79"/>
<polygon fill="black" stroke="black" points="294.5,-168.79 298,-178.79 301.5,-168.79 294.5,-168.79"/>
</g>
<!-- AvatarAppearancePortraitModule -->
<g id="node3" class="node">
<title>AvatarAppearancePortraitModule</title>
<polygon fill="#8dd3c7" stroke="black" points="401.47,-84.8 398.47,-88.8 377.47,-88.8 374.47,-84.8 194.53,-84.8 194.53,-48.8 401.47,-48.8 401.47,-84.8"/>
<text text-anchor="middle" x="298" y="-62.6" font-family="Times,serif" font-size="14.00">AvatarAppearancePortraitModule</text>
</g>
<!-- AvatarAppearancePortraitModule&#45;&gt;AvatarInfoModule -->
<g id="edge2" class="edge">
<title>AvatarAppearancePortraitModule&#45;&gt;AvatarInfoModule</title>
<path fill="none" stroke="black" d="M298,-84.91C298,-84.91 298,-103.79 298,-103.79"/>
<polygon fill="black" stroke="black" points="294.5,-103.79 298,-113.79 301.5,-103.79 294.5,-103.79"/>
</g>
<!-- AvatarsCarouselModule -->
<g id="node4" class="node">
<title>AvatarsCarouselModule</title>
<polygon fill="#8dd3c7" stroke="black" points="176.34,-84.8 173.34,-88.8 152.34,-88.8 149.34,-84.8 23.66,-84.8 23.66,-48.8 176.34,-48.8 176.34,-84.8"/>
<text text-anchor="middle" x="100" y="-62.6" font-family="Times,serif" font-size="14.00">AvatarsCarouselModule</text>
</g>
<!-- AvatarsCarouselModule&#45;&gt;AvatarInfoModule -->
<g id="edge3" class="edge">
<title>AvatarsCarouselModule&#45;&gt;AvatarInfoModule</title>
<path fill="none" stroke="black" d="M100,-84.91C100,-104.14 100,-131.8 100,-131.8 100,-131.8 227.52,-131.8 227.52,-131.8"/>
<polygon fill="black" stroke="black" points="227.52,-135.3 237.52,-131.8 227.52,-128.3 227.52,-135.3"/>
</g>
</g>
</svg>
