<?xml version="1.0" encoding="UTF-8" standalone="no"?>
<!DOCTYPE svg PUBLIC "-//W3C//DTD SVG 1.1//EN"
 "http://www.w3.org/Graphics/SVG/1.1/DTD/svg11.dtd">
<!-- Generated by graphviz version 2.47.3 (20210619.1520)
 -->
<!-- Title: dependencies Pages: 1 -->
<svg width="568pt" height="247pt"
 viewBox="0.00 0.00 568.00 246.80" xmlns="http://www.w3.org/2000/svg" xmlns:xlink="http://www.w3.org/1999/xlink">
<g id="graph0" class="graph" transform="scale(1 1) rotate(0) translate(4 242.8)">
<title>dependencies</title>
<polygon fill="white" stroke="transparent" points="-4,4 -4,-242.8 564,-242.8 564,4 -4,4"/>
<text text-anchor="middle" x="280" y="-8.2" font-family="sans-serif" font-size="14.00">dependencies</text>
<g id="clust1" class="cluster">
<title>cluster_SplashScreenModule</title>
<polygon fill="none" stroke="black" stroke-dasharray="1,5" points="8,-32.8 8,-230.8 552,-230.8 552,-32.8 8,-32.8"/>
</g>
<g id="clust5" class="cluster">
<title>cluster_SplashScreenModule_exports</title>
<polygon fill="none" stroke="black" points="168,-170.8 168,-222.8 344,-222.8 344,-170.8 168,-170.8"/>
</g>
<g id="clust2" class="cluster">
<title>cluster_SplashScreenModule_declarations</title>
<polygon fill="none" stroke="black" points="372,-40.8 372,-92.8 544,-92.8 544,-40.8 372,-40.8"/>
</g>
<g id="clust4" class="cluster">
<title>cluster_SplashScreenModule_imports</title>
<polygon fill="none" stroke="black" points="16,-40.8 16,-92.8 364,-92.8 364,-40.8 16,-40.8"/>
</g>
<!-- SplashScreenComponent -->
<g id="node1" class="node">
<title>SplashScreenComponent</title>
<polygon fill="#ffffb3" stroke="black" points="536.25,-84.8 379.75,-84.8 379.75,-48.8 536.25,-48.8 536.25,-84.8"/>
<text text-anchor="middle" x="458" y="-62.6" font-family="Times,serif" font-size="14.00">SplashScreenComponent</text>
</g>
<!-- SplashScreenModule -->
<g id="node2" class="node">
<title>SplashScreenModule</title>
<polygon fill="#8dd3c7" stroke="black" points="323.47,-149.8 320.47,-153.8 299.47,-153.8 296.47,-149.8 188.53,-149.8 188.53,-113.8 323.47,-113.8 323.47,-149.8"/>
<text text-anchor="middle" x="256" y="-127.6" font-family="Times,serif" font-size="14.00">SplashScreenModule</text>
</g>
<!-- SplashScreenComponent&#45;&gt;SplashScreenModule -->
<g id="edge1" class="edge">
<title>SplashScreenComponent&#45;&gt;SplashScreenModule</title>
<path fill="none" stroke="black" d="M458,-84.91C458,-104.14 458,-131.8 458,-131.8 458,-131.8 333.54,-131.8 333.54,-131.8"/>
<polygon fill="black" stroke="black" points="333.54,-128.3 323.54,-131.8 333.54,-135.3 333.54,-128.3"/>
</g>
<!-- SplashScreenComponent  -->
<g id="node6" class="node">
<title>SplashScreenComponent </title>
<polygon fill="#fb8072" stroke="black" points="336.25,-214.8 175.75,-214.8 175.75,-178.8 336.25,-178.8 336.25,-214.8"/>
<text text-anchor="middle" x="256" y="-192.6" font-family="Times,serif" font-size="14.00">SplashScreenComponent </text>
</g>
<!-- SplashScreenModule&#45;&gt;SplashScreenComponent  -->
<g id="edge5" class="edge">
<title>SplashScreenModule&#45;&gt;SplashScreenComponent </title>
<path fill="none" stroke="black" stroke-dasharray="5,2" d="M256,-149.91C256,-149.91 256,-168.79 256,-168.79"/>
<polygon fill="black" stroke="black" points="252.5,-168.79 256,-178.79 259.5,-168.79 252.5,-168.79"/>
</g>
<!-- BemModule -->
<g id="node3" class="node">
<title>BemModule</title>
<polygon fill="#8dd3c7" stroke="black" points="355.99,-84.8 352.99,-88.8 331.99,-88.8 328.99,-84.8 270.01,-84.8 270.01,-48.8 355.99,-48.8 355.99,-84.8"/>
<text text-anchor="middle" x="313" y="-62.6" font-family="Times,serif" font-size="14.00">BemModule</text>
</g>
<!-- BemModule&#45;&gt;SplashScreenModule -->
<g id="edge2" class="edge">
<title>BemModule&#45;&gt;SplashScreenModule</title>
<path fill="none" stroke="black" d="M296.74,-84.91C296.74,-84.91 296.74,-103.79 296.74,-103.79"/>
<polygon fill="black" stroke="black" points="293.24,-103.79 296.74,-113.79 300.24,-103.79 293.24,-103.79"/>
</g>
<!-- SpinnerModule -->
<g id="node4" class="node">
<title>SpinnerModule</title>
<polygon fill="#8dd3c7" stroke="black" points="251.6,-84.8 248.6,-88.8 227.6,-88.8 224.6,-84.8 148.4,-84.8 148.4,-48.8 251.6,-48.8 251.6,-84.8"/>
<text text-anchor="middle" x="200" y="-62.6" font-family="Times,serif" font-size="14.00">SpinnerModule</text>
</g>
<!-- SpinnerModule&#45;&gt;SplashScreenModule -->
<g id="edge3" class="edge">
<title>SpinnerModule&#45;&gt;SplashScreenModule</title>
<path fill="none" stroke="black" d="M220.03,-84.91C220.03,-84.91 220.03,-103.79 220.03,-103.79"/>
<polygon fill="black" stroke="black" points="216.53,-103.79 220.03,-113.79 223.53,-103.79 216.53,-103.79"/>
</g>
<!-- SvgIconModule -->
<g id="node5" class="node">
<title>SvgIconModule</title>
<polygon fill="#8dd3c7" stroke="black" points="130.21,-84.8 127.21,-88.8 106.21,-88.8 103.21,-84.8 23.79,-84.8 23.79,-48.8 130.21,-48.8 130.21,-84.8"/>
<text text-anchor="middle" x="77" y="-62.6" font-family="Times,serif" font-size="14.00">SvgIconModule</text>
</g>
<!-- SvgIconModule&#45;&gt;SplashScreenModule -->
<g id="edge4" class="edge">
<title>SvgIconModule&#45;&gt;SplashScreenModule</title>
<path fill="none" stroke="black" d="M77,-84.91C77,-104.14 77,-131.8 77,-131.8 77,-131.8 178.33,-131.8 178.33,-131.8"/>
<polygon fill="black" stroke="black" points="178.33,-135.3 188.33,-131.8 178.33,-128.3 178.33,-135.3"/>
</g>
</g>
</svg>
