<?xml version="1.0" encoding="UTF-8" standalone="no"?>
<!DOCTYPE svg PUBLIC "-//W3C//DTD SVG 1.1//EN"
 "http://www.w3.org/Graphics/SVG/1.1/DTD/svg11.dtd">
<!-- Generated by graphviz version 2.47.3 (20210619.1520)
 -->
<!-- Title: dependencies Pages: 1 -->
<svg width="628pt" height="247pt"
 viewBox="0.00 0.00 628.00 246.80" xmlns="http://www.w3.org/2000/svg" xmlns:xlink="http://www.w3.org/1999/xlink">
<g id="graph0" class="graph" transform="scale(1 1) rotate(0) translate(4 242.8)">
<title>dependencies</title>
<polygon fill="white" stroke="transparent" points="-4,4 -4,-242.8 624,-242.8 624,4 -4,4"/>
<text text-anchor="middle" x="310" y="-8.2" font-family="sans-serif" font-size="14.00">dependencies</text>
<g id="clust1" class="cluster">
<title>cluster_PortalModule</title>
<polygon fill="none" stroke="black" stroke-dasharray="1,5" points="8,-32.8 8,-230.8 612,-230.8 612,-32.8 8,-32.8"/>
</g>
<g id="clust2" class="cluster">
<title>cluster_PortalModule_declarations</title>
<polygon fill="none" stroke="black" points="512,-40.8 512,-92.8 604,-92.8 604,-40.8 512,-40.8"/>
</g>
<g id="clust4" class="cluster">
<title>cluster_PortalModule_imports</title>
<polygon fill="none" stroke="black" points="16,-40.8 16,-92.8 504,-92.8 504,-40.8 16,-40.8"/>
</g>
<g id="clust6" class="cluster">
<title>cluster_PortalModule_bootstrap</title>
<polygon fill="none" stroke="black" points="281,-170.8 281,-222.8 377,-222.8 377,-170.8 281,-170.8"/>
</g>
<!-- PortalRoot -->
<g id="node1" class="node">
<title>PortalRoot</title>
<polygon fill="#ffffb3" stroke="black" points="596.17,-84.8 519.83,-84.8 519.83,-48.8 596.17,-48.8 596.17,-84.8"/>
<text text-anchor="middle" x="558" y="-62.6" font-family="Times,serif" font-size="14.00">PortalRoot</text>
</g>
<!-- PortalModule -->
<g id="node2" class="node">
<title>PortalModule</title>
<polygon fill="#8dd3c7" stroke="black" points="375.49,-149.8 372.49,-153.8 351.49,-153.8 348.49,-149.8 282.51,-149.8 282.51,-113.8 375.49,-113.8 375.49,-149.8"/>
<text text-anchor="middle" x="329" y="-127.6" font-family="Times,serif" font-size="14.00">PortalModule</text>
</g>
<!-- PortalRoot&#45;&gt;PortalModule -->
<g id="edge1" class="edge">
<title>PortalRoot&#45;&gt;PortalModule</title>
<path fill="none" stroke="black" d="M558,-84.91C558,-104.14 558,-131.8 558,-131.8 558,-131.8 385.62,-131.8 385.62,-131.8"/>
<polygon fill="black" stroke="black" points="385.62,-128.3 375.62,-131.8 385.62,-135.3 385.62,-128.3"/>
</g>
<!-- PortalRoot  -->
<g id="node6" class="node">
<title>PortalRoot </title>
<polygon fill="#80b1d3" stroke="black" points="369.17,-214.8 288.83,-214.8 288.83,-178.8 369.17,-178.8 369.17,-214.8"/>
<text text-anchor="middle" x="329" y="-192.6" font-family="Times,serif" font-size="14.00">PortalRoot </text>
</g>
<!-- PortalModule&#45;&gt;PortalRoot  -->
<g id="edge5" class="edge">
<title>PortalModule&#45;&gt;PortalRoot </title>
<path fill="none" stroke="black" stroke-dasharray="1,5" d="M329,-149.91C329,-149.91 329,-168.79 329,-168.79"/>
<polygon fill="black" stroke="black" points="325.5,-168.79 329,-178.79 332.5,-168.79 325.5,-168.79"/>
</g>
<!-- PortalLayoutSceneModule -->
<g id="node3" class="node">
<title>PortalLayoutSceneModule</title>
<polygon fill="#8dd3c7" stroke="black" points="496.07,-84.8 493.07,-88.8 472.07,-88.8 469.07,-84.8 329.93,-84.8 329.93,-48.8 496.07,-48.8 496.07,-84.8"/>
<text text-anchor="middle" x="413" y="-62.6" font-family="Times,serif" font-size="14.00">PortalLayoutSceneModule</text>
</g>
<!-- PortalLayoutSceneModule&#45;&gt;PortalModule -->
<g id="edge2" class="edge">
<title>PortalLayoutSceneModule&#45;&gt;PortalModule</title>
<path fill="none" stroke="black" d="M352.73,-84.91C352.73,-84.91 352.73,-103.79 352.73,-103.79"/>
<polygon fill="black" stroke="black" points="349.23,-103.79 352.73,-113.79 356.23,-103.79 349.23,-103.79"/>
</g>
<!-- PortalMocksModule -->
<g id="node4" class="node">
<title>PortalMocksModule</title>
<polygon fill="#8dd3c7" stroke="black" points="311.59,-84.8 308.59,-88.8 287.59,-88.8 284.59,-84.8 180.41,-84.8 180.41,-48.8 311.59,-48.8 311.59,-84.8"/>
<text text-anchor="middle" x="246" y="-62.6" font-family="Times,serif" font-size="14.00">PortalMocksModule</text>
</g>
<!-- PortalMocksModule&#45;&gt;PortalModule -->
<g id="edge3" class="edge">
<title>PortalMocksModule&#45;&gt;PortalModule</title>
<path fill="none" stroke="black" d="M297.03,-84.91C297.03,-84.91 297.03,-103.79 297.03,-103.79"/>
<polygon fill="black" stroke="black" points="293.53,-103.79 297.03,-113.79 300.53,-103.79 293.53,-103.79"/>
</g>
<!-- PortalRoutingModule -->
<g id="node5" class="node">
<title>PortalRoutingModule</title>
<polygon fill="#8dd3c7" stroke="black" points="162.11,-84.8 159.11,-88.8 138.11,-88.8 135.11,-84.8 23.89,-84.8 23.89,-48.8 162.11,-48.8 162.11,-84.8"/>
<text text-anchor="middle" x="93" y="-62.6" font-family="Times,serif" font-size="14.00">PortalRoutingModule</text>
</g>
<!-- PortalRoutingModule&#45;&gt;PortalModule -->
<g id="edge4" class="edge">
<title>PortalRoutingModule&#45;&gt;PortalModule</title>
<path fill="none" stroke="black" d="M93,-84.91C93,-104.14 93,-131.8 93,-131.8 93,-131.8 272.37,-131.8 272.37,-131.8"/>
<polygon fill="black" stroke="black" points="272.37,-135.3 282.37,-131.8 272.37,-128.3 272.37,-135.3"/>
</g>
</g>
</svg>
