<?xml version="1.0" encoding="UTF-8" standalone="no"?>
<!DOCTYPE svg PUBLIC "-//W3C//DTD SVG 1.1//EN"
 "http://www.w3.org/Graphics/SVG/1.1/DTD/svg11.dtd">
<!-- Generated by graphviz version 2.47.3 (20210619.1520)
 -->
<!-- Title: dependencies Pages: 1 -->
<svg width="642pt" height="247pt"
 viewBox="0.00 0.00 642.00 246.80" xmlns="http://www.w3.org/2000/svg" xmlns:xlink="http://www.w3.org/1999/xlink">
<g id="graph0" class="graph" transform="scale(1 1) rotate(0) translate(4 242.8)">
<title>dependencies</title>
<polygon fill="white" stroke="transparent" points="-4,4 -4,-242.8 638,-242.8 638,4 -4,4"/>
<text text-anchor="middle" x="317" y="-8.2" font-family="sans-serif" font-size="14.00">dependencies</text>
<g id="clust1" class="cluster">
<title>cluster_PortalModule</title>
<polygon fill="none" stroke="black" stroke-dasharray="1,5" points="8,-32.8 8,-230.8 626,-230.8 626,-32.8 8,-32.8"/>
</g>
<g id="clust2" class="cluster">
<title>cluster_PortalModule_declarations</title>
<polygon fill="none" stroke="black" points="526,-40.8 526,-92.8 618,-92.8 618,-40.8 526,-40.8"/>
</g>
<g id="clust4" class="cluster">
<title>cluster_PortalModule_imports</title>
<polygon fill="none" stroke="black" points="16,-40.8 16,-92.8 518,-92.8 518,-40.8 16,-40.8"/>
</g>
<g id="clust6" class="cluster">
<title>cluster_PortalModule_bootstrap</title>
<polygon fill="none" stroke="black" points="292,-170.8 292,-222.8 388,-222.8 388,-170.8 292,-170.8"/>
</g>
<!-- PortalRoot -->
<g id="node1" class="node">
<title>PortalRoot</title>
<polygon fill="#ffffb3" stroke="black" points="610.17,-84.8 533.83,-84.8 533.83,-48.8 610.17,-48.8 610.17,-84.8"/>
<text text-anchor="middle" x="572" y="-62.6" font-family="Times,serif" font-size="14.00">PortalRoot</text>
</g>
<!-- PortalModule -->
<g id="node2" class="node">
<title>PortalModule</title>
<polygon fill="#8dd3c7" stroke="black" points="386.49,-149.8 383.49,-153.8 362.49,-153.8 359.49,-149.8 293.51,-149.8 293.51,-113.8 386.49,-113.8 386.49,-149.8"/>
<text text-anchor="middle" x="340" y="-127.6" font-family="Times,serif" font-size="14.00">PortalModule</text>
</g>
<!-- PortalRoot&#45;&gt;PortalModule -->
<g id="edge1" class="edge">
<title>PortalRoot&#45;&gt;PortalModule</title>
<path fill="none" stroke="black" d="M572,-84.91C572,-104.14 572,-131.8 572,-131.8 572,-131.8 396.67,-131.8 396.67,-131.8"/>
<polygon fill="black" stroke="black" points="396.67,-128.3 386.67,-131.8 396.67,-135.3 396.67,-128.3"/>
</g>
<!-- PortalRoot  -->
<g id="node6" class="node">
<title>PortalRoot </title>
<polygon fill="#80b1d3" stroke="black" points="380.17,-214.8 299.83,-214.8 299.83,-178.8 380.17,-178.8 380.17,-214.8"/>
<text text-anchor="middle" x="340" y="-192.6" font-family="Times,serif" font-size="14.00">PortalRoot </text>
</g>
<!-- PortalModule&#45;&gt;PortalRoot  -->
<g id="edge5" class="edge">
<title>PortalModule&#45;&gt;PortalRoot </title>
<path fill="none" stroke="black" stroke-dasharray="1,5" d="M340,-149.91C340,-149.91 340,-168.79 340,-168.79"/>
<polygon fill="black" stroke="black" points="336.5,-168.79 340,-178.79 343.5,-168.79 336.5,-168.79"/>
</g>
<!-- PortalLayoutSceneModule -->
<g id="node3" class="node">
<title>PortalLayoutSceneModule</title>
<polygon fill="#8dd3c7" stroke="black" points="510.07,-84.8 507.07,-88.8 486.07,-88.8 483.07,-84.8 343.93,-84.8 343.93,-48.8 510.07,-48.8 510.07,-84.8"/>
<text text-anchor="middle" x="427" y="-62.6" font-family="Times,serif" font-size="14.00">PortalLayoutSceneModule</text>
</g>
<!-- PortalLayoutSceneModule&#45;&gt;PortalModule -->
<g id="edge2" class="edge">
<title>PortalLayoutSceneModule&#45;&gt;PortalModule</title>
<path fill="none" stroke="black" d="M365.23,-84.91C365.23,-84.91 365.23,-103.79 365.23,-103.79"/>
<polygon fill="black" stroke="black" points="361.73,-103.79 365.23,-113.79 368.73,-103.79 361.73,-103.79"/>
</g>
<!-- PortalProvidersModule -->
<g id="node4" class="node">
<title>PortalProvidersModule</title>
<polygon fill="#8dd3c7" stroke="black" points="326.14,-84.8 323.14,-88.8 302.14,-88.8 299.14,-84.8 179.86,-84.8 179.86,-48.8 326.14,-48.8 326.14,-84.8"/>
<text text-anchor="middle" x="253" y="-62.6" font-family="Times,serif" font-size="14.00">PortalProvidersModule</text>
</g>
<!-- PortalProvidersModule&#45;&gt;PortalModule -->
<g id="edge3" class="edge">
<title>PortalProvidersModule&#45;&gt;PortalModule</title>
<path fill="none" stroke="black" d="M309.91,-84.91C309.91,-84.91 309.91,-103.79 309.91,-103.79"/>
<polygon fill="black" stroke="black" points="306.41,-103.79 309.91,-113.79 313.41,-103.79 306.41,-103.79"/>
</g>
<!-- PortalRoutingModule -->
<g id="node5" class="node">
<title>PortalRoutingModule</title>
<polygon fill="#8dd3c7" stroke="black" points="162.11,-84.8 159.11,-88.8 138.11,-88.8 135.11,-84.8 23.89,-84.8 23.89,-48.8 162.11,-48.8 162.11,-84.8"/>
<text text-anchor="middle" x="93" y="-62.6" font-family="Times,serif" font-size="14.00">PortalRoutingModule</text>
</g>
<!-- PortalRoutingModule&#45;&gt;PortalModule -->
<g id="edge4" class="edge">
<title>PortalRoutingModule&#45;&gt;PortalModule</title>
<path fill="none" stroke="black" d="M93,-84.91C93,-104.14 93,-131.8 93,-131.8 93,-131.8 283.25,-131.8 283.25,-131.8"/>
<polygon fill="black" stroke="black" points="283.25,-135.3 293.25,-131.8 283.25,-128.3 283.25,-135.3"/>
</g>
</g>
</svg>
