<?xml version="1.0" encoding="UTF-8" standalone="no"?>
<!DOCTYPE svg PUBLIC "-//W3C//DTD SVG 1.1//EN"
 "http://www.w3.org/Graphics/SVG/1.1/DTD/svg11.dtd">
<!-- Generated by graphviz version 2.47.3 (20210619.1520)
 -->
<!-- Title: dependencies Pages: 1 -->
<svg width="2714pt" height="321pt"
 viewBox="0.00 0.00 2714.00 320.80" xmlns="http://www.w3.org/2000/svg" xmlns:xlink="http://www.w3.org/1999/xlink">
<g id="graph0" class="graph" transform="scale(1 1) rotate(0) translate(4 316.8)">
<title>dependencies</title>
<polygon fill="white" stroke="transparent" points="-4,4 -4,-316.8 2710,-316.8 2710,4 -4,4"/>
<text text-anchor="middle" x="1353" y="-8.2" font-family="sans-serif" font-size="14.00">dependencies</text>
<g id="clust1" class="cluster">
<title>cluster_ApplicationActionsModule</title>
<polygon fill="none" stroke="black" stroke-dasharray="1,5" points="8,-32.8 8,-236.8 428,-236.8 428,-32.8 8,-32.8"/>
</g>
<g id="clust2" class="cluster">
<title>cluster_ApplicationActionsModule_declarations</title>
<polygon fill="none" stroke="black" points="16,-40.8 16,-92.8 222,-92.8 222,-40.8 16,-40.8"/>
</g>
<g id="clust4" class="cluster">
<title>cluster_ApplicationActionsModule_imports</title>
<polygon fill="none" stroke="black" points="230,-40.8 230,-92.8 420,-92.8 420,-40.8 230,-40.8"/>
</g>
<g id="clust5" class="cluster">
<title>cluster_ApplicationActionsModule_exports</title>
<polygon fill="none" stroke="black" points="200,-176.8 200,-228.8 410,-228.8 410,-176.8 200,-176.8"/>
</g>
<g id="clust8" class="cluster">
<title>cluster_ApplicationCardModule</title>
<polygon fill="none" stroke="black" stroke-dasharray="1,5" points="1360,-32.8 1360,-236.8 1570,-236.8 1570,-32.8 1360,-32.8"/>
</g>
<g id="clust9" class="cluster">
<title>cluster_ApplicationCardModule_declarations</title>
<polygon fill="none" stroke="black" points="1368,-40.8 1368,-92.8 1558,-92.8 1558,-40.8 1368,-40.8"/>
</g>
<g id="clust12" class="cluster">
<title>cluster_ApplicationCardModule_exports</title>
<polygon fill="none" stroke="black" points="1368,-176.8 1368,-228.8 1562,-228.8 1562,-176.8 1368,-176.8"/>
</g>
<g id="clust15" class="cluster">
<title>cluster_ApplicationsCarouselModule</title>
<polygon fill="none" stroke="black" stroke-dasharray="1,5" points="1114,-100.8 1114,-304.8 1352,-304.8 1352,-100.8 1114,-100.8"/>
</g>
<g id="clust16" class="cluster">
<title>cluster_ApplicationsCarouselModule_declarations</title>
<polygon fill="none" stroke="black" points="1125,-108.8 1125,-160.8 1343,-160.8 1343,-108.8 1125,-108.8"/>
</g>
<g id="clust19" class="cluster">
<title>cluster_ApplicationsCarouselModule_exports</title>
<polygon fill="none" stroke="black" points="1122,-244.8 1122,-296.8 1344,-296.8 1344,-244.8 1122,-244.8"/>
</g>
<g id="clust22" class="cluster">
<title>cluster_ApplicationSheetModule</title>
<polygon fill="none" stroke="black" stroke-dasharray="1,5" points="892,-100.8 892,-304.8 1106,-304.8 1106,-100.8 892,-100.8"/>
</g>
<g id="clust23" class="cluster">
<title>cluster_ApplicationSheetModule_declarations</title>
<polygon fill="none" stroke="black" points="901,-108.8 901,-160.8 1095,-160.8 1095,-108.8 901,-108.8"/>
</g>
<g id="clust26" class="cluster">
<title>cluster_ApplicationSheetModule_exports</title>
<polygon fill="none" stroke="black" points="900,-244.8 900,-296.8 1098,-296.8 1098,-244.8 900,-244.8"/>
</g>
<g id="clust29" class="cluster">
<title>cluster_ApplicationShortcutModule</title>
<polygon fill="none" stroke="black" stroke-dasharray="1,5" points="436,-100.8 436,-168.8 884,-168.8 884,-100.8 436,-100.8"/>
</g>
<g id="clust30" class="cluster">
<title>cluster_ApplicationShortcutModule_declarations</title>
<polygon fill="none" stroke="black" points="666,-108.8 666,-160.8 876,-160.8 876,-108.8 666,-108.8"/>
</g>
<g id="clust33" class="cluster">
<title>cluster_ApplicationShortcutModule_exports</title>
<polygon fill="none" stroke="black" points="444,-108.8 444,-160.8 658,-160.8 658,-108.8 444,-108.8"/>
</g>
<g id="clust36" class="cluster">
<title>cluster_ApplicationToolbarModule</title>
<polygon fill="none" stroke="black" stroke-dasharray="1,5" points="1578,-32.8 1578,-236.8 1806,-236.8 1806,-32.8 1578,-32.8"/>
</g>
<g id="clust37" class="cluster">
<title>cluster_ApplicationToolbarModule_declarations</title>
<polygon fill="none" stroke="black" points="1588,-40.8 1588,-92.8 1796,-92.8 1796,-40.8 1588,-40.8"/>
</g>
<g id="clust40" class="cluster">
<title>cluster_ApplicationToolbarModule_exports</title>
<polygon fill="none" stroke="black" points="1586,-176.8 1586,-228.8 1798,-228.8 1798,-176.8 1586,-176.8"/>
</g>
<g id="clust43" class="cluster">
<title>cluster_ApplicationViewModule</title>
<polygon fill="none" stroke="black" stroke-dasharray="1,5" points="1814,-32.8 1814,-236.8 2228,-236.8 2228,-32.8 1814,-32.8"/>
</g>
<g id="clust44" class="cluster">
<title>cluster_ApplicationViewModule_declarations</title>
<polygon fill="none" stroke="black" points="1822,-40.8 1822,-92.8 2016,-92.8 2016,-40.8 1822,-40.8"/>
</g>
<g id="clust46" class="cluster">
<title>cluster_ApplicationViewModule_imports</title>
<polygon fill="none" stroke="black" points="2024,-40.8 2024,-92.8 2220,-92.8 2220,-40.8 2024,-40.8"/>
</g>
<g id="clust47" class="cluster">
<title>cluster_ApplicationViewModule_exports</title>
<polygon fill="none" stroke="black" points="1922,-176.8 1922,-228.8 2120,-228.8 2120,-176.8 1922,-176.8"/>
</g>
<g id="clust50" class="cluster">
<title>cluster_ApplicationWebviewModule</title>
<polygon fill="none" stroke="black" stroke-dasharray="1,5" points="2236,-100.8 2236,-168.8 2698,-168.8 2698,-100.8 2236,-100.8"/>
</g>
<g id="clust51" class="cluster">
<title>cluster_ApplicationWebviewModule_declarations</title>
<polygon fill="none" stroke="black" points="2472,-108.8 2472,-160.8 2690,-160.8 2690,-108.8 2472,-108.8"/>
</g>
<g id="clust54" class="cluster">
<title>cluster_ApplicationWebviewModule_exports</title>
<polygon fill="none" stroke="black" points="2244,-108.8 2244,-160.8 2464,-160.8 2464,-108.8 2244,-108.8"/>
</g>
<!-- ApplicationActionsComponent -->
<g id="node1" class="node">
<title>ApplicationActionsComponent</title>
<polygon fill="#ffffb3" stroke="black" points="214.48,-84.8 23.52,-84.8 23.52,-48.8 214.48,-48.8 214.48,-84.8"/>
<text text-anchor="middle" x="119" y="-62.6" font-family="Times,serif" font-size="14.00">ApplicationActionsComponent</text>
</g>
<!-- ApplicationActionsModule -->
<g id="node2" class="node">
<title>ApplicationActionsModule</title>
<polygon fill="#8dd3c7" stroke="black" points="389.7,-152.8 386.7,-156.8 365.7,-156.8 362.7,-152.8 220.3,-152.8 220.3,-116.8 389.7,-116.8 389.7,-152.8"/>
<text text-anchor="middle" x="305" y="-130.6" font-family="Times,serif" font-size="14.00">ApplicationActionsModule</text>
</g>
<!-- ApplicationActionsComponent&#45;&gt;ApplicationActionsModule -->
<g id="edge1" class="edge">
<title>ApplicationActionsComponent&#45;&gt;ApplicationActionsModule</title>
<path fill="none" stroke="black" d="M214.54,-66.8C223.56,-66.8 229.43,-66.8 229.43,-66.8 229.43,-66.8 229.43,-106.58 229.43,-106.58"/>
<polygon fill="black" stroke="black" points="225.93,-106.58 229.43,-116.58 232.93,-106.58 225.93,-106.58"/>
</g>
<!-- ApplicationActionsComponent  -->
<g id="node4" class="node">
<title>ApplicationActionsComponent </title>
<polygon fill="#fb8072" stroke="black" points="402.48,-220.8 207.52,-220.8 207.52,-184.8 402.48,-184.8 402.48,-220.8"/>
<text text-anchor="middle" x="305" y="-198.6" font-family="Times,serif" font-size="14.00">ApplicationActionsComponent </text>
</g>
<!-- ApplicationActionsModule&#45;&gt;ApplicationActionsComponent  -->
<g id="edge3" class="edge">
<title>ApplicationActionsModule&#45;&gt;ApplicationActionsComponent </title>
<path fill="none" stroke="black" stroke-dasharray="5,2" d="M305,-153.02C305,-153.02 305,-174.53 305,-174.53"/>
<polygon fill="black" stroke="black" points="301.5,-174.53 305,-184.53 308.5,-174.53 301.5,-174.53"/>
</g>
<!-- ApplicationSheetModule -->
<g id="node12" class="node">
<title>ApplicationSheetModule</title>
<polygon fill="#8dd3c7" stroke="black" points="1076.25,-220.8 1073.25,-224.8 1052.25,-224.8 1049.25,-220.8 919.75,-220.8 919.75,-184.8 1076.25,-184.8 1076.25,-220.8"/>
<text text-anchor="middle" x="998" y="-198.6" font-family="Times,serif" font-size="14.00">ApplicationSheetModule</text>
</g>
<!-- ApplicationActionsModule&#45;&gt;ApplicationSheetModule -->
<g id="edge10" class="edge">
<title>ApplicationActionsModule&#45;&gt;ApplicationSheetModule</title>
<path fill="none" stroke="black" d="M389.87,-140.8C398.73,-140.8 404.56,-140.8 404.56,-140.8 404.56,-140.8 404.56,-208.8 404.56,-208.8 404.56,-208.8 909.5,-208.8 909.5,-208.8"/>
<polygon fill="black" stroke="black" points="909.5,-212.3 919.5,-208.8 909.5,-205.3 909.5,-212.3"/>
</g>
<!-- ApplicationShortcutModule -->
<g id="node3" class="node">
<title>ApplicationShortcutModule</title>
<polygon fill="#8dd3c7" stroke="black" points="411.59,-84.8 408.59,-88.8 387.59,-88.8 384.59,-84.8 238.41,-84.8 238.41,-48.8 411.59,-48.8 411.59,-84.8"/>
<text text-anchor="middle" x="325" y="-62.6" font-family="Times,serif" font-size="14.00">ApplicationShortcutModule</text>
</g>
<!-- ApplicationShortcutModule&#45;&gt;ApplicationActionsModule -->
<g id="edge2" class="edge">
<title>ApplicationShortcutModule&#45;&gt;ApplicationActionsModule</title>
<path fill="none" stroke="black" d="M314.03,-85.02C314.03,-85.02 314.03,-106.53 314.03,-106.53"/>
<polygon fill="black" stroke="black" points="310.53,-106.53 314.03,-116.53 317.53,-106.53 310.53,-106.53"/>
</g>
<!-- ApplicationShortcutModule&#45;&gt;ApplicationSheetModule -->
<g id="edge12" class="edge">
<title>ApplicationShortcutModule&#45;&gt;ApplicationSheetModule</title>
<path fill="none" stroke="black" d="M406.89,-84.88C406.89,-120.6 406.89,-196.8 406.89,-196.8 406.89,-196.8 909.51,-196.8 909.51,-196.8"/>
<polygon fill="black" stroke="black" points="909.51,-200.3 919.51,-196.8 909.51,-193.3 909.51,-200.3"/>
</g>
<!-- ApplicationShortcutComponent  -->
<g id="node15" class="node">
<title>ApplicationShortcutComponent </title>
<polygon fill="#fb8072" stroke="black" points="650.37,-152.8 451.63,-152.8 451.63,-116.8 650.37,-116.8 650.37,-152.8"/>
<text text-anchor="middle" x="551" y="-130.6" font-family="Times,serif" font-size="14.00">ApplicationShortcutComponent </text>
</g>
<!-- ApplicationShortcutModule&#45;&gt;ApplicationShortcutComponent  -->
<g id="edge15" class="edge">
<title>ApplicationShortcutModule&#45;&gt;ApplicationShortcutComponent </title>
<path fill="none" stroke="black" stroke-dasharray="5,2" d="M409.22,-85.07C409.22,-103.36 409.22,-128.8 409.22,-128.8 409.22,-128.8 441.76,-128.8 441.76,-128.8"/>
<polygon fill="black" stroke="black" points="441.76,-132.3 451.76,-128.8 441.76,-125.3 441.76,-132.3"/>
</g>
<!-- ApplicationCardComponent -->
<g id="node5" class="node">
<title>ApplicationCardComponent</title>
<polygon fill="#ffffb3" stroke="black" points="1550.14,-84.8 1375.86,-84.8 1375.86,-48.8 1550.14,-48.8 1550.14,-84.8"/>
<text text-anchor="middle" x="1463" y="-62.6" font-family="Times,serif" font-size="14.00">ApplicationCardComponent</text>
</g>
<!-- ApplicationCardModule -->
<g id="node6" class="node">
<title>ApplicationCardModule</title>
<polygon fill="#8dd3c7" stroke="black" points="1529.36,-152.8 1526.36,-156.8 1505.36,-156.8 1502.36,-152.8 1376.64,-152.8 1376.64,-116.8 1529.36,-116.8 1529.36,-152.8"/>
<text text-anchor="middle" x="1453" y="-130.6" font-family="Times,serif" font-size="14.00">ApplicationCardModule</text>
</g>
<!-- ApplicationCardComponent&#45;&gt;ApplicationCardModule -->
<g id="edge4" class="edge">
<title>ApplicationCardComponent&#45;&gt;ApplicationCardModule</title>
<path fill="none" stroke="black" d="M1453,-85.02C1453,-85.02 1453,-106.53 1453,-106.53"/>
<polygon fill="black" stroke="black" points="1449.5,-106.53 1453,-116.53 1456.5,-106.53 1449.5,-106.53"/>
</g>
<!-- ApplicationCardComponent  -->
<g id="node7" class="node">
<title>ApplicationCardComponent </title>
<polygon fill="#fb8072" stroke="black" points="1554.14,-220.8 1375.86,-220.8 1375.86,-184.8 1554.14,-184.8 1554.14,-220.8"/>
<text text-anchor="middle" x="1465" y="-198.6" font-family="Times,serif" font-size="14.00">ApplicationCardComponent </text>
</g>
<!-- ApplicationCardModule&#45;&gt;ApplicationCardComponent  -->
<g id="edge5" class="edge">
<title>ApplicationCardModule&#45;&gt;ApplicationCardComponent </title>
<path fill="none" stroke="black" stroke-dasharray="5,2" d="M1478.48,-153.02C1478.48,-153.02 1478.48,-174.53 1478.48,-174.53"/>
<polygon fill="black" stroke="black" points="1474.98,-174.53 1478.48,-184.53 1481.98,-174.53 1474.98,-174.53"/>
</g>
<!-- ApplicationsCarouselModule -->
<g id="node9" class="node">
<title>ApplicationsCarouselModule</title>
<polygon fill="#8dd3c7" stroke="black" points="1324.35,-220.8 1321.35,-224.8 1300.35,-224.8 1297.35,-220.8 1143.65,-220.8 1143.65,-184.8 1324.35,-184.8 1324.35,-220.8"/>
<text text-anchor="middle" x="1234" y="-198.6" font-family="Times,serif" font-size="14.00">ApplicationsCarouselModule</text>
</g>
<!-- ApplicationCardModule&#45;&gt;ApplicationsCarouselModule -->
<g id="edge7" class="edge">
<title>ApplicationCardModule&#45;&gt;ApplicationsCarouselModule</title>
<path fill="none" stroke="black" d="M1376.47,-134.8C1364.43,-134.8 1355.87,-134.8 1355.87,-134.8 1355.87,-134.8 1355.87,-202.8 1355.87,-202.8 1355.87,-202.8 1334.49,-202.8 1334.49,-202.8"/>
<polygon fill="black" stroke="black" points="1334.49,-199.3 1324.49,-202.8 1334.49,-206.3 1334.49,-199.3"/>
</g>
<!-- ApplicationCardModule&#45;&gt;ApplicationSheetModule -->
<g id="edge11" class="edge">
<title>ApplicationCardModule&#45;&gt;ApplicationSheetModule</title>
<path fill="none" stroke="black" d="M1427.52,-152.99C1427.52,-161.08 1427.52,-168.8 1427.52,-168.8 1427.52,-168.8 1024.13,-168.8 1024.13,-168.8 1024.13,-168.8 1024.13,-174.61 1024.13,-174.61"/>
<polygon fill="black" stroke="black" points="1020.63,-174.61 1024.13,-184.61 1027.63,-174.61 1020.63,-174.61"/>
</g>
<!-- ApplicationsCarouselComponent -->
<g id="node8" class="node">
<title>ApplicationsCarouselComponent</title>
<polygon fill="#ffffb3" stroke="black" points="1335.14,-152.8 1132.86,-152.8 1132.86,-116.8 1335.14,-116.8 1335.14,-152.8"/>
<text text-anchor="middle" x="1234" y="-130.6" font-family="Times,serif" font-size="14.00">ApplicationsCarouselComponent</text>
</g>
<!-- ApplicationsCarouselComponent&#45;&gt;ApplicationsCarouselModule -->
<g id="edge6" class="edge">
<title>ApplicationsCarouselComponent&#45;&gt;ApplicationsCarouselModule</title>
<path fill="none" stroke="black" d="M1234,-153.02C1234,-153.02 1234,-174.53 1234,-174.53"/>
<polygon fill="black" stroke="black" points="1230.5,-174.53 1234,-184.53 1237.5,-174.53 1230.5,-174.53"/>
</g>
<!-- ApplicationsCarouselComponent  -->
<g id="node10" class="node">
<title>ApplicationsCarouselComponent </title>
<polygon fill="#fb8072" stroke="black" points="1336.14,-288.8 1129.86,-288.8 1129.86,-252.8 1336.14,-252.8 1336.14,-288.8"/>
<text text-anchor="middle" x="1233" y="-266.6" font-family="Times,serif" font-size="14.00">ApplicationsCarouselComponent </text>
</g>
<!-- ApplicationsCarouselModule&#45;&gt;ApplicationsCarouselComponent  -->
<g id="edge8" class="edge">
<title>ApplicationsCarouselModule&#45;&gt;ApplicationsCarouselComponent </title>
<path fill="none" stroke="black" stroke-dasharray="5,2" d="M1234,-221.02C1234,-221.02 1234,-242.53 1234,-242.53"/>
<polygon fill="black" stroke="black" points="1230.5,-242.53 1234,-252.53 1237.5,-242.53 1230.5,-242.53"/>
</g>
<!-- ApplicationSheetComponent -->
<g id="node11" class="node">
<title>ApplicationSheetComponent</title>
<polygon fill="#ffffb3" stroke="black" points="1087.03,-152.8 908.97,-152.8 908.97,-116.8 1087.03,-116.8 1087.03,-152.8"/>
<text text-anchor="middle" x="998" y="-130.6" font-family="Times,serif" font-size="14.00">ApplicationSheetComponent</text>
</g>
<!-- ApplicationSheetComponent&#45;&gt;ApplicationSheetModule -->
<g id="edge9" class="edge">
<title>ApplicationSheetComponent&#45;&gt;ApplicationSheetModule</title>
<path fill="none" stroke="black" d="M971.87,-153.02C971.87,-153.02 971.87,-174.53 971.87,-174.53"/>
<polygon fill="black" stroke="black" points="968.38,-174.53 971.87,-184.53 975.38,-174.53 968.38,-174.53"/>
</g>
<!-- ApplicationSheetComponent  -->
<g id="node13" class="node">
<title>ApplicationSheetComponent </title>
<polygon fill="#fb8072" stroke="black" points="1090.03,-288.8 907.97,-288.8 907.97,-252.8 1090.03,-252.8 1090.03,-288.8"/>
<text text-anchor="middle" x="999" y="-266.6" font-family="Times,serif" font-size="14.00">ApplicationSheetComponent </text>
</g>
<!-- ApplicationSheetModule&#45;&gt;ApplicationSheetComponent  -->
<g id="edge13" class="edge">
<title>ApplicationSheetModule&#45;&gt;ApplicationSheetComponent </title>
<path fill="none" stroke="black" stroke-dasharray="5,2" d="M998,-221.02C998,-221.02 998,-242.53 998,-242.53"/>
<polygon fill="black" stroke="black" points="994.5,-242.53 998,-252.53 1001.5,-242.53 994.5,-242.53"/>
</g>
<!-- ApplicationShortcutComponent -->
<g id="node14" class="node">
<title>ApplicationShortcutComponent</title>
<polygon fill="#ffffb3" stroke="black" points="868.37,-152.8 673.63,-152.8 673.63,-116.8 868.37,-116.8 868.37,-152.8"/>
<text text-anchor="middle" x="771" y="-130.6" font-family="Times,serif" font-size="14.00">ApplicationShortcutComponent</text>
</g>
<!-- ApplicationShortcutComponent&#45;&gt;ApplicationShortcutModule -->
<g id="edge14" class="edge">
<title>ApplicationShortcutComponent&#45;&gt;ApplicationShortcutModule</title>
<path fill="none" stroke="black" d="M771,-116.58C771,-96.43 771,-66.8 771,-66.8 771,-66.8 421.79,-66.8 421.79,-66.8"/>
<polygon fill="black" stroke="black" points="421.79,-63.3 411.79,-66.8 421.79,-70.3 421.79,-63.3"/>
</g>
<!-- ApplicationToolbarComponent -->
<g id="node16" class="node">
<title>ApplicationToolbarComponent</title>
<polygon fill="#ffffb3" stroke="black" points="1787.75,-84.8 1596.25,-84.8 1596.25,-48.8 1787.75,-48.8 1787.75,-84.8"/>
<text text-anchor="middle" x="1692" y="-62.6" font-family="Times,serif" font-size="14.00">ApplicationToolbarComponent</text>
</g>
<!-- ApplicationToolbarModule -->
<g id="node17" class="node">
<title>ApplicationToolbarModule</title>
<polygon fill="#8dd3c7" stroke="black" points="1776.97,-152.8 1773.97,-156.8 1752.97,-156.8 1749.97,-152.8 1607.03,-152.8 1607.03,-116.8 1776.97,-116.8 1776.97,-152.8"/>
<text text-anchor="middle" x="1692" y="-130.6" font-family="Times,serif" font-size="14.00">ApplicationToolbarModule</text>
</g>
<!-- ApplicationToolbarComponent&#45;&gt;ApplicationToolbarModule -->
<g id="edge16" class="edge">
<title>ApplicationToolbarComponent&#45;&gt;ApplicationToolbarModule</title>
<path fill="none" stroke="black" d="M1692,-85.02C1692,-85.02 1692,-106.53 1692,-106.53"/>
<polygon fill="black" stroke="black" points="1688.5,-106.53 1692,-116.53 1695.5,-106.53 1688.5,-106.53"/>
</g>
<!-- ApplicationToolbarComponent  -->
<g id="node18" class="node">
<title>ApplicationToolbarComponent </title>
<polygon fill="#fb8072" stroke="black" points="1789.75,-220.8 1594.25,-220.8 1594.25,-184.8 1789.75,-184.8 1789.75,-220.8"/>
<text text-anchor="middle" x="1692" y="-198.6" font-family="Times,serif" font-size="14.00">ApplicationToolbarComponent </text>
</g>
<!-- ApplicationToolbarModule&#45;&gt;ApplicationToolbarComponent  -->
<g id="edge17" class="edge">
<title>ApplicationToolbarModule&#45;&gt;ApplicationToolbarComponent </title>
<path fill="none" stroke="black" stroke-dasharray="5,2" d="M1692,-153.02C1692,-153.02 1692,-174.53 1692,-174.53"/>
<polygon fill="black" stroke="black" points="1688.5,-174.53 1692,-184.53 1695.5,-174.53 1688.5,-174.53"/>
</g>
<!-- ApplicationViewComponent -->
<g id="node19" class="node">
<title>ApplicationViewComponent</title>
<polygon fill="#ffffb3" stroke="black" points="2007.75,-84.8 1830.25,-84.8 1830.25,-48.8 2007.75,-48.8 2007.75,-84.8"/>
<text text-anchor="middle" x="1919" y="-62.6" font-family="Times,serif" font-size="14.00">ApplicationViewComponent</text>
</g>
<!-- ApplicationViewModule -->
<g id="node20" class="node">
<title>ApplicationViewModule</title>
<polygon fill="#8dd3c7" stroke="black" points="2098.97,-152.8 2095.97,-156.8 2074.97,-156.8 2071.97,-152.8 1943.03,-152.8 1943.03,-116.8 2098.97,-116.8 2098.97,-152.8"/>
<text text-anchor="middle" x="2021" y="-130.6" font-family="Times,serif" font-size="14.00">ApplicationViewModule</text>
</g>
<!-- ApplicationViewComponent&#45;&gt;ApplicationViewModule -->
<g id="edge18" class="edge">
<title>ApplicationViewComponent&#45;&gt;ApplicationViewModule</title>
<path fill="none" stroke="black" d="M1975.45,-85.02C1975.45,-85.02 1975.45,-106.53 1975.45,-106.53"/>
<polygon fill="black" stroke="black" points="1971.95,-106.53 1975.45,-116.53 1978.95,-106.53 1971.95,-106.53"/>
</g>
<!-- ApplicationViewComponent  -->
<g id="node22" class="node">
<title>ApplicationViewComponent </title>
<polygon fill="#fb8072" stroke="black" points="2111.75,-220.8 1930.25,-220.8 1930.25,-184.8 2111.75,-184.8 2111.75,-220.8"/>
<text text-anchor="middle" x="2021" y="-198.6" font-family="Times,serif" font-size="14.00">ApplicationViewComponent </text>
</g>
<!-- ApplicationViewModule&#45;&gt;ApplicationViewComponent  -->
<g id="edge20" class="edge">
<title>ApplicationViewModule&#45;&gt;ApplicationViewComponent </title>
<path fill="none" stroke="black" stroke-dasharray="5,2" d="M2021,-153.02C2021,-153.02 2021,-174.53 2021,-174.53"/>
<polygon fill="black" stroke="black" points="2017.5,-174.53 2021,-184.53 2024.5,-174.53 2017.5,-174.53"/>
</g>
<!-- ApplicationWebviewModule -->
<g id="node21" class="node">
<title>ApplicationWebviewModule</title>
<polygon fill="#8dd3c7" stroke="black" points="2211.79,-84.8 2208.79,-88.8 2187.79,-88.8 2184.79,-84.8 2032.21,-84.8 2032.21,-48.8 2211.79,-48.8 2211.79,-84.8"/>
<text text-anchor="middle" x="2122" y="-62.6" font-family="Times,serif" font-size="14.00">ApplicationWebviewModule</text>
</g>
<!-- ApplicationWebviewModule&#45;&gt;ApplicationViewModule -->
<g id="edge19" class="edge">
<title>ApplicationWebviewModule&#45;&gt;ApplicationViewModule</title>
<path fill="none" stroke="black" d="M2065.67,-85.02C2065.67,-85.02 2065.67,-106.53 2065.67,-106.53"/>
<polygon fill="black" stroke="black" points="2062.17,-106.53 2065.67,-116.53 2069.17,-106.53 2062.17,-106.53"/>
</g>
<!-- ApplicationWebviewComponent  -->
<g id="node24" class="node">
<title>ApplicationWebviewComponent </title>
<polygon fill="#fb8072" stroke="black" points="2456.07,-152.8 2251.93,-152.8 2251.93,-116.8 2456.07,-116.8 2456.07,-152.8"/>
<text text-anchor="middle" x="2354" y="-130.6" font-family="Times,serif" font-size="14.00">ApplicationWebviewComponent </text>
</g>
<!-- ApplicationWebviewModule&#45;&gt;ApplicationWebviewComponent  -->
<g id="edge22" class="edge">
<title>ApplicationWebviewModule&#45;&gt;ApplicationWebviewComponent </title>
<path fill="none" stroke="black" stroke-dasharray="5,2" d="M2161.63,-85.02C2161.63,-105.17 2161.63,-134.8 2161.63,-134.8 2161.63,-134.8 2241.9,-134.8 2241.9,-134.8"/>
<polygon fill="black" stroke="black" points="2241.9,-138.3 2251.9,-134.8 2241.9,-131.3 2241.9,-138.3"/>
</g>
<!-- ApplicationWebviewComponent -->
<g id="node23" class="node">
<title>ApplicationWebviewComponent</title>
<polygon fill="#ffffb3" stroke="black" points="2681.57,-152.8 2480.43,-152.8 2480.43,-116.8 2681.57,-116.8 2681.57,-152.8"/>
<text text-anchor="middle" x="2581" y="-130.6" font-family="Times,serif" font-size="14.00">ApplicationWebviewComponent</text>
</g>
<!-- ApplicationWebviewComponent&#45;&gt;ApplicationWebviewModule -->
<g id="edge21" class="edge">
<title>ApplicationWebviewComponent&#45;&gt;ApplicationWebviewModule</title>
<path fill="none" stroke="black" d="M2581,-116.58C2581,-96.43 2581,-66.8 2581,-66.8 2581,-66.8 2221.86,-66.8 2221.86,-66.8"/>
<polygon fill="black" stroke="black" points="2221.86,-63.3 2211.86,-66.8 2221.86,-70.3 2221.86,-63.3"/>
</g>
</g>
</svg>
