<?xml version="1.0" encoding="UTF-8" standalone="no"?>
<!DOCTYPE svg PUBLIC "-//W3C//DTD SVG 1.1//EN"
 "http://www.w3.org/Graphics/SVG/1.1/DTD/svg11.dtd">
<!-- Generated by graphviz version 2.47.3 (20210619.1520)
 -->
<!-- Title: dependencies Pages: 1 -->
<svg width="448pt" height="247pt"
 viewBox="0.00 0.00 448.00 246.80" xmlns="http://www.w3.org/2000/svg" xmlns:xlink="http://www.w3.org/1999/xlink">
<g id="graph0" class="graph" transform="scale(1 1) rotate(0) translate(4 242.8)">
<title>dependencies</title>
<polygon fill="white" stroke="transparent" points="-4,4 -4,-242.8 444,-242.8 444,4 -4,4"/>
<text text-anchor="middle" x="220" y="-8.2" font-family="sans-serif" font-size="14.00">dependencies</text>
<g id="clust1" class="cluster">
<title>cluster_AppModule</title>
<polygon fill="none" stroke="black" stroke-dasharray="1,5" points="8,-32.8 8,-230.8 148,-230.8 148,-32.8 8,-32.8"/>
</g>
<g id="clust2" class="cluster">
<title>cluster_AppModule_declarations</title>
<polygon fill="none" stroke="black" points="17,-40.8 17,-92.8 139,-92.8 139,-40.8 17,-40.8"/>
</g>
<g id="clust6" class="cluster">
<title>cluster_AppModule_bootstrap</title>
<polygon fill="none" stroke="black" points="16,-170.8 16,-222.8 140,-222.8 140,-170.8 16,-170.8"/>
</g>
<g id="clust8" class="cluster">
<title>cluster_LoginModule</title>
<polygon fill="none" stroke="black" stroke-dasharray="1,5" points="156,-32.8 156,-157.8 432,-157.8 432,-32.8 156,-32.8"/>
</g>
<g id="clust9" class="cluster">
<title>cluster_LoginModule_declarations</title>
<polygon fill="none" stroke="black" points="326,-40.8 326,-92.8 424,-92.8 424,-40.8 326,-40.8"/>
</g>
<g id="clust11" class="cluster">
<title>cluster_LoginModule_imports</title>
<polygon fill="none" stroke="black" points="164,-40.8 164,-92.8 318,-92.8 318,-40.8 164,-40.8"/>
</g>
<!-- AppComponent -->
<g id="node1" class="node">
<title>AppComponent</title>
<polygon fill="#ffffb3" stroke="black" points="130.94,-84.8 25.06,-84.8 25.06,-48.8 130.94,-48.8 130.94,-84.8"/>
<text text-anchor="middle" x="78" y="-62.6" font-family="Times,serif" font-size="14.00">AppComponent</text>
</g>
<!-- AppModule -->
<g id="node2" class="node">
<title>AppModule</title>
<polygon fill="#8dd3c7" stroke="black" points="119.66,-149.8 116.66,-153.8 95.66,-153.8 92.66,-149.8 36.34,-149.8 36.34,-113.8 119.66,-113.8 119.66,-149.8"/>
<text text-anchor="middle" x="78" y="-127.6" font-family="Times,serif" font-size="14.00">AppModule</text>
</g>
<!-- AppComponent&#45;&gt;AppModule -->
<g id="edge1" class="edge">
<title>AppComponent&#45;&gt;AppModule</title>
<path fill="none" stroke="black" d="M78,-84.91C78,-84.91 78,-103.79 78,-103.79"/>
<polygon fill="black" stroke="black" points="74.5,-103.79 78,-113.79 81.5,-103.79 74.5,-103.79"/>
</g>
<!-- AppComponent  -->
<g id="node3" class="node">
<title>AppComponent </title>
<polygon fill="#80b1d3" stroke="black" points="132.44,-214.8 23.56,-214.8 23.56,-178.8 132.44,-178.8 132.44,-214.8"/>
<text text-anchor="middle" x="78" y="-192.6" font-family="Times,serif" font-size="14.00">AppComponent </text>
</g>
<!-- AppModule&#45;&gt;AppComponent  -->
<g id="edge2" class="edge">
<title>AppModule&#45;&gt;AppComponent </title>
<path fill="none" stroke="black" stroke-dasharray="1,5" d="M78,-149.91C78,-149.91 78,-168.79 78,-168.79"/>
<polygon fill="black" stroke="black" points="74.5,-168.79 78,-178.79 81.5,-168.79 74.5,-168.79"/>
</g>
<!-- LoginScene -->
<g id="node4" class="node">
<title>LoginScene</title>
<polygon fill="#ffffb3" stroke="black" points="416.37,-84.8 333.63,-84.8 333.63,-48.8 416.37,-48.8 416.37,-84.8"/>
<text text-anchor="middle" x="375" y="-62.6" font-family="Times,serif" font-size="14.00">LoginScene</text>
</g>
<!-- LoginModule -->
<g id="node5" class="node">
<title>LoginModule</title>
<polygon fill="#8dd3c7" stroke="black" points="354.49,-149.8 351.49,-153.8 330.49,-153.8 327.49,-149.8 261.51,-149.8 261.51,-113.8 354.49,-113.8 354.49,-149.8"/>
<text text-anchor="middle" x="308" y="-127.6" font-family="Times,serif" font-size="14.00">LoginModule</text>
</g>
<!-- LoginScene&#45;&gt;LoginModule -->
<g id="edge3" class="edge">
<title>LoginScene&#45;&gt;LoginModule</title>
<path fill="none" stroke="black" d="M344.03,-84.91C344.03,-84.91 344.03,-103.79 344.03,-103.79"/>
<polygon fill="black" stroke="black" points="340.53,-103.79 344.03,-113.79 347.53,-103.79 340.53,-103.79"/>
</g>
<!-- LoginRoutingModule -->
<g id="node6" class="node">
<title>LoginRoutingModule</title>
<polygon fill="#8dd3c7" stroke="black" points="310.11,-84.8 307.11,-88.8 286.11,-88.8 283.11,-84.8 171.89,-84.8 171.89,-48.8 310.11,-48.8 310.11,-84.8"/>
<text text-anchor="middle" x="241" y="-62.6" font-family="Times,serif" font-size="14.00">LoginRoutingModule</text>
</g>
<!-- LoginRoutingModule&#45;&gt;LoginModule -->
<g id="edge4" class="edge">
<title>LoginRoutingModule&#45;&gt;LoginModule</title>
<path fill="none" stroke="black" d="M285.78,-84.91C285.78,-84.91 285.78,-103.79 285.78,-103.79"/>
<polygon fill="black" stroke="black" points="282.28,-103.79 285.78,-113.79 289.28,-103.79 282.28,-103.79"/>
</g>
</g>
</svg>
