<?xml version="1.0" encoding="UTF-8" standalone="no"?>
<!DOCTYPE svg PUBLIC "-//W3C//DTD SVG 1.1//EN"
 "http://www.w3.org/Graphics/SVG/1.1/DTD/svg11.dtd">
<!-- Generated by graphviz version 2.47.3 (20210619.1520)
 -->
<!-- Title: dependencies Pages: 1 -->
<svg width="326pt" height="247pt"
 viewBox="0.00 0.00 326.00 246.80" xmlns="http://www.w3.org/2000/svg" xmlns:xlink="http://www.w3.org/1999/xlink">
<g id="graph0" class="graph" transform="scale(1 1) rotate(0) translate(4 242.8)">
<title>dependencies</title>
<polygon fill="white" stroke="transparent" points="-4,4 -4,-242.8 322,-242.8 322,4 -4,4"/>
<text text-anchor="middle" x="159" y="-8.2" font-family="sans-serif" font-size="14.00">dependencies</text>
<g id="clust1" class="cluster">
<title>cluster_AvatarAppearancePreviewImageModule</title>
<polygon fill="none" stroke="black" stroke-dasharray="1,5" points="8,-32.8 8,-230.8 310,-230.8 310,-32.8 8,-32.8"/>
</g>
<g id="clust2" class="cluster">
<title>cluster_AvatarAppearancePreviewImageModule_declarations</title>
<polygon fill="none" stroke="black" points="17,-40.8 17,-92.8 301,-92.8 301,-40.8 17,-40.8"/>
</g>
<g id="clust5" class="cluster">
<title>cluster_AvatarAppearancePreviewImageModule_exports</title>
<polygon fill="none" stroke="black" points="16,-170.8 16,-222.8 302,-222.8 302,-170.8 16,-170.8"/>
</g>
<!-- AvatarAppearancePreviewImageComponent -->
<g id="node1" class="node">
<title>AvatarAppearancePreviewImageComponent</title>
<polygon fill="#ffffb3" stroke="black" points="292.61,-84.8 25.39,-84.8 25.39,-48.8 292.61,-48.8 292.61,-84.8"/>
<text text-anchor="middle" x="159" y="-62.6" font-family="Times,serif" font-size="14.00">AvatarAppearancePreviewImageComponent</text>
</g>
<!-- AvatarAppearancePreviewImageModule -->
<g id="node2" class="node">
<title>AvatarAppearancePreviewImageModule</title>
<polygon fill="#8dd3c7" stroke="black" points="281.83,-149.8 278.83,-153.8 257.83,-153.8 254.83,-149.8 36.17,-149.8 36.17,-113.8 281.83,-113.8 281.83,-149.8"/>
<text text-anchor="middle" x="159" y="-127.6" font-family="Times,serif" font-size="14.00">AvatarAppearancePreviewImageModule</text>
</g>
<!-- AvatarAppearancePreviewImageComponent&#45;&gt;AvatarAppearancePreviewImageModule -->
<g id="edge1" class="edge">
<title>AvatarAppearancePreviewImageComponent&#45;&gt;AvatarAppearancePreviewImageModule</title>
<path fill="none" stroke="black" d="M159,-84.91C159,-84.91 159,-103.79 159,-103.79"/>
<polygon fill="black" stroke="black" points="155.5,-103.79 159,-113.79 162.5,-103.79 155.5,-103.79"/>
</g>
<!-- AvatarAppearancePreviewImageComponent  -->
<g id="node3" class="node">
<title>AvatarAppearancePreviewImageComponent </title>
<polygon fill="#fb8072" stroke="black" points="294.11,-214.8 23.89,-214.8 23.89,-178.8 294.11,-178.8 294.11,-214.8"/>
<text text-anchor="middle" x="159" y="-192.6" font-family="Times,serif" font-size="14.00">AvatarAppearancePreviewImageComponent </text>
</g>
<!-- AvatarAppearancePreviewImageModule&#45;&gt;AvatarAppearancePreviewImageComponent  -->
<g id="edge2" class="edge">
<title>AvatarAppearancePreviewImageModule&#45;&gt;AvatarAppearancePreviewImageComponent </title>
<path fill="none" stroke="black" stroke-dasharray="5,2" d="M159,-149.91C159,-149.91 159,-168.79 159,-168.79"/>
<polygon fill="black" stroke="black" points="155.5,-168.79 159,-178.79 162.5,-168.79 155.5,-168.79"/>
</g>
</g>
</svg>
