<?xml version="1.0" encoding="UTF-8" standalone="no"?>
<!DOCTYPE svg PUBLIC "-//W3C//DTD SVG 1.1//EN"
 "http://www.w3.org/Graphics/SVG/1.1/DTD/svg11.dtd">
<!-- Generated by graphviz version 2.47.3 (20210619.1520)
 -->
<!-- Title: dependencies Pages: 1 -->
<svg width="635pt" height="247pt"
 viewBox="0.00 0.00 635.00 246.80" xmlns="http://www.w3.org/2000/svg" xmlns:xlink="http://www.w3.org/1999/xlink">
<g id="graph0" class="graph" transform="scale(1 1) rotate(0) translate(4 242.8)">
<title>dependencies</title>
<polygon fill="white" stroke="transparent" points="-4,4 -4,-242.8 631,-242.8 631,4 -4,4"/>
<text text-anchor="middle" x="313.5" y="-8.2" font-family="sans-serif" font-size="14.00">dependencies</text>
<g id="clust1" class="cluster">
<title>cluster_AvatarBiographyModule</title>
<polygon fill="none" stroke="black" stroke-dasharray="1,5" points="8,-32.8 8,-230.8 619,-230.8 619,-32.8 8,-32.8"/>
</g>
<g id="clust5" class="cluster">
<title>cluster_AvatarBiographyModule_exports</title>
<polygon fill="none" stroke="black" points="199,-170.8 199,-222.8 397,-222.8 397,-170.8 199,-170.8"/>
</g>
<g id="clust2" class="cluster">
<title>cluster_AvatarBiographyModule_declarations</title>
<polygon fill="none" stroke="black" points="417,-40.8 417,-92.8 611,-92.8 611,-40.8 417,-40.8"/>
</g>
<g id="clust4" class="cluster">
<title>cluster_AvatarBiographyModule_imports</title>
<polygon fill="none" stroke="black" points="16,-40.8 16,-92.8 409,-92.8 409,-40.8 16,-40.8"/>
</g>
<!-- AvatarBiographyComponent -->
<g id="node1" class="node">
<title>AvatarBiographyComponent</title>
<polygon fill="#ffffb3" stroke="black" points="603.02,-84.8 424.98,-84.8 424.98,-48.8 603.02,-48.8 603.02,-84.8"/>
<text text-anchor="middle" x="514" y="-62.6" font-family="Times,serif" font-size="14.00">AvatarBiographyComponent</text>
</g>
<!-- AvatarBiographyModule -->
<g id="node2" class="node">
<title>AvatarBiographyModule</title>
<polygon fill="#8dd3c7" stroke="black" points="376.24,-149.8 373.24,-153.8 352.24,-153.8 349.24,-149.8 219.76,-149.8 219.76,-113.8 376.24,-113.8 376.24,-149.8"/>
<text text-anchor="middle" x="298" y="-127.6" font-family="Times,serif" font-size="14.00">AvatarBiographyModule</text>
</g>
<!-- AvatarBiographyComponent&#45;&gt;AvatarBiographyModule -->
<g id="edge1" class="edge">
<title>AvatarBiographyComponent&#45;&gt;AvatarBiographyModule</title>
<path fill="none" stroke="black" d="M514,-84.91C514,-104.14 514,-131.8 514,-131.8 514,-131.8 386.29,-131.8 386.29,-131.8"/>
<polygon fill="black" stroke="black" points="386.29,-128.3 376.29,-131.8 386.29,-135.3 386.29,-128.3"/>
</g>
<!-- AvatarBiographyComponent  -->
<g id="node5" class="node">
<title>AvatarBiographyComponent </title>
<polygon fill="#fb8072" stroke="black" points="389.02,-214.8 206.98,-214.8 206.98,-178.8 389.02,-178.8 389.02,-214.8"/>
<text text-anchor="middle" x="298" y="-192.6" font-family="Times,serif" font-size="14.00">AvatarBiographyComponent </text>
</g>
<!-- AvatarBiographyModule&#45;&gt;AvatarBiographyComponent  -->
<g id="edge4" class="edge">
<title>AvatarBiographyModule&#45;&gt;AvatarBiographyComponent </title>
<path fill="none" stroke="black" stroke-dasharray="5,2" d="M298,-149.91C298,-149.91 298,-168.79 298,-168.79"/>
<polygon fill="black" stroke="black" points="294.5,-168.79 298,-178.79 301.5,-168.79 294.5,-168.79"/>
</g>
<!-- AvatarAppearancePortraitModule -->
<g id="node3" class="node">
<title>AvatarAppearancePortraitModule</title>
<polygon fill="#8dd3c7" stroke="black" points="401.47,-84.8 398.47,-88.8 377.47,-88.8 374.47,-84.8 194.53,-84.8 194.53,-48.8 401.47,-48.8 401.47,-84.8"/>
<text text-anchor="middle" x="298" y="-62.6" font-family="Times,serif" font-size="14.00">AvatarAppearancePortraitModule</text>
</g>
<!-- AvatarAppearancePortraitModule&#45;&gt;AvatarBiographyModule -->
<g id="edge2" class="edge">
<title>AvatarAppearancePortraitModule&#45;&gt;AvatarBiographyModule</title>
<path fill="none" stroke="black" d="M298,-84.91C298,-84.91 298,-103.79 298,-103.79"/>
<polygon fill="black" stroke="black" points="294.5,-103.79 298,-113.79 301.5,-103.79 294.5,-103.79"/>
</g>
<!-- AvatarsCarouselModule -->
<g id="node4" class="node">
<title>AvatarsCarouselModule</title>
<polygon fill="#8dd3c7" stroke="black" points="176.34,-84.8 173.34,-88.8 152.34,-88.8 149.34,-84.8 23.66,-84.8 23.66,-48.8 176.34,-48.8 176.34,-84.8"/>
<text text-anchor="middle" x="100" y="-62.6" font-family="Times,serif" font-size="14.00">AvatarsCarouselModule</text>
</g>
<!-- AvatarsCarouselModule&#45;&gt;AvatarBiographyModule -->
<g id="edge3" class="edge">
<title>AvatarsCarouselModule&#45;&gt;AvatarBiographyModule</title>
<path fill="none" stroke="black" d="M100,-84.91C100,-104.14 100,-131.8 100,-131.8 100,-131.8 209.75,-131.8 209.75,-131.8"/>
<polygon fill="black" stroke="black" points="209.75,-135.3 219.75,-131.8 209.75,-128.3 209.75,-135.3"/>
</g>
</g>
</svg>
