<?xml version="1.0" encoding="UTF-8" standalone="no"?>
<!DOCTYPE svg PUBLIC "-//W3C//DTD SVG 1.1//EN"
 "http://www.w3.org/Graphics/SVG/1.1/DTD/svg11.dtd">
<!-- Generated by graphviz version 2.47.3 (20210619.1520)
 -->
<!-- Title: dependencies Pages: 1 -->
<svg width="300pt" height="247pt"
 viewBox="0.00 0.00 300.00 246.80" xmlns="http://www.w3.org/2000/svg" xmlns:xlink="http://www.w3.org/1999/xlink">
<g id="graph0" class="graph" transform="scale(1 1) rotate(0) translate(4 242.8)">
<title>dependencies</title>
<polygon fill="white" stroke="transparent" points="-4,4 -4,-242.8 296,-242.8 296,4 -4,4"/>
<text text-anchor="middle" x="146" y="-8.2" font-family="sans-serif" font-size="14.00">dependencies</text>
<g id="clust1" class="cluster">
<title>cluster_AvatarAppearanceProvidersModule</title>
<polygon fill="none" stroke="black" stroke-dasharray="1,5" points="8,-32.8 8,-230.8 284,-230.8 284,-32.8 8,-32.8"/>
</g>
<g id="clust2" class="cluster">
<title>cluster_AvatarAppearanceProvidersModule_declarations</title>
<polygon fill="none" stroke="black" points="18,-40.8 18,-92.8 274,-92.8 274,-40.8 18,-40.8"/>
</g>
<g id="clust5" class="cluster">
<title>cluster_AvatarAppearanceProvidersModule_exports</title>
<polygon fill="none" stroke="black" points="16,-170.8 16,-222.8 276,-222.8 276,-170.8 16,-170.8"/>
</g>
<!-- AvatarAppearanceProvidersComponent -->
<g id="node1" class="node">
<title>AvatarAppearanceProvidersComponent</title>
<polygon fill="#ffffb3" stroke="black" points="265.91,-84.8 26.09,-84.8 26.09,-48.8 265.91,-48.8 265.91,-84.8"/>
<text text-anchor="middle" x="146" y="-62.6" font-family="Times,serif" font-size="14.00">AvatarAppearanceProvidersComponent</text>
</g>
<!-- AvatarAppearanceProvidersModule -->
<g id="node2" class="node">
<title>AvatarAppearanceProvidersModule</title>
<polygon fill="#8dd3c7" stroke="black" points="255.13,-149.8 252.13,-153.8 231.13,-153.8 228.13,-149.8 36.87,-149.8 36.87,-113.8 255.13,-113.8 255.13,-149.8"/>
<text text-anchor="middle" x="146" y="-127.6" font-family="Times,serif" font-size="14.00">AvatarAppearanceProvidersModule</text>
</g>
<!-- AvatarAppearanceProvidersComponent&#45;&gt;AvatarAppearanceProvidersModule -->
<g id="edge1" class="edge">
<title>AvatarAppearanceProvidersComponent&#45;&gt;AvatarAppearanceProvidersModule</title>
<path fill="none" stroke="black" d="M146,-84.91C146,-84.91 146,-103.79 146,-103.79"/>
<polygon fill="black" stroke="black" points="142.5,-103.79 146,-113.79 149.5,-103.79 142.5,-103.79"/>
</g>
<!-- AvatarAppearanceProvidersComponent  -->
<g id="node3" class="node">
<title>AvatarAppearanceProvidersComponent </title>
<polygon fill="#fb8072" stroke="black" points="267.91,-214.8 24.09,-214.8 24.09,-178.8 267.91,-178.8 267.91,-214.8"/>
<text text-anchor="middle" x="146" y="-192.6" font-family="Times,serif" font-size="14.00">AvatarAppearanceProvidersComponent </text>
</g>
<!-- AvatarAppearanceProvidersModule&#45;&gt;AvatarAppearanceProvidersComponent  -->
<g id="edge2" class="edge">
<title>AvatarAppearanceProvidersModule&#45;&gt;AvatarAppearanceProvidersComponent </title>
<path fill="none" stroke="black" stroke-dasharray="5,2" d="M146,-149.91C146,-149.91 146,-168.79 146,-168.79"/>
<polygon fill="black" stroke="black" points="142.5,-168.79 146,-178.79 149.5,-168.79 142.5,-168.79"/>
</g>
</g>
</svg>
