<?xml version="1.0" encoding="UTF-8" standalone="no"?>
<!DOCTYPE svg PUBLIC "-//W3C//DTD SVG 1.1//EN"
 "http://www.w3.org/Graphics/SVG/1.1/DTD/svg11.dtd">
<!-- Generated by graphviz version 2.47.3 (20210619.1520)
 -->
<!-- Title: dependencies Pages: 1 -->
<svg width="864pt" height="247pt"
 viewBox="0.00 0.00 864.00 246.80" xmlns="http://www.w3.org/2000/svg" xmlns:xlink="http://www.w3.org/1999/xlink">
<g id="graph0" class="graph" transform="scale(1 1) rotate(0) translate(4 242.8)">
<title>dependencies</title>
<polygon fill="white" stroke="transparent" points="-4,4 -4,-242.8 860,-242.8 860,4 -4,4"/>
<text text-anchor="middle" x="428" y="-8.2" font-family="sans-serif" font-size="14.00">dependencies</text>
<g id="clust1" class="cluster">
<title>cluster_AvatarAppearancePreviewModule</title>
<polygon fill="none" stroke="black" stroke-dasharray="1,5" points="8,-32.8 8,-230.8 848,-230.8 848,-32.8 8,-32.8"/>
</g>
<g id="clust4" class="cluster">
<title>cluster_AvatarAppearancePreviewModule_imports</title>
<polygon fill="none" stroke="black" points="272,-40.8 272,-92.8 840,-92.8 840,-40.8 272,-40.8"/>
</g>
<g id="clust2" class="cluster">
<title>cluster_AvatarAppearancePreviewModule_declarations</title>
<polygon fill="none" stroke="black" points="16,-40.8 16,-92.8 264,-92.8 264,-40.8 16,-40.8"/>
</g>
<g id="clust5" class="cluster">
<title>cluster_AvatarAppearancePreviewModule_exports</title>
<polygon fill="none" stroke="black" points="298,-170.8 298,-222.8 550,-222.8 550,-170.8 298,-170.8"/>
</g>
<!-- AvatarAppearancePreviewComponent -->
<g id="node1" class="node">
<title>AvatarAppearancePreviewComponent</title>
<polygon fill="#ffffb3" stroke="black" points="256.13,-84.8 23.87,-84.8 23.87,-48.8 256.13,-48.8 256.13,-84.8"/>
<text text-anchor="middle" x="140" y="-62.6" font-family="Times,serif" font-size="14.00">AvatarAppearancePreviewComponent</text>
</g>
<!-- AvatarAppearancePreviewModule -->
<g id="node2" class="node">
<title>AvatarAppearancePreviewModule</title>
<polygon fill="#8dd3c7" stroke="black" points="529.35,-149.8 526.35,-153.8 505.35,-153.8 502.35,-149.8 318.65,-149.8 318.65,-113.8 529.35,-113.8 529.35,-149.8"/>
<text text-anchor="middle" x="424" y="-127.6" font-family="Times,serif" font-size="14.00">AvatarAppearancePreviewModule</text>
</g>
<!-- AvatarAppearancePreviewComponent&#45;&gt;AvatarAppearancePreviewModule -->
<g id="edge1" class="edge">
<title>AvatarAppearancePreviewComponent&#45;&gt;AvatarAppearancePreviewModule</title>
<path fill="none" stroke="black" d="M140,-84.91C140,-104.14 140,-131.8 140,-131.8 140,-131.8 308.65,-131.8 308.65,-131.8"/>
<polygon fill="black" stroke="black" points="308.65,-135.3 318.65,-131.8 308.65,-128.3 308.65,-135.3"/>
</g>
<!-- AvatarAppearancePreviewComponent  -->
<g id="node5" class="node">
<title>AvatarAppearancePreviewComponent </title>
<polygon fill="#fb8072" stroke="black" points="541.63,-214.8 306.37,-214.8 306.37,-178.8 541.63,-178.8 541.63,-214.8"/>
<text text-anchor="middle" x="424" y="-192.6" font-family="Times,serif" font-size="14.00">AvatarAppearancePreviewComponent </text>
</g>
<!-- AvatarAppearancePreviewModule&#45;&gt;AvatarAppearancePreviewComponent  -->
<g id="edge4" class="edge">
<title>AvatarAppearancePreviewModule&#45;&gt;AvatarAppearancePreviewComponent </title>
<path fill="none" stroke="black" stroke-dasharray="5,2" d="M424,-149.91C424,-149.91 424,-168.79 424,-168.79"/>
<polygon fill="black" stroke="black" points="420.5,-168.79 424,-178.79 427.5,-168.79 420.5,-168.79"/>
</g>
<!-- AvatarAppearancePreviewImageModule -->
<g id="node3" class="node">
<title>AvatarAppearancePreviewImageModule</title>
<polygon fill="#8dd3c7" stroke="black" points="831.83,-84.8 828.83,-88.8 807.83,-88.8 804.83,-84.8 586.17,-84.8 586.17,-48.8 831.83,-48.8 831.83,-84.8"/>
<text text-anchor="middle" x="709" y="-62.6" font-family="Times,serif" font-size="14.00">AvatarAppearancePreviewImageModule</text>
</g>
<!-- AvatarAppearancePreviewImageModule&#45;&gt;AvatarAppearancePreviewModule -->
<g id="edge2" class="edge">
<title>AvatarAppearancePreviewImageModule&#45;&gt;AvatarAppearancePreviewModule</title>
<path fill="none" stroke="black" d="M709,-84.91C709,-104.14 709,-131.8 709,-131.8 709,-131.8 539.31,-131.8 539.31,-131.8"/>
<polygon fill="black" stroke="black" points="539.31,-128.3 529.31,-131.8 539.31,-135.3 539.31,-128.3"/>
</g>
<!-- AvatarAppearancePreviewModelViewerModule -->
<g id="node4" class="node">
<title>AvatarAppearancePreviewModelViewerModule</title>
<polygon fill="#8dd3c7" stroke="black" points="568.09,-84.8 565.09,-88.8 544.09,-88.8 541.09,-84.8 279.91,-84.8 279.91,-48.8 568.09,-48.8 568.09,-84.8"/>
<text text-anchor="middle" x="424" y="-62.6" font-family="Times,serif" font-size="14.00">AvatarAppearancePreviewModelViewerModule</text>
</g>
<!-- AvatarAppearancePreviewModelViewerModule&#45;&gt;AvatarAppearancePreviewModule -->
<g id="edge3" class="edge">
<title>AvatarAppearancePreviewModelViewerModule&#45;&gt;AvatarAppearancePreviewModule</title>
<path fill="none" stroke="black" d="M424,-84.91C424,-84.91 424,-103.79 424,-103.79"/>
<polygon fill="black" stroke="black" points="420.5,-103.79 424,-113.79 427.5,-103.79 420.5,-103.79"/>
</g>
</g>
</svg>
