<?xml version="1.0" encoding="UTF-8" standalone="no"?>
<!DOCTYPE svg PUBLIC "-//W3C//DTD SVG 1.1//EN"
 "http://www.w3.org/Graphics/SVG/1.1/DTD/svg11.dtd">
<!-- Generated by graphviz version 2.47.3 (20210619.1520)
 -->
<!-- Title: dependencies Pages: 1 -->
<svg width="864pt" height="247pt"
 viewBox="0.00 0.00 864.00 246.80" xmlns="http://www.w3.org/2000/svg" xmlns:xlink="http://www.w3.org/1999/xlink">
<g id="graph0" class="graph" transform="scale(1 1) rotate(0) translate(4 242.8)">
<title>dependencies</title>
<polygon fill="white" stroke="transparent" points="-4,4 -4,-242.8 860,-242.8 860,4 -4,4"/>
<text text-anchor="middle" x="428" y="-8.2" font-family="sans-serif" font-size="14.00">dependencies</text>
<g id="clust1" class="cluster">
<title>cluster_AvatarAppearancePreviewModule</title>
<polygon fill="none" stroke="black" stroke-dasharray="1,5" points="8,-32.8 8,-230.8 848,-230.8 848,-32.8 8,-32.8"/>
</g>
<g id="clust2" class="cluster">
<title>cluster_AvatarAppearancePreviewModule_declarations</title>
<polygon fill="none" stroke="black" points="592,-40.8 592,-92.8 840,-92.8 840,-40.8 592,-40.8"/>
</g>
<g id="clust4" class="cluster">
<title>cluster_AvatarAppearancePreviewModule_imports</title>
<polygon fill="none" stroke="black" points="16,-40.8 16,-92.8 584,-92.8 584,-40.8 16,-40.8"/>
</g>
<g id="clust5" class="cluster">
<title>cluster_AvatarAppearancePreviewModule_exports</title>
<polygon fill="none" stroke="black" points="327,-170.8 327,-222.8 579,-222.8 579,-170.8 327,-170.8"/>
</g>
<!-- AvatarAppearancePreviewComponent -->
<g id="node1" class="node">
<title>AvatarAppearancePreviewComponent</title>
<polygon fill="#ffffb3" stroke="black" points="832.13,-84.8 599.87,-84.8 599.87,-48.8 832.13,-48.8 832.13,-84.8"/>
<text text-anchor="middle" x="716" y="-62.6" font-family="Times,serif" font-size="14.00">AvatarAppearancePreviewComponent</text>
</g>
<!-- AvatarAppearancePreviewModule -->
<g id="node2" class="node">
<title>AvatarAppearancePreviewModule</title>
<polygon fill="#8dd3c7" stroke="black" points="558.35,-149.8 555.35,-153.8 534.35,-153.8 531.35,-149.8 347.65,-149.8 347.65,-113.8 558.35,-113.8 558.35,-149.8"/>
<text text-anchor="middle" x="453" y="-127.6" font-family="Times,serif" font-size="14.00">AvatarAppearancePreviewModule</text>
</g>
<!-- AvatarAppearancePreviewComponent&#45;&gt;AvatarAppearancePreviewModule -->
<g id="edge1" class="edge">
<title>AvatarAppearancePreviewComponent&#45;&gt;AvatarAppearancePreviewModule</title>
<path fill="none" stroke="black" d="M716,-84.91C716,-104.14 716,-131.8 716,-131.8 716,-131.8 568.46,-131.8 568.46,-131.8"/>
<polygon fill="black" stroke="black" points="568.46,-128.3 558.46,-131.8 568.46,-135.3 568.46,-128.3"/>
</g>
<!-- AvatarAppearancePreviewComponent  -->
<g id="node5" class="node">
<title>AvatarAppearancePreviewComponent </title>
<polygon fill="#fb8072" stroke="black" points="570.63,-214.8 335.37,-214.8 335.37,-178.8 570.63,-178.8 570.63,-214.8"/>
<text text-anchor="middle" x="453" y="-192.6" font-family="Times,serif" font-size="14.00">AvatarAppearancePreviewComponent </text>
</g>
<!-- AvatarAppearancePreviewModule&#45;&gt;AvatarAppearancePreviewComponent  -->
<g id="edge4" class="edge">
<title>AvatarAppearancePreviewModule&#45;&gt;AvatarAppearancePreviewComponent </title>
<path fill="none" stroke="black" stroke-dasharray="5,2" d="M453,-149.91C453,-149.91 453,-168.79 453,-168.79"/>
<polygon fill="black" stroke="black" points="449.5,-168.79 453,-178.79 456.5,-168.79 449.5,-168.79"/>
</g>
<!-- AvatarAppearancePreviewImageModule -->
<g id="node3" class="node">
<title>AvatarAppearancePreviewImageModule</title>
<polygon fill="#8dd3c7" stroke="black" points="575.83,-84.8 572.83,-88.8 551.83,-88.8 548.83,-84.8 330.17,-84.8 330.17,-48.8 575.83,-48.8 575.83,-84.8"/>
<text text-anchor="middle" x="453" y="-62.6" font-family="Times,serif" font-size="14.00">AvatarAppearancePreviewImageModule</text>
</g>
<!-- AvatarAppearancePreviewImageModule&#45;&gt;AvatarAppearancePreviewModule -->
<g id="edge2" class="edge">
<title>AvatarAppearancePreviewImageModule&#45;&gt;AvatarAppearancePreviewModule</title>
<path fill="none" stroke="black" d="M453,-84.91C453,-84.91 453,-103.79 453,-103.79"/>
<polygon fill="black" stroke="black" points="449.5,-103.79 453,-113.79 456.5,-103.79 449.5,-103.79"/>
</g>
<!-- AvatarAppearancePreviewModelViewerModule -->
<g id="node4" class="node">
<title>AvatarAppearancePreviewModelViewerModule</title>
<polygon fill="#8dd3c7" stroke="black" points="312.09,-84.8 309.09,-88.8 288.09,-88.8 285.09,-84.8 23.91,-84.8 23.91,-48.8 312.09,-48.8 312.09,-84.8"/>
<text text-anchor="middle" x="168" y="-62.6" font-family="Times,serif" font-size="14.00">AvatarAppearancePreviewModelViewerModule</text>
</g>
<!-- AvatarAppearancePreviewModelViewerModule&#45;&gt;AvatarAppearancePreviewModule -->
<g id="edge3" class="edge">
<title>AvatarAppearancePreviewModelViewerModule&#45;&gt;AvatarAppearancePreviewModule</title>
<path fill="none" stroke="black" d="M168,-84.91C168,-104.14 168,-131.8 168,-131.8 168,-131.8 337.69,-131.8 337.69,-131.8"/>
<polygon fill="black" stroke="black" points="337.69,-135.3 347.69,-131.8 337.69,-128.3 337.69,-135.3"/>
</g>
</g>
</svg>
