<?xml version="1.0" encoding="UTF-8" standalone="no"?>
<!DOCTYPE svg PUBLIC "-//W3C//DTD SVG 1.1//EN"
 "http://www.w3.org/Graphics/SVG/1.1/DTD/svg11.dtd">
<!-- Generated by graphviz version 2.47.3 (20210619.1520)
 -->
<!-- Title: dependencies Pages: 1 -->
<svg width="168pt" height="247pt"
 viewBox="0.00 0.00 168.00 246.80" xmlns="http://www.w3.org/2000/svg" xmlns:xlink="http://www.w3.org/1999/xlink">
<g id="graph0" class="graph" transform="scale(1 1) rotate(0) translate(4 242.8)">
<title>dependencies</title>
<polygon fill="white" stroke="transparent" points="-4,4 -4,-242.8 164,-242.8 164,4 -4,4"/>
<text text-anchor="middle" x="80" y="-8.2" font-family="sans-serif" font-size="14.00">dependencies</text>
<g id="clust1" class="cluster">
<title>cluster_WorldSceneModule</title>
<polygon fill="none" stroke="black" stroke-dasharray="1,5" points="8,-32.8 8,-230.8 152,-230.8 152,-32.8 8,-32.8"/>
</g>
<g id="clust5" class="cluster">
<title>cluster_WorldSceneModule_exports</title>
<polygon fill="none" stroke="black" points="28,-170.8 28,-222.8 132,-222.8 132,-170.8 28,-170.8"/>
</g>
<g id="clust2" class="cluster">
<title>cluster_WorldSceneModule_declarations</title>
<polygon fill="none" stroke="black" points="29,-40.8 29,-92.8 131,-92.8 131,-40.8 29,-40.8"/>
</g>
<!-- WorldScene -->
<g id="node1" class="node">
<title>WorldScene</title>
<polygon fill="#ffffb3" stroke="black" points="122.69,-84.8 37.31,-84.8 37.31,-48.8 122.69,-48.8 122.69,-84.8"/>
<text text-anchor="middle" x="80" y="-62.6" font-family="Times,serif" font-size="14.00">WorldScene</text>
</g>
<!-- WorldSceneModule -->
<g id="node2" class="node">
<title>WorldSceneModule</title>
<polygon fill="#8dd3c7" stroke="black" points="144.24,-149.8 141.24,-153.8 120.24,-153.8 117.24,-149.8 15.76,-149.8 15.76,-113.8 144.24,-113.8 144.24,-149.8"/>
<text text-anchor="middle" x="80" y="-127.6" font-family="Times,serif" font-size="14.00">WorldSceneModule</text>
</g>
<!-- WorldScene&#45;&gt;WorldSceneModule -->
<g id="edge1" class="edge">
<title>WorldScene&#45;&gt;WorldSceneModule</title>
<path fill="none" stroke="black" d="M80,-84.91C80,-84.91 80,-103.79 80,-103.79"/>
<polygon fill="black" stroke="black" points="76.5,-103.79 80,-113.79 83.5,-103.79 76.5,-103.79"/>
</g>
<!-- WorldScene  -->
<g id="node3" class="node">
<title>WorldScene </title>
<polygon fill="#fb8072" stroke="black" points="124.19,-214.8 35.81,-214.8 35.81,-178.8 124.19,-178.8 124.19,-214.8"/>
<text text-anchor="middle" x="80" y="-192.6" font-family="Times,serif" font-size="14.00">WorldScene </text>
</g>
<!-- WorldSceneModule&#45;&gt;WorldScene  -->
<g id="edge2" class="edge">
<title>WorldSceneModule&#45;&gt;WorldScene </title>
<path fill="none" stroke="black" stroke-dasharray="5,2" d="M80,-149.91C80,-149.91 80,-168.79 80,-168.79"/>
<polygon fill="black" stroke="black" points="76.5,-168.79 80,-178.79 83.5,-168.79 76.5,-168.79"/>
</g>
</g>
</svg>
