<?xml version="1.0" encoding="UTF-8" standalone="no"?>
<!DOCTYPE svg PUBLIC "-//W3C//DTD SVG 1.1//EN"
 "http://www.w3.org/Graphics/SVG/1.1/DTD/svg11.dtd">
<!-- Generated by graphviz version 2.47.3 (20210619.1520)
 -->
<!-- Title: dependencies Pages: 1 -->
<svg width="264pt" height="247pt"
 viewBox="0.00 0.00 264.00 246.80" xmlns="http://www.w3.org/2000/svg" xmlns:xlink="http://www.w3.org/1999/xlink">
<g id="graph0" class="graph" transform="scale(1 1) rotate(0) translate(4 242.8)">
<title>dependencies</title>
<polygon fill="white" stroke="transparent" points="-4,4 -4,-242.8 260,-242.8 260,4 -4,4"/>
<text text-anchor="middle" x="128" y="-8.2" font-family="sans-serif" font-size="14.00">dependencies</text>
<g id="clust1" class="cluster">
<title>cluster_ManageAvatarAppearancesModule</title>
<polygon fill="none" stroke="black" stroke-dasharray="1,5" points="8,-32.8 8,-230.8 248,-230.8 248,-32.8 8,-32.8"/>
</g>
<g id="clust2" class="cluster">
<title>cluster_ManageAvatarAppearancesModule_declarations</title>
<polygon fill="none" stroke="black" points="18,-40.8 18,-92.8 238,-92.8 238,-40.8 18,-40.8"/>
</g>
<g id="clust5" class="cluster">
<title>cluster_ManageAvatarAppearancesModule_exports</title>
<polygon fill="none" stroke="black" points="16,-170.8 16,-222.8 240,-222.8 240,-170.8 16,-170.8"/>
</g>
<!-- ManageAvatarAppearancesScene -->
<g id="node1" class="node">
<title>ManageAvatarAppearancesScene</title>
<polygon fill="#ffffb3" stroke="black" points="230.39,-84.8 25.61,-84.8 25.61,-48.8 230.39,-48.8 230.39,-84.8"/>
<text text-anchor="middle" x="128" y="-62.6" font-family="Times,serif" font-size="14.00">ManageAvatarAppearancesScene</text>
</g>
<!-- ManageAvatarAppearancesModule -->
<g id="node2" class="node">
<title>ManageAvatarAppearancesModule</title>
<polygon fill="#8dd3c7" stroke="black" points="235.51,-149.8 232.51,-153.8 211.51,-153.8 208.51,-149.8 20.49,-149.8 20.49,-113.8 235.51,-113.8 235.51,-149.8"/>
<text text-anchor="middle" x="128" y="-127.6" font-family="Times,serif" font-size="14.00">ManageAvatarAppearancesModule</text>
</g>
<!-- ManageAvatarAppearancesScene&#45;&gt;ManageAvatarAppearancesModule -->
<g id="edge1" class="edge">
<title>ManageAvatarAppearancesScene&#45;&gt;ManageAvatarAppearancesModule</title>
<path fill="none" stroke="black" d="M128,-84.91C128,-84.91 128,-103.79 128,-103.79"/>
<polygon fill="black" stroke="black" points="124.5,-103.79 128,-113.79 131.5,-103.79 124.5,-103.79"/>
</g>
<!-- ManageAvatarAppearancesScene  -->
<g id="node3" class="node">
<title>ManageAvatarAppearancesScene </title>
<polygon fill="#fb8072" stroke="black" points="232.39,-214.8 23.61,-214.8 23.61,-178.8 232.39,-178.8 232.39,-214.8"/>
<text text-anchor="middle" x="128" y="-192.6" font-family="Times,serif" font-size="14.00">ManageAvatarAppearancesScene </text>
</g>
<!-- ManageAvatarAppearancesModule&#45;&gt;ManageAvatarAppearancesScene  -->
<g id="edge2" class="edge">
<title>ManageAvatarAppearancesModule&#45;&gt;ManageAvatarAppearancesScene </title>
<path fill="none" stroke="black" stroke-dasharray="5,2" d="M128,-149.91C128,-149.91 128,-168.79 128,-168.79"/>
<polygon fill="black" stroke="black" points="124.5,-168.79 128,-178.79 131.5,-168.79 124.5,-168.79"/>
</g>
</g>
</svg>
