<?xml version="1.0" encoding="UTF-8" standalone="no"?>
<!DOCTYPE svg PUBLIC "-//W3C//DTD SVG 1.1//EN"
 "http://www.w3.org/Graphics/SVG/1.1/DTD/svg11.dtd">
<!-- Generated by graphviz version 2.47.3 (20210619.1520)
 -->
<!-- Title: dependencies Pages: 1 -->
<svg width="368pt" height="247pt"
 viewBox="0.00 0.00 368.00 246.80" xmlns="http://www.w3.org/2000/svg" xmlns:xlink="http://www.w3.org/1999/xlink">
<g id="graph0" class="graph" transform="scale(1 1) rotate(0) translate(4 242.8)">
<title>dependencies</title>
<polygon fill="white" stroke="transparent" points="-4,4 -4,-242.8 364,-242.8 364,4 -4,4"/>
<text text-anchor="middle" x="180" y="-8.2" font-family="sans-serif" font-size="14.00">dependencies</text>
<g id="clust1" class="cluster">
<title>cluster_PopoverModule</title>
<polygon fill="none" stroke="black" stroke-dasharray="1,5" points="8,-32.8 8,-230.8 352,-230.8 352,-32.8 8,-32.8"/>
</g>
<g id="clust2" class="cluster">
<title>cluster_PopoverModule_declarations</title>
<polygon fill="none" stroke="black" points="20,-40.8 20,-92.8 341,-92.8 341,-40.8 20,-40.8"/>
</g>
<g id="clust6" class="cluster">
<title>cluster_PopoverModule_exports</title>
<polygon fill="none" stroke="black" points="16,-170.8 16,-222.8 344,-222.8 344,-170.8 16,-170.8"/>
</g>
<!-- PopoverContentComponent -->
<g id="node1" class="node">
<title>PopoverContentComponent</title>
<polygon fill="#ffffb3" stroke="black" points="333.32,-84.8 160.68,-84.8 160.68,-48.8 333.32,-48.8 333.32,-84.8"/>
<text text-anchor="middle" x="247" y="-62.6" font-family="Times,serif" font-size="14.00">PopoverContentComponent</text>
</g>
<!-- PopoverModule -->
<g id="node3" class="node">
<title>PopoverModule</title>
<polygon fill="#8dd3c7" stroke="black" points="139.21,-149.8 136.21,-153.8 115.21,-153.8 112.21,-149.8 32.79,-149.8 32.79,-113.8 139.21,-113.8 139.21,-149.8"/>
<text text-anchor="middle" x="86" y="-127.6" font-family="Times,serif" font-size="14.00">PopoverModule</text>
</g>
<!-- PopoverContentComponent&#45;&gt;PopoverModule -->
<g id="edge1" class="edge">
<title>PopoverContentComponent&#45;&gt;PopoverModule</title>
<path fill="none" stroke="black" d="M275.72,-84.82C275.72,-102.17 275.72,-125.8 275.72,-125.8 275.72,-125.8 149.35,-125.8 149.35,-125.8"/>
<polygon fill="black" stroke="black" points="149.35,-122.3 139.35,-125.8 149.35,-129.3 149.35,-122.3"/>
</g>
<!-- PopoverDirective -->
<g id="node2" class="node">
<title>PopoverDirective</title>
<polygon fill="#ffffb3" stroke="black" points="142.24,-84.8 27.76,-84.8 27.76,-48.8 142.24,-48.8 142.24,-84.8"/>
<text text-anchor="middle" x="85" y="-62.6" font-family="Times,serif" font-size="14.00">PopoverDirective</text>
</g>
<!-- PopoverDirective&#45;&gt;PopoverModule -->
<g id="edge2" class="edge">
<title>PopoverDirective&#45;&gt;PopoverModule</title>
<path fill="none" stroke="black" d="M86,-84.91C86,-84.91 86,-103.79 86,-103.79"/>
<polygon fill="black" stroke="black" points="82.5,-103.79 86,-113.79 89.5,-103.79 82.5,-103.79"/>
</g>
<!-- PopoverContentComponent  -->
<g id="node4" class="node">
<title>PopoverContentComponent </title>
<polygon fill="#fb8072" stroke="black" points="335.82,-214.8 160.18,-214.8 160.18,-178.8 335.82,-178.8 335.82,-214.8"/>
<text text-anchor="middle" x="248" y="-192.6" font-family="Times,serif" font-size="14.00">PopoverContentComponent </text>
</g>
<!-- PopoverModule&#45;&gt;PopoverContentComponent  -->
<g id="edge3" class="edge">
<title>PopoverModule&#45;&gt;PopoverContentComponent </title>
<path fill="none" stroke="black" stroke-dasharray="5,2" d="M139.42,-137.8C176.13,-137.8 218.28,-137.8 218.28,-137.8 218.28,-137.8 218.28,-168.78 218.28,-168.78"/>
<polygon fill="black" stroke="black" points="214.78,-168.78 218.28,-178.78 221.78,-168.78 214.78,-168.78"/>
</g>
<!-- PopoverDirective  -->
<g id="node5" class="node">
<title>PopoverDirective </title>
<polygon fill="#fb8072" stroke="black" points="142.24,-214.8 23.76,-214.8 23.76,-178.8 142.24,-178.8 142.24,-214.8"/>
<text text-anchor="middle" x="83" y="-192.6" font-family="Times,serif" font-size="14.00">PopoverDirective </text>
</g>
<!-- PopoverModule&#45;&gt;PopoverDirective  -->
<g id="edge4" class="edge">
<title>PopoverModule&#45;&gt;PopoverDirective </title>
<path fill="none" stroke="black" stroke-dasharray="5,2" d="M86,-149.91C86,-149.91 86,-168.79 86,-168.79"/>
<polygon fill="black" stroke="black" points="82.5,-168.79 86,-178.79 89.5,-168.79 82.5,-168.79"/>
</g>
</g>
</svg>
