<?xml version="1.0" encoding="UTF-8" standalone="no"?>
<!DOCTYPE svg PUBLIC "-//W3C//DTD SVG 1.1//EN"
 "http://www.w3.org/Graphics/SVG/1.1/DTD/svg11.dtd">
<!-- Generated by graphviz version 2.47.3 (20210619.1520)
 -->
<!-- Title: dependencies Pages: 1 -->
<svg width="598pt" height="247pt"
 viewBox="0.00 0.00 598.00 246.80" xmlns="http://www.w3.org/2000/svg" xmlns:xlink="http://www.w3.org/1999/xlink">
<g id="graph0" class="graph" transform="scale(1 1) rotate(0) translate(4 242.8)">
<title>dependencies</title>
<polygon fill="white" stroke="transparent" points="-4,4 -4,-242.8 594,-242.8 594,4 -4,4"/>
<text text-anchor="middle" x="295" y="-8.2" font-family="sans-serif" font-size="14.00">dependencies</text>
<g id="clust1" class="cluster">
<title>cluster_ColorPickerSelectModule</title>
<polygon fill="none" stroke="black" stroke-dasharray="1,5" points="8,-32.8 8,-230.8 582,-230.8 582,-32.8 8,-32.8"/>
</g>
<g id="clust5" class="cluster">
<title>cluster_ColorPickerSelectModule_exports</title>
<polygon fill="none" stroke="black" points="246,-170.8 246,-222.8 448,-222.8 448,-170.8 246,-170.8"/>
</g>
<g id="clust4" class="cluster">
<title>cluster_ColorPickerSelectModule_imports</title>
<polygon fill="none" stroke="black" points="224,-40.8 224,-92.8 574,-92.8 574,-40.8 224,-40.8"/>
</g>
<g id="clust2" class="cluster">
<title>cluster_ColorPickerSelectModule_declarations</title>
<polygon fill="none" stroke="black" points="16,-40.8 16,-92.8 216,-92.8 216,-40.8 16,-40.8"/>
</g>
<!-- ColorPickerSelectComponent -->
<g id="node1" class="node">
<title>ColorPickerSelectComponent</title>
<polygon fill="#ffffb3" stroke="black" points="207.69,-84.8 24.31,-84.8 24.31,-48.8 207.69,-48.8 207.69,-84.8"/>
<text text-anchor="middle" x="116" y="-62.6" font-family="Times,serif" font-size="14.00">ColorPickerSelectComponent</text>
</g>
<!-- ColorPickerSelectModule -->
<g id="node2" class="node">
<title>ColorPickerSelectModule</title>
<polygon fill="#8dd3c7" stroke="black" points="427.91,-149.8 424.91,-153.8 403.91,-153.8 400.91,-149.8 266.09,-149.8 266.09,-113.8 427.91,-113.8 427.91,-149.8"/>
<text text-anchor="middle" x="347" y="-127.6" font-family="Times,serif" font-size="14.00">ColorPickerSelectModule</text>
</g>
<!-- ColorPickerSelectComponent&#45;&gt;ColorPickerSelectModule -->
<g id="edge1" class="edge">
<title>ColorPickerSelectComponent&#45;&gt;ColorPickerSelectModule</title>
<path fill="none" stroke="black" d="M116,-84.91C116,-104.14 116,-131.8 116,-131.8 116,-131.8 256.21,-131.8 256.21,-131.8"/>
<polygon fill="black" stroke="black" points="256.21,-135.3 266.21,-131.8 256.21,-128.3 256.21,-135.3"/>
</g>
<!-- ColorPickerSelectComponent  -->
<g id="node6" class="node">
<title>ColorPickerSelectComponent </title>
<polygon fill="#fb8072" stroke="black" points="440.19,-214.8 253.81,-214.8 253.81,-178.8 440.19,-178.8 440.19,-214.8"/>
<text text-anchor="middle" x="347" y="-192.6" font-family="Times,serif" font-size="14.00">ColorPickerSelectComponent </text>
</g>
<!-- ColorPickerSelectModule&#45;&gt;ColorPickerSelectComponent  -->
<g id="edge5" class="edge">
<title>ColorPickerSelectModule&#45;&gt;ColorPickerSelectComponent </title>
<path fill="none" stroke="black" stroke-dasharray="5,2" d="M347,-149.91C347,-149.91 347,-168.79 347,-168.79"/>
<polygon fill="black" stroke="black" points="343.5,-168.79 347,-178.79 350.5,-168.79 343.5,-168.79"/>
</g>
<!-- BemModule -->
<g id="node3" class="node">
<title>BemModule</title>
<polygon fill="#8dd3c7" stroke="black" points="565.99,-84.8 562.99,-88.8 541.99,-88.8 538.99,-84.8 480.01,-84.8 480.01,-48.8 565.99,-48.8 565.99,-84.8"/>
<text text-anchor="middle" x="523" y="-62.6" font-family="Times,serif" font-size="14.00">BemModule</text>
</g>
<!-- BemModule&#45;&gt;ColorPickerSelectModule -->
<g id="edge2" class="edge">
<title>BemModule&#45;&gt;ColorPickerSelectModule</title>
<path fill="none" stroke="black" d="M523,-84.91C523,-104.14 523,-131.8 523,-131.8 523,-131.8 437.79,-131.8 437.79,-131.8"/>
<polygon fill="black" stroke="black" points="437.79,-128.3 427.79,-131.8 437.79,-135.3 437.79,-128.3"/>
</g>
<!-- PopoverModule -->
<g id="node4" class="node">
<title>PopoverModule</title>
<polygon fill="#8dd3c7" stroke="black" points="462.21,-84.8 459.21,-88.8 438.21,-88.8 435.21,-84.8 355.79,-84.8 355.79,-48.8 462.21,-48.8 462.21,-84.8"/>
<text text-anchor="middle" x="409" y="-62.6" font-family="Times,serif" font-size="14.00">PopoverModule</text>
</g>
<!-- PopoverModule&#45;&gt;ColorPickerSelectModule -->
<g id="edge3" class="edge">
<title>PopoverModule&#45;&gt;ColorPickerSelectModule</title>
<path fill="none" stroke="black" d="M391.8,-84.91C391.8,-84.91 391.8,-103.79 391.8,-103.79"/>
<polygon fill="black" stroke="black" points="388.3,-103.79 391.8,-113.79 395.3,-103.79 388.3,-103.79"/>
</g>
<!-- SvgIconModule -->
<g id="node5" class="node">
<title>SvgIconModule</title>
<polygon fill="#8dd3c7" stroke="black" points="338.21,-84.8 335.21,-88.8 314.21,-88.8 311.21,-84.8 231.79,-84.8 231.79,-48.8 338.21,-48.8 338.21,-84.8"/>
<text text-anchor="middle" x="285" y="-62.6" font-family="Times,serif" font-size="14.00">SvgIconModule</text>
</g>
<!-- SvgIconModule&#45;&gt;ColorPickerSelectModule -->
<g id="edge4" class="edge">
<title>SvgIconModule&#45;&gt;ColorPickerSelectModule</title>
<path fill="none" stroke="black" d="M302.2,-84.91C302.2,-84.91 302.2,-103.79 302.2,-103.79"/>
<polygon fill="black" stroke="black" points="298.7,-103.79 302.2,-113.79 305.7,-103.79 298.7,-103.79"/>
</g>
</g>
</svg>
